<?xml version="1.0" encoding="utf-8"?>
<!-- Generator: Adobe Illustrator 27.1.1, SVG Export Plug-In . SVG Version: 6.00 Build 0)  -->
<svg version="1.1" id="Layer_1" xmlns="http://www.w3.org/2000/svg" xmlns:xlink="http://www.w3.org/1999/xlink" x="0px" y="0px"
	 viewBox="0 0 60 60" style="enable-background:new 0 0 60 60;" xml:space="preserve">
<style type="text/css">
	.st0{fill:#012C66;}
	.st1{fill:#FF9900;}
</style>
<path class="st0" d="M47,45.5H13c-1.3,0-2.3,1.1-2.3,2.3V53c0,1.3,1.1,2.3,2.3,2.3H47c1.3,0,2.3-1.1,2.3-2.3v-5.2
	C49.3,46.5,48.2,45.5,47,45.5z M47.5,53c0,0.3-0.2,0.5-0.5,0.5H13c-0.3,0-0.5-0.2-0.5-0.5v-5.2c0-0.3,0.2-0.5,0.5-0.5H47
	c0.3,0,0.5,0.2,0.5,0.5V53z"/>
<path class="st1" d="M34.2,49.5H17.8c-0.5,0-0.9,0.4-0.9,0.9c0,0.5,0.4,0.9,0.9,0.9h16.4c0.5,0,0.9-0.4,0.9-0.9
	C35.1,49.9,34.7,49.5,34.2,49.5L34.2,49.5z M39,49.6c0,0-0.1-0.1-0.2-0.1c-0.1,0-0.1,0-0.2-0.1c-0.1,0-0.2,0-0.4,0
	c-0.1,0-0.1,0-0.2,0.1c-0.1,0-0.1,0.1-0.2,0.1c-0.1,0-0.1,0.1-0.1,0.1c-0.2,0.2-0.3,0.4-0.3,0.6c0,0.2,0.1,0.5,0.3,0.6
	c0.2,0.2,0.4,0.3,0.6,0.3c0.1,0,0.1,0,0.2,0c0.1,0,0.1,0,0.2-0.1c0.1,0,0.1-0.1,0.2-0.1c0,0,0.1-0.1,0.1-0.1
	c0.2-0.2,0.3-0.4,0.3-0.6c0-0.2-0.1-0.5-0.3-0.6C39.1,49.7,39,49.7,39,49.6z M43,50.1c0-0.1-0.1-0.1-0.1-0.2
	c-0.1-0.1-0.1-0.2-0.2-0.2c0,0-0.1-0.1-0.2-0.1c-0.1,0-0.1,0-0.2-0.1c-0.1,0-0.2,0-0.4,0c-0.1,0-0.2,0.1-0.3,0.1
	c-0.1,0-0.1,0.1-0.1,0.1c0,0-0.1,0.1-0.1,0.1c0,0-0.1,0.1-0.1,0.2c0,0.1,0,0.1-0.1,0.2c0,0.1,0,0.2,0,0.4c0,0.1,0,0.1,0.1,0.2
	c0,0.1,0.1,0.1,0.1,0.2c0,0,0.1,0.1,0.1,0.1c0,0,0.1,0.1,0.1,0.1c0,0,0.1,0.1,0.2,0.1c0.1,0,0.1,0,0.2,0.1c0.1,0,0.1,0,0.2,0
	c0.1,0,0.1,0,0.2,0c0.1,0,0.1,0,0.2-0.1c0.1,0,0.1-0.1,0.2-0.1c0,0,0.1-0.1,0.1-0.1c0,0,0.1-0.1,0.1-0.1c0,0,0.1-0.1,0.1-0.2
	c0-0.1,0-0.1,0.1-0.2c0-0.1,0-0.1,0-0.2c0-0.1,0-0.1,0-0.2C43.1,50.2,43,50.1,43,50.1z"/>
<path class="st0" d="M47,33.1H13c-1.3,0-2.3,1.1-2.3,2.3v5.2c0,1.3,1.1,2.3,2.3,2.3H47c1.3,0,2.3-1.1,2.3-2.3v-5.2
	C49.3,34.2,48.2,33.1,47,33.1z M47.5,40.7c0,0.3-0.2,0.5-0.5,0.5H13c-0.3,0-0.5-0.2-0.5-0.5v-5.2c0-0.3,0.2-0.5,0.5-0.5H47
	c0.3,0,0.5,0.2,0.5,0.5V40.7z"/>
<path class="st1" d="M34.2,37.2H17.8c-0.5,0-0.9,0.4-0.9,0.9c0,0.5,0.4,0.9,0.9,0.9h16.4c0.5,0,0.9-0.4,0.9-0.9
	C35.1,37.6,34.7,37.2,34.2,37.2L34.2,37.2z M39.3,37.7c0-0.1,0-0.1-0.1-0.2c0-0.1-0.1-0.1-0.1-0.1c-0.1-0.1-0.2-0.1-0.3-0.2
	c-0.1,0-0.1,0-0.2-0.1c-0.1,0-0.2,0-0.4,0c-0.1,0-0.1,0-0.2,0.1c-0.1,0-0.2,0.1-0.3,0.2c-0.1,0.1-0.2,0.2-0.2,0.3
	c0,0.1-0.1,0.2-0.1,0.3c0,0.1,0,0.1,0,0.2c0,0.1,0,0.1,0.1,0.2c0,0.1,0.1,0.2,0.2,0.3c0,0,0.1,0.1,0.1,0.1c0,0,0.1,0.1,0.2,0.1
	c0.1,0,0.1,0,0.2,0.1c0.1,0,0.1,0,0.2,0c0.1,0,0.1,0,0.2,0c0.1,0,0.1,0,0.2-0.1c0.1,0,0.1-0.1,0.2-0.1c0,0,0.1-0.1,0.1-0.1
	c0,0,0.1-0.1,0.1-0.1c0,0,0.1-0.1,0.1-0.2c0-0.1,0-0.1,0.1-0.2c0-0.1,0-0.1,0-0.2c0-0.1,0-0.1,0-0.2C39.3,37.8,39.3,37.8,39.3,37.7z
	 M43,37.7c0-0.1,0-0.1-0.1-0.2c0-0.1-0.1-0.1-0.1-0.1c0,0-0.1-0.1-0.1-0.1c0,0-0.1-0.1-0.2-0.1c-0.1,0-0.1,0-0.2-0.1
	c-0.1,0-0.2,0-0.4,0c-0.1,0-0.1,0-0.2,0.1c-0.1,0-0.1,0.1-0.2,0.1c-0.1,0-0.1,0.1-0.1,0.1c0,0-0.1,0.1-0.1,0.1c0,0-0.1,0.1-0.1,0.2
	c0,0.1-0.1,0.2-0.1,0.3c0,0.1,0,0.1,0,0.2c0,0.1,0,0.1,0.1,0.2c0,0.1,0.1,0.2,0.2,0.3c0,0,0.1,0.1,0.1,0.1c0,0,0.1,0.1,0.2,0.1
	c0.1,0,0.1,0,0.2,0.1c0.1,0,0.1,0,0.2,0c0.1,0,0.1,0,0.2,0c0.1,0,0.1,0,0.2-0.1c0.1,0,0.1-0.1,0.2-0.1s0.1-0.1,0.1-0.1
	c0,0,0.1-0.1,0.1-0.1c0,0,0.1-0.1,0.1-0.2c0-0.1,0-0.1,0.1-0.2c0-0.1,0-0.1,0-0.2c0-0.1,0-0.1,0-0.2C43.1,37.8,43,37.8,43,37.7z"/>
<g>
	<g>
		<path class="st0" d="M40.4,26.7c0-0.2-0.2-0.2-0.4-0.4c0,0,0,0-0.2-0.2c-0.2,0-0.2-0.2-0.2-0.2l-0.2-0.2c-0.2-0.2-0.2-0.2-0.2-0.4
			c0-0.2-0.2-0.4-0.2-0.7c0-0.2,0-0.4-0.2-0.9c-0.4,0.4-0.4,0.7-0.4,0.9c0,0.4,0,0.7,0.2,1c0.2,0.4,0.4,0.7,0.7,0.7s0.7,0.2,0.7,0.4
			c0.2,0.2,0.2,0.2,0.4,0.4c0,0.2,0,0.2-0.2,0.4c-0.2,0.2-0.7,0.4-1,0.4c-0.7,0.2-1,0.4-1.4,0.7c-0.2,0.2-0.7,0.4-1.2,0.9
			c-0.4,0.2-0.9,0.4-1.2,0.4s-0.9-0.2-1-0.4c-0.2-0.4-0.4-0.9-0.2-1.4c0.2-1,0.2-2.1,0-2.8c-0.2-0.4-0.2-1,0-1.2
			c0-0.4,0.2-0.7,0.4-0.7c0.2,0,0.4,0,0.7,0.4c0,0,0,0.2,0.2,0.2c0,0.2,0.2,0.2,0.2,0.2s0,0.2,0.2,0.2l0.2,0.2c0.2,0,0.2,0,0.4,0
			c0.2,0,0.7,0,0.9-0.2c0.2-0.2,0.4-0.2,0.7-0.4c0.2-0.2,0.2-0.4,0.4-0.4c0.2-0.2,0.2-0.2,0.4-0.2l0.2-0.2c0-0.2,0.2-0.4,0.2-0.9
			c0-0.5,0-0.7,0-1.2c-0.2-0.9-0.4-1.7-0.9-2.8c-0.4-1-0.9-1.7-1.4-2.3c-0.9-1-1.4-1.9-1.9-3s-0.6-2.1-0.6-3c0-0.7,0-1.2-0.4-2.1
			c-0.4-0.7-0.9-1.2-1.2-1.7c-0.4-0.2-0.9-0.4-1.2-0.7c-0.4-0.2-1-0.2-1.4-0.2c-0.7,0-1,0-1.4,0.2c-0.9,0.4-1.2,0.9-1.4,1.4
			c-0.2,0.7-0.4,1.2-0.4,2.1c0,1.9,0.2,3.1,0.2,4.2c-0.2,0.4-0.7,1.4-1.7,2.8c-0.2,0.2-0.4,0.4-0.7,0.9c-0.2,0.2-0.2,0.7-0.4,0.9
			c0,0.2-0.2,0.7-0.4,1s-0.2,0.9-0.4,1c0,0.2-0.2,0.4-0.2,0.7c-0.2,0.2-0.2,0.4-0.4,0.7c0,0.2-0.2,0.4-0.2,0.7c0,0.3,0,0.4,0,0.4
			c0,0.2,0.2,0.2,0.2,0.2c0.4-0.2,0.9-0.2,1.4,0.7c0.4,0.4,1.2,1.7,2.3,3.3c0,0.2,0.2,0.4,0.2,0.4c0,0.2,0.2,0.4,0.2,0.7
			s0.2,0.7,0,0.9c0,0.2-0.2,0.4-0.4,0.7c-0.2,0.2-0.4,0.4-0.9,0.4c-0.2,0-0.4,0-0.9,0c-0.2,0-0.7-0.2-1-0.4s-0.9-0.2-1-0.2
			c-0.4,0-0.9-0.2-1.4-0.2c-0.7-0.2-1-0.2-1.2-0.2s-0.4-0.2-0.4-0.4s0-0.4,0.2-0.7s0-0.8,0-0.8v-0.2v-0.2c0,0,0-0.2-0.2-0.2
			c0-0.2,0-0.2-0.2-0.2c-0.2-0.4-0.2-0.7,0-0.9c-0.1-0.3,0.1-0.3,0.6-0.3c0.5,0,0.9,0,1-0.2c0.4-0.2,0.7-0.9,0.4-1.4
			c0,0.2,0,0.7-0.2,0.7s-0.2,0.4-0.7,0.4c-0.2,0-0.4,0.2-0.9,0.2c-0.5,0-0.7,0-0.9,0.2c0,0-0.2,0.2-0.2,0.4c0,0.2,0,0.4,0,0.4
			c0,0.2,0,0.4,0.2,0.7c0,0.2,0,0.4,0,0.7c0,0,0,0.4-0.2,0.9c-0.2,0.5-0.2,0.7,0,0.9l0.3,0.1c0.2,0,0.2,0.2,0.4,0.2s0.4,0,0.7,0.2
			c0.2,0,0.4,0,0.7,0.2c0.2,0,0.7,0,0.7,0.2c0.7,0.2,1.2,0.4,2.1,0.7c0.9,0.2,1.2,0.4,1.4,0.4s0.4,0,0.9-0.2
			c0.2-0.2,0.4-0.2,0.7-0.4c0.2-0.2,0.4-0.2,0.9-0.4c0.4-0.2,0.7-0.2,1-0.2c0.2,0,0.7,0,0.9,0c0.4,0,0.7,0,0.9,0c0.9,0,1.4,0,1.9,0
			c0.2,0,0.4,0,0.7,0.2c0.2,0,0.2,0.2,0.2,0.2s0.2,0.2,0.2,0.4c0.2,0.2,0.2,0.2,0.4,0.4c0.4,0.2,0.9,0.2,1.2,0.2s0.9-0.2,0.9-0.2
			c0.2-0.2,0.7-0.7,1-0.9c0.4-0.4,0.9-0.7,1.2-0.9c0,0,0.2,0,0.4-0.2c0.2,0,0.2-0.2,0.4-0.2c0.2,0,0.2-0.2,0.4-0.2
			c0.2,0,0.2-0.2,0.4-0.2s0.2-0.2,0.4-0.2c0.2,0,0.2-0.2,0.2-0.2v-0.2C40.4,26.9,40.4,26.7,40.4,26.7L40.4,26.7z M32.8,13.3
			C33,13.3,33,13.3,32.8,13.3C33,13.3,33,13.3,32.8,13.3C33,13.5,33,13.5,32.8,13.3C33,13.5,33,13.5,32.8,13.3
			c0.2,0.2,0.2,0.2,0.4,0.4h0.2h0.2c0,0,0,0,0,0.2v0.2l-0.1,0.3c-0.2,0-0.4-0.2-0.7-0.4C32.8,13.7,32.8,13.5,32.8,13.3L32.8,13.3z
			 M31.1,8C31.4,7.9,31.4,7.9,31.1,8c0-0.2,0-0.2,0-0.4V7.5c0,0,0,0,0.2,0c0,0,0.2,0,0.4,0.2c0,0,0,0,0.2,0s0,0,0.2,0l0,0
			c0,0,0,0-0.2,0h-0.2h-0.2c0,0-0.2,0-0.2,0.2C31.4,7.9,31.1,7.9,31.1,8L31.1,8C31.1,8.2,31.1,8,31.1,8L31.1,8L31.1,8z M24.6,18.4
			C24.6,18.4,24.6,18.1,24.6,18.4c0.2-0.2,0.2-0.2,0.2-0.4c0-0.2,0-0.2,0-0.2l0,0l0,0l0,0l0,0l0,0l0,0l0,0l0,0
			C24.9,18.4,24.9,18.4,24.6,18.4C24.6,18.5,24.6,18.5,24.6,18.4C24.4,18.5,24.4,18.4,24.6,18.4L24.6,18.4z M33.7,26.7
			c0,0.2,0,0.7-0.2,1.2c-0.2,0.6-0.2,0.9-0.2,1c-0.2,0-0.2,0-0.4-0.2c0-0.2,0-0.2,0-0.4c0.2-0.7,0.2-1,0.4-1.2c0-0.4,0-0.7-0.2-0.7
			c0,0-0.2,0-0.4,0.4c-0.4,0.7-1.2,1-2.5,1.2c-1,0.2-1.9,0-2.3-0.4h-0.2c0,0-0.2,0-0.2,0.2l0,0c0,0,0,0,0.2,0.2l0.2,0.2
			c0.4,0.7,0.4,1,0,1.2c0-0.4,0-0.9,0-1s-0.4-0.4-0.6-0.9C27.2,27.5,27,27.3,27,27c0.2,0,0.4-0.2,0.7-0.4c0.2-0.2,0.2-0.4,0.2-0.7
			s0-0.4-0.2-0.4c0,0-0.4-0.4-1.2-1c-0.9-0.7-1.2-1-1.4-1.2c0,0-0.2-0.2-0.4-0.2s-0.2-0.2-0.4-0.4c-0.4-1-0.4-1.9-0.2-2.3l0,0
			c0,0,0,0,0,0.2c0,0.2,0,0.4,0,0.9c0,0.7,0.2,1,0.4,1.2c0.2,0.2,0.4,0.2,0.4,0c0,0,0-0.4,0-0.9c0-0.5,0-0.9,0-1
			c0-0.4,0.2-1.2,0.7-1.9c0.4-0.9,0.7-1.2,0.9-1.2c-0.2-0.2-0.2-0.7-0.2-0.9s0.2-0.7,0.2-0.9c0.2-0.2,0.2-0.4,0.4-0.9
			c0.2-0.2,0.2-0.7,0.2-0.9v-0.2c0,0,0.2,0,0.4,0.2c0.4,0.7,0.7,0.9,0.9,1c0.2,0.2,0.4,0.2,0.7,0c0.2-0.2,0.7-0.4,0.9-0.7
			c0.4-0.2,0.7-0.4,0.9-0.7c0,0,0,0,0.2,0h0.2c0,0,0,0,0.2,0c0,0,0,0,0.2,0l0,0l0,0l0,0c0,0,0-0.2-0.2-0.2h-0.2c0,0-0.2,0-0.4,0.2
			c-0.2,0-0.2,0.2-0.4,0.2s-0.2,0.2-0.4,0.2c-0.2,0-0.4,0.2-0.4,0.2c-0.2,0-0.4,0-0.4,0c-0.4,0-0.7,0-0.9-0.2c0-0.2,0-0.4,0-0.4
			s0,0,0.2,0c0.4,0,0.9,0,1,0c0.2,0,0.7-0.2,1-0.4c0,0,0.2-0.2,0.7-0.2c0.4-0.2,0.7-0.2,0.9-0.2s0.2,0,0.2-0.2v-0.2c0,0,0,0,0-0.2
			c0,0-0.2,0-0.2,0.2L31.8,13c-0.2,0-0.2,0.2-0.4,0.2s-0.2,0-0.4,0.2c-0.2,0-0.2,0-0.4,0c-0.4,0.2-1,0.2-1.4,0.2c-0.2,0-0.4,0-0.4,0
			c-0.2,0-0.2-0.2-0.2-0.2l-0.2-0.2c0-0.2-0.2-0.2-0.4-0.2c0,0-0.2-0.2,0-0.2s0-0.2,0.2-0.4c0,0,0,0,0.2-0.2
			c0.2-0.2,0.2-0.2,0.4-0.4c0-0.2,0.2-0.2,0.4-0.4v-0.3c0-0.2,0-0.4-0.2-0.7c0-0.2-0.2-0.2-0.4-0.2s-0.4,0-0.4,0.2
			c0,0.2-0.2,0.2-0.2,0.4s0,0.4,0.2,0.4c0,0.2,0.2,0.2,0.2,0.2s0.2,0,0,0.2l-0.2,0.2c0,0-0.2,0-0.2-0.2c0-0.2-0.2-0.4-0.2-0.4
			c0-0.2,0-0.4,0-0.4c0-0.2,0-0.7,0.2-0.9c0.2-0.2,0.4-0.4,0.7-0.4c0.2,0,0.4,0.2,0.7,0.4c0.2,0.2,0.2,0.7,0.2,1.2c0,0,0,0,0.2,0
			c0.2,0,0.2,0,0.4,0c0.2,0,0.4,0,0.4,0.2c0,0,0,0,0-0.2c-0.2-1.2,0.2-1.7,1.2-1.9c0.2,0,0.2,0,0.4,0c0,0,0.2,0.2,0.4,0.2
			c-0.4,0.2-0.4,0.4-0.4,0.6c0,0.2,0.2,0.4,0.2,0.7v0.4c0,0.2,0,0.4-0.2,0.4c-0.2,0-0.4,0-0.4,0s0-0.2,0-0.4c0-0.2,0-0.4,0-0.9
			c-0.2-0.2-0.4-0.4-0.7-0.4c-0.2,0-0.4,0.2-0.4,0.4s-0.2,0.4-0.2,0.7c0,0.2,0,0.4,0.2,0.4c0,0,0.2,0,0.4,0.2
			c0.2,0.2,0.4,0.2,0.7,0.2c0.4,0,0.7,0.2,0.7,0.4c0,0.2,0,0.4,0,0.7c0,0.2-0.2,0.7,0,0.9c0,0.2,0.2,0.4,0.2,0.7
			c0,0.2,0.2,0.4,0.4,0.4c0.2,0.2,0.2,0.4,0.4,0.9c0.2,0.4,0.2,0.9,0.4,1.4l0,0l0.2,0.2c0,0,0.2,0.2,0.2,0.4c0,0.2,0.2,0.4,0.2,0.7
			s0.2,0.7,0.2,1s0.2,0.9,0.2,1.4c0,0.6,0,1,0.2,1c0,0.2,0.2,0.2,0.7,0.2c0.5,0,0.7-0.2,0.7-0.7c0.2-1,0-2.3-0.9-3.8
			c-0.2-0.7-0.7-1-0.9-1c0.4,0.2,0.7,0.7,1,1c0.4,0.4,0.7,1,0.7,1.4c0,0,0,0.2,0,0.4s0,0.2,0,0.4v0.2c0,0.2,0,0.2,0,0.2v0.2v0.2V21
			c0,0.2,0,0.2,0,0.4c0,0.2,0,0.2,0,0.4c0.4,0.2,0.9,0.4,0.9,0.7c-0.2-0.2-0.4-0.2-0.9-0.2c-0.4,0-0.7,0-1,0.2
			c-0.2,0.2-0.4,0.4-0.4,0.7c-0.4,0-0.7,0-0.7,0.2c-0.2,0.2-0.2,0.7-0.4,1c0,0.4,0,0.9,0,1.2C33.5,26.3,33.7,26.7,33.7,26.7
			L33.7,26.7z M27.8,10.8L27.8,10.8C27.8,10.8,27.8,10.5,27.8,10.8C28,10.5,28,10.8,27.8,10.8C28,11,28,11,28,11.2l0,0
			C27.8,11.4,27.8,11.2,27.8,10.8C28,11,27.8,10.8,27.8,10.8z M31.4,11L31.4,11C31.4,11.2,31.1,11.2,31.4,11
			c-0.3-0.2-0.3-0.5-0.5-0.5l0,0l0,0c0,0,0,0,0.2,0c0.2,0,0.2,0,0.2,0.2C31.4,10.8,31.4,11,31.4,11L31.4,11z"/>
		<path class="st0" d="M28.2,11.9C28.2,11.9,28.2,12.1,28.2,11.9C28.2,12.1,28.2,11.9,28.2,11.9c0.2-0.2,0.2-0.2,0.4-0.2l0,0h-0.2
			C28.2,11.6,28.2,11.9,28.2,11.9L28.2,11.9z M29.3,11.6L29.3,11.6h0.4c0,0,0,0,0-0.2C29.7,11.6,29.5,11.6,29.3,11.6z"/>
	</g>
</g>
</svg>
