<?xml version="1.0" encoding="utf-8"?>
<!-- Generator: Adobe Illustrator 27.1.1, SVG Export Plug-In . SVG Version: 6.00 Build 0)  -->
<svg version="1.1" id="Layer_1" xmlns:svgjs="http://svgjs.com/svgjs"
	 xmlns="http://www.w3.org/2000/svg" xmlns:xlink="http://www.w3.org/1999/xlink" x="0px" y="0px" viewBox="0 0 60 60"
	 style="enable-background:new 0 0 60 60;" xml:space="preserve">
<style type="text/css">
	.st0{fill:#012C66;}
	.st1{fill:#FF9900;}
</style>
<g>
	<path class="st0" d="M7.6,20.2h41.3c1.5,0,2.7-1.2,2.7-2.7v-6.3c0-1.5-1.2-2.7-2.7-2.7H7.6c-1.5,0-2.7,1.2-2.7,2.7v6.3
		C4.9,19,6.1,20.2,7.6,20.2L7.6,20.2z M6.8,11.3c0-0.5,0.4-0.9,0.9-0.9h41.3c0.5,0,0.9,0.4,0.9,0.9v6.3c0,0.5-0.4,0.9-0.9,0.9H7.6
		c-0.5,0-0.9-0.4-0.9-0.9V11.3z"/>
	<path class="st0" d="M13.4,15.3h20c0.5,0,0.9-0.4,0.9-0.9c0-0.5-0.4-0.9-0.9-0.9h-20c-0.5,0-0.9,0.4-0.9,0.9
		C12.5,14.9,12.9,15.3,13.4,15.3L13.4,15.3z M37.8,14.8c0,0.1,0.1,0.1,0.1,0.2c0,0,0.1,0.1,0.1,0.1c0,0,0.1,0.1,0.1,0.1
		c0,0,0.1,0.1,0.2,0.1c0.1,0,0.1,0,0.2,0.1c0.3,0.1,0.6,0,0.8-0.2c0,0,0.1-0.1,0.1-0.1c0,0,0.1-0.1,0.1-0.2c0-0.1,0.1-0.2,0.1-0.3
		c0-0.1,0-0.2-0.1-0.3c0-0.1-0.1-0.1-0.1-0.2c0,0-0.1-0.1-0.1-0.1c-0.2-0.2-0.5-0.3-0.8-0.2c-0.1,0-0.1,0-0.2,0.1
		c-0.1,0-0.1,0.1-0.2,0.1c0,0-0.1,0.1-0.1,0.1c0,0-0.1,0.1-0.1,0.1c-0.1,0.1-0.1,0.2-0.1,0.3c0,0.1,0,0.1,0,0.2c0,0.1,0,0.1,0,0.2
		C37.7,14.7,37.7,14.7,37.8,14.8z M42.6,15.2c0,0,0.1,0.1,0.2,0.1c0.1,0,0.1,0,0.2,0.1c0.1,0,0.1,0,0.2,0c0.1,0,0.1,0,0.2,0
		c0.1,0,0.1,0,0.2-0.1c0.1,0,0.1-0.1,0.2-0.1s0.1-0.1,0.1-0.1c0.2-0.2,0.3-0.4,0.3-0.6c0-0.1,0-0.1,0-0.2c0-0.1-0.1-0.2-0.1-0.3
		c0,0-0.1-0.1-0.1-0.1c0,0-0.1-0.1-0.1-0.1c0,0-0.1-0.1-0.2-0.1c-0.1,0-0.1,0-0.2-0.1c-0.1,0-0.2,0-0.4,0c-0.1,0-0.1,0-0.2,0.1
		c-0.1,0-0.1,0.1-0.2,0.1c-0.1,0.1-0.2,0.2-0.2,0.2c0,0-0.1,0.1-0.1,0.2c0,0.1-0.1,0.2-0.1,0.3c0,0.2,0.1,0.5,0.3,0.6
		C42.5,15.1,42.6,15.1,42.6,15.2L42.6,15.2z M29.3,32.5H7.6c-0.5,0-0.9-0.4-0.9-0.9v-6.3c0-0.5,0.4-0.9,0.9-0.9h41.3
		c0.5,0,0.9,0.4,0.9,0.9c0,0.5,0.4,0.9,0.9,0.9c0.5,0,0.9-0.4,0.9-0.9c0-1.5-1.2-2.7-2.7-2.7H7.6c-1.5,0-2.7,1.2-2.7,2.7v6.3
		c0,1.5,1.2,2.7,2.7,2.7h21.7c0.5,0,0.9-0.4,0.9-0.9C30.2,32.9,29.8,32.5,29.3,32.5z"/>
	<path class="st0" d="M13.4,27.6c-0.5,0-0.9,0.4-0.9,0.9c0,0.5,0.4,0.9,0.9,0.9h20c0.5,0,0.9-0.4,0.9-0.9c0-0.5-0.4-0.9-0.9-0.9
		H13.4z M28.5,37.7c0-0.5-0.4-0.9-0.9-0.9c0,0,0,0,0,0h-20c-1.5,0-2.7,1.2-2.7,2.7v6.3c0,1.5,1.2,2.7,2.7,2.7h20
		c0.5,0,0.9-0.4,0.9-0.9c0-0.5-0.4-0.9-0.9-0.9h-20c-0.5,0-0.9-0.4-0.9-0.9v-6.3c0-0.5,0.4-0.9,0.9-0.9h20
		C28.1,38.6,28.5,38.2,28.5,37.7C28.5,37.7,28.5,37.7,28.5,37.7z"/>
	<path class="st0" d="M26.9,41.7H13.4c-0.5,0-0.9,0.4-0.9,0.9c0,0.5,0.4,0.9,0.9,0.9h13.5c0.5,0,0.9-0.4,0.9-0.9
		C27.8,42.1,27.4,41.7,26.9,41.7z"/>
	<path class="st1" d="M43.3,27.9c-6.5,0-11.8,5.3-11.8,11.8s5.3,11.8,11.8,11.8S55,46.1,55,39.6S49.8,27.9,43.3,27.9z M53.2,38.7
		h-4.3c-0.1-2.6-0.6-5-1.4-6.9c-0.3-0.6-0.5-1.1-0.9-1.6C50.2,31.5,52.9,34.8,53.2,38.7z M43.3,49.6c-0.9,0-1.8-1-2.5-2.6
		c-0.8-1.7-1.2-4-1.3-6.5h7.6C47,43,46.6,45.3,45.8,47C45.1,48.6,44.1,49.6,43.3,49.6L43.3,49.6z M39.5,38.7
		c0.1-2.4,0.5-4.5,1.3-6.2c0.7-1.6,1.7-2.6,2.5-2.6c0.9,0,1.8,1,2.5,2.6c0.7,1.7,1.2,3.8,1.3,6.2H39.5z M40,30.3
		c-0.3,0.5-0.6,1-0.9,1.6c-0.8,1.9-1.3,4.3-1.4,6.9h-4.3C33.7,34.8,36.4,31.5,40,30.3L40,30.3z M33.4,40.5h4.3
		c0.1,2.7,0.6,5.2,1.4,7.2c0.2,0.5,0.4,0.9,0.6,1.2C36.3,47.6,33.7,44.4,33.4,40.5z M46.8,49c0.2-0.4,0.4-0.8,0.6-1.2
		c0.9-2,1.4-4.5,1.4-7.2h4.3C52.9,44.4,50.3,47.6,46.8,49z"/>
</g>
</svg>
