<svg xmlns="http://www.w3.org/2000/svg" width="60" height="60" viewBox="0 0 30000 29999.765" style="enable-background:new 0 0 512 512" xml:space="preserve" fill-rule="evenodd"><path fill="#176bef" d="M7375.664 13555.43H3875.156v1038.75h2482.735c-122.695 1456.64 -1334.648 2077.852 -2478.515 2077.852 -1463.555 0 -2740.664 -1151.485 -2740.664 -2765.508 0 -1572.305 1217.461 -2783.086 2743.828 -2783.086 1177.735 0 1871.719 750.703 1871.719 750.703l727.148 -753.164S5548.009 10081.758 3845.392 10081.758C1677.422 10081.64 0 11911.523 0 13888.008c0 1936.64 1577.695 3825.235 3900.703 3825.235 2042.93 -0.117 3538.36 -1399.57 3538.36 -3469.102 0 -436.64 -63.398 -688.945 -63.398 -688.945z" data-original="#176bef"/><path fill="#ff3e30" d="M10257.539 13766.602c706.406 0 1375.781 571.055 1375.781 1491.211 0 900.82 -666.563 1488.047 -1378.945 1488.047 -782.813 0 -1400.508 -626.836 -1400.508 -1495.078 0 -849.727 609.844 -1484.18 1403.672 -1484.18zm-14.297 -963.398c-1436.367 0 -2465.742 1122.89 -2465.742 2432.695 0 1328.906 998.555 2472.773 2482.617 2472.773 1343.555 0 2444.414 -1026.914 2444.414 -2444.297 0 -1624.57 -1280.508 -2461.172 -2461.289 -2461.172z" data-original="#ff3e30"/><path fill="#f7b529" d="M15620.156 13766.602c706.523 0 1375.898 571.055 1375.898 1491.211 0 900.82 -666.68 1488.047 -1379.063 1488.047 -782.695 0 -1400.273 -626.836 -1400.273 -1495.078 0 -849.727 609.844 -1484.18 1403.438 -1484.18zm-14.18 -963.398c-1436.25 0 -2465.742 1122.89 -2465.742 2432.695 0 1328.906 998.438 2472.773 2482.617 2472.773 1343.555 0 2444.297 -1026.914 2444.297 -2444.297 0 -1624.57 -1280.39 -2461.172 -2461.172 -2461.172z" data-original="#f7b529"/><path fill="#176bef" d="M20961.445 13767.305c646.406 0 1310.156 551.836 1310.156 1494.375 0 958.125 -662.461 1486.172 -1324.453 1486.172 -702.773 0 -1356.797 -570.703 -1356.797 -1477.031 0 -941.719 679.219 -1503.515 1371.094 -1503.515zm-95.508 -961.523c-1318.36 0 -2354.765 1154.765 -2354.765 2450.86 0 1476.211 1201.523 2455.313 2332.031 2455.313 699.14 0 1070.86 -277.5 1345.43 -595.898v483.515c0 846.328 -513.985 1353.164 -1289.531 1353.164 -749.18 -0.117 -1124.883 -557.11 -1255.43 -873.281l-942.773 394.102c334.453 706.992 1007.695 1444.453 2206.055 1444.453 1310.86 0 2309.883 -825.703 2309.883 -2557.265v-4407.539h-1028.203v415.547c-316.172 -340.781 -748.711 -562.969 -1322.695 -562.969z" data-original="#176bef"/><path fill="#ff3e30" d="M27832.265 13743.281c448.125 0 770.625 238.125 907.617 523.828l-2196.328 918.047c-94.688 -710.742 578.672 -1441.875 1288.711 -1441.875zm-42.89 -943.477c-1243.711 0 -2287.852 989.531 -2287.852 2449.57 0 1545 1163.906 2461.289 2407.265 2461.289 1037.813 0 1674.727 -567.773 2055 -1076.485l-848.086 -564.14c-219.961 341.485 -587.813 675.117 -1201.64 675.117 -689.414 0 -1006.523 -377.578 -1203.047 -743.203L30000 14637.187l-170.742 -399.961c-317.813 -783.164 -1059.023 -1437.305 -2039.765 -1437.305z" data-original="#ff3e30"/><path fill="#179c52" d="M23933.555 17565h1080.352V10335.352h-1080.352z" data-original="#179c52"/></svg>