<svg xmlns="http://www.w3.org/2000/svg" width="175" height="60.484" viewBox="0 0 1750 604.844" preserveAspectRatio="xMidYMid meet"><path d="M1071.766 604.297c-0.328 -0.328 -9.734 -1.094 -20.781 -1.641 -11.047 -0.656 -22.859 -1.531 -26.141 -2.078s-9.953 -1.531 -14.766 -2.188 -10.719 -1.641 -13.125 -2.188 -7.328 -1.641 -10.938 -2.297c-9.516 -1.969 -33.469 -7.547 -36.641 -8.641 -1.531 -0.547 -5.688 -1.859 -9.297 -2.844 -15.203 -4.375 -44.406 -14.547 -45.828 -15.969 -0.656 -0.547 -1.75 -0.984 -2.625 -0.984 -0.766 0 -4.047 -1.203 -7.109 -2.625l-13.891 -6.125c-29.531 -12.906 -67.484 -34.891 -100.406 -58.188 -30.078 -21.219 -77.875 -61.578 -117.25 -98.766 -38.172 -36.203 -69.125 -64.094 -91.328 -82.469l-18.266 -15.203c-1.75 -1.422 -2.516 -1.094 -7.875 3.828 -11.594 10.609 3.609 9.625 -146.125 9.625 -125.125 0 -132.016 -0.109 -135.734 -1.969 -5.688 -2.844 -12.688 -9.078 -15.969 -14.219 -6.016 -9.516 -5.797 -4.375 -5.797 -139.453 0 -137.156 -0.219 -132.344 6.453 -141.422 5.578 -7.547 11.813 -12.031 20.672 -14.766 7.656 -2.297 253.094 -2.297 260.75 0 8.859 2.734 15.094 7.219 20.672 14.766 6.563 8.969 6.453 6.016 6.453 124.578v108.172l4.703 2.078c23.625 10.5 65.078 36.75 97.453 61.578 11.594 8.859 66.172 54.031 78.859 65.188 33.25 29.203 82.906 68.688 108.609 86.188 12.797 8.859 44.625 28.984 52.172 33.031l9.844 5.469c6.563 3.609 28.219 14.438 36.641 18.375 10.391 4.813 18.594 8.422 19.25 8.422 0.328 0 3.172 1.203 6.234 2.625 3.172 1.422 6.891 2.844 8.422 3.281s3.719 1.203 4.922 1.75 6.125 2.297 10.938 3.828l10.938 3.828c1.203 0.547 5.141 1.75 8.75 2.734s7.766 2.297 9.297 2.734c1.531 0.547 10.828 2.953 20.781 5.359 25.266 6.125 43.422 9.406 78.75 14.219 41.453 5.688 129.391 5.141 184.297 -0.984 16.953 -1.859 36.203 -4.375 43.203 -5.469 3.938 -0.656 11.813 -1.859 17.5 -2.625 9.297 -1.422 21 -3.5 35 -6.125 2.734 -0.547 8.859 -1.641 13.672 -2.516 7.766 -1.531 27.234 -5.578 39.375 -8.422l12.031 -2.734 12.031 -2.844c6.344 -1.641 9.516 -1.75 10.063 -0.219 0.328 0.766 -0.109 1.641 -0.984 1.859 -2.953 0.984 -29.969 9.188 -32.047 9.734 -1.203 0.328 -4.922 1.422 -8.203 2.406l-19.141 5.469 -9.844 2.734 -31.172 8.313 -10.391 2.516c-4.922 1.313 -25.922 6.125 -36.641 8.422l-12.031 2.625c-2.734 0.656 -9.078 1.859 -14.219 2.844l-14.766 2.734c-2.953 0.656 -9.844 1.859 -15.313 2.734l-15.859 2.625c-5.469 0.984 -17.828 2.625 -40.469 5.578 -4.484 0.656 -16.844 1.641 -27.344 2.188 -21.875 1.313 -119.438 2.516 -120.422 1.531zM496.891 270.266c-13.016 -8.313 -45.938 -25.266 -49 -25.266 -0.328 0 -2.625 -0.984 -5.25 -2.078 -22.422 -10.063 -55.016 -18.047 -88.813 -21.766 -4.813 -0.547 -6.563 -1.203 -6.563 -2.406 0 -3.719 57.969 -3.828 85.859 -0.109 23.734 3.172 38.828 6.344 59.719 12.25 6.125 1.75 11.484 3.172 11.813 3.172s0.656 -42.766 0.656 -95.156V43.75H273.438v230.781h230.234l-6.781 -4.266z" fill="#ea7624"/><path d="M1135.094 464.188c-9.953 -1.969 -18.922 -6.781 -25.594 -13.781 -11.484 -12.031 -14.109 -18.594 -14.109 -35.328 0.109 -17.172 3.281 -25.266 14.328 -36.422 12.141 -12.141 27.781 -17.063 46.375 -14.547 11.594 1.531 19.688 5.578 27.891 13.781 8.203 8.094 12.031 15.969 13.563 27.453 2.516 17.938 -2.297 33.359 -13.891 45.063 -7.438 7.438 -15.422 11.594 -26.25 13.891 -9.297 1.859 -12.359 1.859 -22.313 -0.109zm24.391 -8.641c10.938 -3.719 18.375 -14.547 20.672 -29.969 2.297 -15.75 -3.172 -35.656 -12.469 -45.172 -6.344 -6.453 -10.609 -7.984 -22.641 -7.984 -9.734 0 -10.828 0.219 -15.75 3.281 -14.547 8.969 -20.453 29.203 -14.766 50.422 3.609 13.453 8.422 21.109 16.516 26.141 7.875 5.031 19.469 6.344 28.438 3.281zm525.547 8.531c-4.156 -0.875 -8.75 -2.406 -10.172 -3.281 -4.703 -3.172 -7.875 -21.328 -4.156 -24.391 2.188 -1.859 3.609 -0.656 6.453 5.797 4.484 10.172 11.375 14.984 21.109 14.984 5.906 0 11.156 -2.625 14.109 -7.109 2.516 -3.828 1.75 -14.328 -1.422 -18.703 -1.313 -1.75 -7.328 -6.672 -13.563 -10.828 -18.594 -12.469 -23.297 -18.703 -23.297 -31.172 0 -14.219 8.859 -23.297 24.719 -25.594 6.563 -0.984 22.75 1.203 25.156 3.391 2.734 2.406 3.938 17.391 1.641 19.688 -2.188 2.297 -4.922 1.094 -6.234 -2.625 -3.5 -9.734 -7.219 -12.359 -17.281 -12.359 -6.453 0 -7.219 0.219 -10.719 3.719 -3.172 3.172 -3.719 4.484 -3.719 9.078 0 8.422 4.156 13.125 19.469 22.203 4.375 2.516 10.281 7.219 13.234 10.5 4.375 4.813 5.578 7.109 7.109 13.234 1.531 6.563 1.641 8.094 0.219 13.234 -2.953 10.719 -10.281 17.719 -21.438 20.344 -8.531 2.078 -11.375 2.078 -21.219 -0.109zm-616.766 -0.328c-8.859 -1.531 -17.5 -9.953 -28.766 -27.891 -8.641 -13.891 -9.625 -14.766 -15.969 -14.766h-5.25v14.109c0 17.609 0.547 19.359 6.781 20.563 4.266 0.875 4.703 1.203 4.703 4.156v3.281l-18.922 0.219c-17.063 0.109 -18.922 0 -19.906 -1.75 -1.531 -2.844 0.875 -5.141 5.906 -5.906 2.406 -0.438 4.703 -1.313 5.25 -2.078 0.438 -0.766 0.875 -18.484 0.875 -39.266 0 -28.984 -0.328 -38.172 -1.313 -39.047 -0.766 -0.656 -3.172 -1.531 -5.25 -2.078 -2.625 -0.656 -3.938 -1.75 -4.156 -3.281 -0.656 -4.375 2.734 -4.922 27.453 -4.484l23.188 0.328 6.563 3.281c3.609 1.859 7.875 5.141 9.844 7.438 2.844 3.719 3.281 5.25 3.609 12.688 0.328 7 0 9.297 -1.859 12.906 -2.297 4.594 -11.594 13.453 -14 13.453 -2.297 0 -1.75 1.094 5.797 12.031l9.734 14.219c4.156 6.344 13.016 14.219 17.609 15.859 5.141 1.75 6.125 4.484 2.078 6.016 -3.281 1.203 -6.453 1.203 -14 0zm-29.969 -53.047c5.469 -2.516 8.422 -8.313 8.422 -16.188 0 -13.781 -8.641 -22.094 -21.984 -21.328l-5.906 0.328 -0.328 18.594c-0.109 10.172 0 19.25 0.328 20.016 0.766 2.188 14 1.203 19.469 -1.422zm599.813 53.047c-8.203 -1.422 -16.516 -8.75 -25.484 -22.313 -14.328 -21.656 -13.016 -20.344 -19.797 -20.344h-4.703v14.547c0 18.484 0.219 19.031 5.797 20.125 4.703 0.984 7 3.281 5.906 6.125 -0.984 2.516 -37.188 2.516 -39.156 0 -2.078 -2.406 0.109 -5.141 4.813 -5.906 7.656 -1.203 7.328 0.656 7.328 -40.797 0 -20.453 -0.438 -37.953 -0.875 -38.609 -0.438 -0.766 -2.844 -2.078 -5.141 -2.844 -4.922 -1.75 -6.234 -4.703 -3.172 -7 2.516 -1.859 43.094 -2.078 48.672 -0.219 14.328 4.594 20.672 12.141 20.672 24.609 0 8.859 -4.266 16.734 -11.813 21.438l-4.922 3.281c-2.078 1.313 15.969 27.672 24.828 36.094 3.172 3.063 7 5.469 9.297 6.016 4.922 1.203 5.797 4.266 1.75 5.797 -3.281 1.203 -6.453 1.203 -14 0zm-32.047 -52.5c5.141 -1.969 6.234 -2.953 8.203 -7.109 7.328 -15.531 -2.625 -31.172 -19.906 -31.172h-6.234v19.469c0 10.719 0.328 19.906 0.766 20.234 1.422 1.531 11.375 0.656 17.172 -1.422zm-715.422 50.75c-1.203 -3.172 0.328 -5.25 4.266 -6.234 3.5 -0.875 4.266 -1.531 5.25 -4.922 1.641 -6.125 1.422 -70.109 -0.328 -73.5 -0.984 -1.969 -2.844 -3.063 -6.234 -3.938 -3.719 -0.875 -5.031 -1.75 -5.25 -3.5 -0.656 -4.047 3.828 -4.813 28.219 -4.375 21.656 0.328 22.641 0.438 28.656 3.281 8.75 4.047 12.906 10.609 12.906 19.906 0 7.656 -2.078 11.813 -7.984 16.625l-3.828 2.953 5.25 2.625c10.609 5.25 15.641 16.406 13.234 29.422 -2.297 12.031 -11.703 19.797 -27.016 22.313 -9.625 1.531 -46.484 1.094 -47.141 -0.656zm48.344 -8.313c5.25 -1.969 7.984 -5.141 9.188 -10.828 1.422 -6.234 0 -15.094 -2.844 -18.922 -4.266 -5.578 -8.969 -7.656 -19.25 -8.094l-9.625 -0.547 0.328 17.609c0.328 15.203 0.547 17.828 2.406 19.688 2.953 3.391 12.141 3.828 19.797 1.094zm-4.047 -49.438c5.031 -2.625 7.109 -6.781 7.109 -14 -0.109 -4.484 -0.766 -7.109 -2.406 -9.516 -3.281 -4.484 -10.5 -7.766 -17.391 -7.766h-5.688v34.234l7.547 -0.656c4.156 -0.328 9.078 -1.422 10.828 -2.297zm304.609 57.641c-0.984 -2.625 1.203 -5.25 4.703 -5.578 6.125 -0.547 7.766 -1.313 8.969 -4.047 0.984 -1.969 1.313 -14.219 1.313 -41.016v-38.281h-7.547c-9.297 0 -18.156 1.969 -20.453 4.484 -0.984 1.094 -2.625 3.5 -3.609 5.578 -1.094 1.969 -2.844 3.719 -3.828 3.938 -2.625 0.547 -5.25 -1.969 -4.375 -4.047 0.328 -0.984 1.75 -6.125 3.063 -11.594 2.734 -10.719 4.813 -12.688 8.859 -8.203 1.969 2.078 3.063 2.188 38.063 2.188 31.938 0 36.313 -0.219 39.156 -1.859 5.141 -3.063 5.906 -1.203 4.266 11.375 -1.75 13.672 -1.75 13.672 -4.594 13.234 -1.641 -0.219 -2.734 -1.422 -3.391 -3.609 -2.734 -9.406 -7.547 -11.813 -22.422 -11.266l-8.422 0.328 -0.328 31.719c-0.328 31.938 0.219 45.828 1.969 48.672 0.547 0.875 3.281 1.75 6.234 2.078 4.922 0.656 5.25 0.875 5.25 3.938v3.281l-21.109 0.219c-18.375 0.219 -21.219 0 -21.766 -1.531zm91.656 -0.219c-1.422 -2.516 0.547 -5.578 3.609 -5.578 1.313 0 3.391 -0.656 4.594 -1.531 1.969 -1.531 2.078 -3.391 2.406 -35.875 0.219 -18.922 -0.109 -36.859 -0.547 -39.703 -0.875 -5.359 -0.875 -5.359 -6.344 -6.563 -3.5 -0.656 -5.578 -1.75 -5.797 -2.844 -0.656 -3.719 2.297 -4.375 21.219 -4.047l18.484 0.328v2.734c0 2.297 -0.766 2.953 -4.922 3.938 -6.125 1.422 -6.344 2.188 -6.453 21l-0.109 14.438h51.406v-15.422c0 -8.422 -0.438 -16.188 -1.094 -17.281 -0.547 -1.203 -2.844 -2.297 -5.469 -2.734 -4.813 -0.766 -6.563 -2.953 -4.375 -5.578 1.203 -1.422 4.484 -1.641 19.578 -1.422l18.156 0.328v2.734c0 2.297 -0.766 2.953 -4.813 3.938 -3.5 0.766 -5.141 1.859 -5.797 3.719 -1.531 4.156 -0.656 76.125 0.984 77.766 0.766 0.766 3.172 1.641 5.469 1.969 3.719 0.656 4.156 0.984 4.156 3.938v3.281l-18.266 0.219c-15.094 0.109 -18.484 -0.109 -19.578 -1.422 -1.969 -2.406 0 -5.031 4.594 -6.234 6.563 -1.641 6.563 -1.641 6.234 -20.891l-0.328 -17.609h-50.313v17.719c0 12.578 0.438 18.156 1.313 19.031 0.766 0.766 3.5 1.641 6.016 1.969 4.375 0.656 4.703 0.875 4.703 3.938v3.281l-18.922 0.219c-16.625 0.109 -18.922 -0.109 -19.797 -1.75zm128.625 0.109c-1.969 -2.406 0.656 -5.031 5.688 -5.797 2.516 -0.328 5.141 -1.203 5.906 -1.969 1.531 -1.531 2.516 -69.016 1.094 -76.125 -0.875 -4.047 -1.313 -4.375 -5.578 -5.25 -5.031 -0.984 -6.781 -3.063 -4.594 -5.688 1.203 -1.422 6.016 -1.641 33.797 -1.422l32.375 0.328 1.313 6.016c0.766 3.281 1.313 8.203 1.094 10.938 -0.219 4.594 -0.438 4.922 -3.281 4.922 -2.625 0 -3.391 -0.656 -4.594 -4.156 -0.766 -2.297 -2.297 -5.141 -3.281 -6.234 -2.625 -2.844 -9.953 -4.375 -21.219 -4.375h-9.953v35h11.375c12.469 0 12.688 -0.109 13.672 -6.453 0.766 -4.047 3.172 -6.344 6.016 -5.25 1.531 0.547 1.75 2.844 1.75 16.078s-0.219 15.531 -1.75 16.078c-2.734 0.984 -5.25 -1.094 -6.016 -4.922 -1.313 -6.234 -2.406 -6.781 -14.219 -6.781h-10.828v16.297c0 21.875 -0.547 21.328 17.828 21.766 16.625 0.438 18.922 -0.438 23.953 -9.188 3.719 -6.672 5.469 -7.984 7.984 -5.906 2.297 1.969 2.078 4.813 -1.422 14.766l-3.063 8.75h-36.422c-28.984 0 -36.641 -0.328 -37.625 -1.422zM57.969 312.703c-21.656 -4.375 -34.125 -8.313 -43.313 -13.563 -4.922 -2.953 -5.797 -4.594 -9.188 -17.5 -2.625 -9.625 -4.156 -22.313 -5.141 -40.031l-0.547 -11.594 3.5 -1.422c5.141 -2.078 8.859 0.109 10.719 6.563 3.391 11.266 10.719 25.375 17.5 34.125 8.969 11.375 18.484 18.266 32.484 23.406 8.203 2.953 9.734 3.172 24.609 3.172 14.984 -0.109 16.297 -0.219 24.063 -3.281 6.563 -2.625 9.625 -4.703 15.313 -10.391 12.359 -12.25 16.297 -25.156 14.219 -45.5 -2.406 -22.641 -12.578 -36.641 -39.922 -54.578 -45.938 -30.078 -50.313 -33.25 -60.375 -43.422 -11.922 -12.141 -19.578 -24.172 -23.844 -37.734 -2.734 -8.422 -3.063 -11.266 -3.063 -22.75 0 -14.875 1.531 -21.766 7.438 -33.906C33.25 21.984 58.734 4.484 84.766 1.531c17.609 -2.078 50.75 -0.766 62.891 2.516 3.281 0.875 9.188 2.188 13.016 2.844 6.563 1.203 7 1.531 8.313 5.359 1.203 3.719 3.609 15.859 6.016 31.609 0.547 3.938 1.094 10.5 1.094 14.547v7.328l-4.047 1.641c-2.734 1.203 -5.031 1.422 -7.219 0.766 -2.844 -0.766 -3.609 -1.859 -5.688 -8.75 -6.891 -21.547 -19.031 -34.781 -37.406 -40.359 -8.859 -2.734 -31.172 -2.734 -40.141 0 -20.781 6.344 -31.281 21.328 -31.281 44.734 0 11.813 1.969 18.484 8.422 28.328 7.656 11.703 17.828 20.234 39.813 33.469 11.156 6.672 32.375 20.563 39.266 25.594 19.469 14.438 33.906 34.016 39.703 53.922 2.734 9.516 3.281 36.313 0.875 44.297 -5.359 17.828 -11.266 28.438 -21.219 37.953 -14.438 13.781 -28 20.453 -51.078 24.938 -9.188 1.859 -39.813 2.078 -48.125 0.438zm654.063 -0.438c-19.25 -3.719 -21 -4.266 -27.891 -7.219 -1.203 -0.438 -4.156 -1.641 -6.453 -2.625 -7.328 -2.844 -21.984 -13.344 -28 -19.906 -10.938 -12.031 -19.359 -27.891 -23.078 -43.859 -4.484 -19.031 -4.484 -18.156 -5.359 -106.859l-1.969 -92.531c-2.516 -14.438 -7.328 -17.938 -25.922 -19.25 -5.359 -0.328 -10.5 -1.094 -11.156 -1.75 -2.188 -1.641 -1.75 -9.953 0.547 -12.141 1.859 -1.531 3.828 -1.641 20.016 -0.656 23.188 1.422 53.703 1.422 76.234 0 13.344 -0.875 18.266 -0.875 19.469 0.109 2.406 1.969 3.063 8.313 1.203 11.266 -1.531 2.188 -2.844 2.625 -11.813 3.281 -13.125 0.984 -19.141 3.719 -22.859 10.5l-2.734 4.922v84.766c0 66.609 0.328 86.078 1.422 90.781 0.875 3.281 2.406 10.172 3.609 15.203 3.938 16.625 11.047 30.625 20.672 41.016 7.219 7.766 19.359 15.531 28.109 18.156l10.172 2.953c4.375 1.313 10.938 1.75 24.063 1.859 16.734 0 18.703 -0.219 27.672 -2.953 29.531 -9.297 46.156 -28.438 55.781 -64.203 4.594 -17.063 4.594 -17.828 4.594 -91.328 0 -73.063 -0.109 -75.906 -4.594 -94.938 -2.734 -12.141 -7.875 -15.422 -26.578 -16.953 -8.422 -0.656 -9.406 -0.984 -10.828 -3.609 -1.641 -2.953 -1.203 -6.781 1.203 -10.063 1.422 -1.859 2.516 -1.859 17.281 -0.875 20.453 1.531 52.719 1.531 70.656 0.109 14 -1.203 14 -1.203 15.969 1.313 2.406 3.172 2.406 7.328 0 10.281 -1.531 1.969 -3.5 2.516 -10.719 2.953 -13.344 0.984 -21.875 5.578 -23.844 12.797 -3.719 13.781 -4.156 22.094 -5.031 94.063l-2.078 79.844c-2.625 17.719 -6.234 32.703 -9.844 41.016 -16.078 37.297 -41.453 56.875 -83.781 64.531 -10.828 1.969 -43.969 1.969 -54.141 0zm741.016 -2.734c-31.719 -6.672 -51.406 -26.141 -91.984 -90.781 -21.875 -34.672 -26.906 -41.016 -35.109 -43.859 -5.688 -1.969 -32.484 -2.078 -34.453 -0.109s-1.75 91.328 0.219 99.969c2.625 11.375 7.438 14.766 24.609 17.391 9.734 1.422 11.484 2.734 11.484 8.422 0 7.875 4.484 7.328 -59.281 7.328l-57.203 -0.109 -0.984 -3.938c-1.094 -4.375 -0.109 -9.516 1.859 -10.063 0.766 -0.219 6.672 -1.203 13.234 -2.188 12.141 -1.859 16.953 -3.938 19.359 -8.422 4.266 -7.984 4.266 -8.422 4.266 -124.906l-1.203 -117.578c-2.734 -11.703 -5.359 -13.781 -20.781 -16.078 -12.469 -1.859 -14.109 -2.844 -14.109 -8.969 0 -4.703 3.281 -7.984 7.984 -7.984 1.859 0 19.25 -0.766 38.5 -1.641 44.516 -2.078 65.844 -2.078 86.406 0 16.078 1.531 20.563 2.406 31.719 5.688 21.656 6.453 39.594 20.781 47.688 38.063 10.172 21.875 9.953 44.953 -0.656 66.719 -7.656 15.969 -21.219 29.094 -40.688 39.484 -6.563 3.5 -8.422 5.031 -8.203 6.563 0.328 2.188 8.75 16.625 15.531 26.688 2.297 3.281 8.859 13.344 14.766 22.313 20.234 31.063 38.172 53.922 53.813 68.469 13.016 12.141 22.641 17.5 34.453 19.25 6.016 0.766 7.766 2.406 7.219 6.563 -0.547 4.594 -5.25 5.797 -23.844 5.688 -10.609 0 -18.813 -0.656 -24.609 -1.969zm-107.734 -156.297c11.594 -2.734 18.156 -6.234 25.703 -13.781 11.703 -11.703 16.297 -25.266 16.406 -48.125 0 -22.859 -5.469 -37.297 -18.922 -50.531 -13.563 -13.125 -27.672 -17.828 -54.141 -17.828 -22.641 0 -23.297 0.328 -24.281 11.156 -0.438 4.375 -0.547 33.031 -0.328 63.547 0.328 47.906 0.547 55.672 1.969 56.547 0.875 0.547 11.484 1.094 23.516 1.094 17.172 -0.109 23.625 -0.547 30.078 -2.078zM894.578 306.578c-1.75 -1.969 -2.406 -8.641 -1.203 -10.938 0.984 -1.75 2.734 -2.297 9.297 -2.844 23.078 -1.969 27.891 -6.016 37.734 -31.938l5.688 -14.219 3.5 -8.203c0.656 -1.531 1.531 -3.719 1.969 -4.922l8.641 -21.875c0.547 -1.203 1.422 -3.391 2.078 -4.922 0.547 -1.531 8.75 -23.188 18.266 -48.125l32.594 -85.859c14 -36.859 17.5 -47.797 16.953 -52.828 -0.328 -2.516 0.438 -3.281 5.688 -5.797 3.281 -1.531 8.75 -5.359 12.031 -8.531 6.125 -5.797 9.953 -7 13.344 -4.266 1.859 1.641 2.297 2.734 8.531 22.75 2.516 8.094 5.031 15.75 5.578 16.953s3.172 8.859 5.906 16.953l21.656 63.438c0.328 0.875 3.391 9.734 6.672 19.688l26.141 76.563c0.984 2.625 9.734 28.438 11.484 33.906 0.875 2.734 2.406 6.891 3.5 9.297l2.625 6.672c1.75 5.578 7.656 14.875 11.703 18.375 3.609 3.063 6.016 3.938 14 5.469 5.359 0.984 11.266 1.75 13.125 1.75 3.828 0 5.578 2.406 5.578 7.875 0 7.109 3.391 6.781 -56.547 6.891 -60.594 0.109 -58.297 0.328 -58.297 -7.109 0 -5.688 2.297 -7.109 14.219 -8.641 12.141 -1.641 15.75 -3.063 16.188 -6.453 0.438 -2.734 -3.172 -17.719 -6.234 -25.922 -1.203 -2.953 -4.922 -14.328 -8.313 -25.156 -10.938 -34.234 -12.359 -38.172 -14.766 -40.688l-2.406 -2.516h-87.172l-2.734 2.516c-2.078 1.859 -4.922 9.188 -11.922 30.297 -16.734 50.531 -19.141 59.609 -17.281 63.328 1.531 2.625 6.563 4.156 17.609 5.141 4.813 0.438 8.969 1.422 10.172 2.406 2.188 1.969 2.406 7.766 0.328 10.609 -1.422 1.969 -3.609 2.078 -48.234 2.188 -34.125 0 -46.922 -0.328 -47.688 -1.313zm179.922 -138.469c1.75 -1.203 0.547 -5.359 -15.859 -54.688 -9.734 -29.313 -18.156 -53.266 -18.703 -53.266s-1.203 0.875 -1.531 1.969c-0.438 0.984 -1.313 3.391 -2.078 5.141 -1.531 3.938 -4.484 11.813 -9.297 25.156l-4.484 12.359 -1.969 4.922c-0.547 1.313 -1.75 4.922 -2.844 7.875 -0.984 3.063 -2.188 6.453 -2.734 7.656 -0.984 2.406 -5.688 15.641 -7.438 20.781l-4.484 12.469c-1.859 5.031 -3.063 9.625 -2.734 10.063 0.328 0.547 16.734 0.984 36.422 0.984 27.234 0 36.203 -0.328 37.734 -1.422zm429.188 137.813c-1.531 -2.844 -0.656 -10.828 1.313 -11.813 0.875 -0.438 6.781 -1.313 13.125 -2.078 16.297 -1.75 17.391 -2.078 21.219 -5.906 6.891 -7 6.672 -2.516 6.672 -131.359V37.734l-2.406 -5.031c-3.609 -7.875 -9.297 -10.828 -24.391 -12.469 -3.281 -0.438 -6.563 -1.203 -7.328 -1.859 -2.078 -1.641 -1.75 -8.641 0.547 -11.594l1.859 -2.406 18.594 1.094c16.844 1.094 172.484 0.984 179.813 -0.109 2.297 -0.328 2.844 0.109 3.609 3.391 1.422 6.234 2.844 17.938 4.703 38.719 1.859 21.547 1.859 21.766 -4.375 22.969 -5.797 1.094 -8.094 -1.203 -11.594 -11.375 -5.906 -17.609 -11.047 -24.5 -21.984 -29.859 -8.75 -4.156 -21.984 -5.25 -61.031 -4.922l-32.156 0.328 -1.422 2.734c-1.094 2.078 -1.422 15.203 -1.422 55.781 0 46.266 0.219 53.375 1.75 55.563 1.641 2.406 1.969 2.406 29.75 2.406 29.531 0 44.844 -1.531 49.766 -4.703 3.063 -1.969 5.141 -7.875 7.875 -22.641 0.984 -5.141 2.188 -9.734 2.734 -10.281 1.641 -1.641 10.391 -1.313 12.578 0.438 1.75 1.531 1.859 2.844 0.984 17.5 -1.203 20.344 -1.203 40.578 0 58.844 0.875 13.234 0.766 14.656 -0.984 16.625 -2.188 2.406 -7.984 2.953 -11.484 1.094 -1.313 -0.766 -2.625 -3.719 -3.938 -9.516 -6.234 -28 -5.578 -27.672 -53.922 -27.672h-32.922l-1.094 2.844c-1.422 3.719 -1.422 80.828 0 91.984 1.859 14.328 4.156 20.781 8.969 24.938 2.406 1.969 6.344 4.156 8.859 4.813 22.094 6.016 74.375 5.797 94.828 -0.438 4.703 -1.422 7.328 -3.172 12.141 -8.203 6.891 -7.109 14.328 -17.938 20.563 -29.859 4.047 -7.766 4.156 -7.875 8.75 -8.203 5.906 -0.438 7.766 1.094 7.766 6.453 0 9.297 -10.172 44.078 -17.172 58.406l-2.078 4.375h-112.984c-107.406 0 -112.984 -0.109 -114.078 -1.969z" fill="#030000"/></svg>