<?xml version="1.0" encoding="utf-8"?>
<!-- Generator: Adobe Illustrator 27.1.1, SVG Export Plug-In . SVG Version: 6.00 Build 0)  -->
<svg version="1.1" id="Layer_1" xmlns:svgjs="http://svgjs.com/svgjs"
	 xmlns="http://www.w3.org/2000/svg" xmlns:xlink="http://www.w3.org/1999/xlink" x="0px" y="0px" viewBox="0 0 60 60"
	 style="enable-background:new 0 0 60 60;" xml:space="preserve">
<style type="text/css">
	.st0{fill:#012C66;}
	.st1{fill:#FF9900;}
	.st2{fill:url(#SVGID_1_);}
	.st3{fill:url(#SVGID_00000070825908620418928360000007453838494949125822_);}
	.st4{fill:url(#SVGID_00000176734554346417358210000006372466700412840890_);}
</style>
<g>
	<path class="st0" d="M48.3,20.3H8.6c-1.4,0-2.6-1.2-2.6-2.6v-6.1C6,10.2,7.2,9,8.6,9h39.7c1.4,0,2.6,1.2,2.6,2.6v6.1
		C50.9,19.1,49.7,20.3,48.3,20.3z M8.6,10.9c-0.4,0-0.8,0.4-0.8,0.8v6.1c0,0.4,0.4,0.8,0.8,0.8h39.7c0.4,0,0.8-0.4,0.8-0.8v-6.1
		c0-0.4-0.4-0.8-0.8-0.8L8.6,10.9z"/>
	<path class="st0" d="M33.4,15.6H14.2c-0.5,0-0.9-0.4-0.9-0.9s0.4-0.9,0.9-0.9l0,0h19.2c0.5,0,0.9,0.4,0.9,0.9S33.9,15.6,33.4,15.6z
		 M38.4,15.6c-0.2,0-0.5-0.1-0.6-0.3l-0.1-0.1c0,0-0.1-0.1-0.1-0.2c0-0.1,0-0.1-0.1-0.2c0-0.1,0-0.1,0-0.2c0-0.1,0-0.1,0-0.2
		c0-0.1,0-0.1,0.1-0.2c0-0.1,0.1-0.1,0.1-0.2l0.1-0.1c0.2-0.2,0.5-0.3,0.8-0.2c0.1,0,0.1,0,0.2,0.1c0.1,0,0.1,0.1,0.2,0.1l0.1,0.1
		c0.1,0.1,0.1,0.2,0.2,0.3c0,0.1,0.1,0.2,0.1,0.3s0,0.1,0,0.2c0,0.1,0,0.1-0.1,0.2c-0.1,0.2-0.2,0.3-0.3,0.4c0,0-0.1,0.1-0.2,0.1
		c-0.1,0-0.1,0-0.2,0.1C38.5,15.6,38.4,15.6,38.4,15.6L38.4,15.6z M42.7,15.6c-0.1,0-0.1,0-0.2,0c-0.1,0-0.1,0-0.2-0.1
		c-0.1,0-0.2-0.1-0.3-0.2l-0.1-0.1c0,0-0.1-0.1-0.1-0.2c0-0.1,0-0.1-0.1-0.2s0-0.1,0-0.2c0-0.1,0-0.1,0-0.2c0-0.1,0-0.1,0.1-0.2
		c0-0.1,0.1-0.1,0.1-0.2l0.1-0.1c0.1-0.1,0.3-0.2,0.5-0.2c0.3-0.1,0.6,0,0.8,0.2c0.1,0.1,0.2,0.2,0.2,0.3s0.1,0.2,0.1,0.3
		s0,0.1,0,0.2c0,0.1,0,0.1-0.1,0.2c0,0.1-0.1,0.2-0.2,0.3C43.2,15.5,43,15.6,42.7,15.6z M27.2,34.2H8.6C7.2,34.2,6,33,6,31.6v-6.1
		c0-1.4,1.2-2.6,2.6-2.6h39.7c1.4,0,2.6,1.2,2.6,2.6c0,0.5-0.4,0.9-0.9,0.9s-0.9-0.4-0.9-0.9c0-0.4-0.4-0.8-0.8-0.8H8.6
		c-0.4,0-0.8,0.4-0.8,0.8v6.1c0,0.4,0.4,0.8,0.8,0.8h18.6c0.5,0,0.9,0.4,0.9,0.9C28.1,33.8,27.7,34.2,27.2,34.2L27.2,34.2z"/>
	<path class="st0" d="M33.4,29.4H14.2c-0.5,0-0.9-0.4-0.9-0.9s0.4-0.9,0.9-0.9h19.2c0.5,0,0.9,0.4,0.9,0.9
		C34.3,29,33.9,29.4,33.4,29.4z M27.2,48H8.6C7.2,48,6,46.9,6,45.4v-6.1c0-1.4,1.2-2.6,2.6-2.6h18.6c0.5,0,0.9,0.4,0.9,0.9
		s-0.4,0.9-0.9,0.9H8.6c-0.4,0-0.8,0.4-0.8,0.8v6.1c0,0.4,0.4,0.8,0.8,0.8h18.6c0.5,0,0.9,0.4,0.9,0.9C28.1,47.6,27.7,48,27.2,48
		L27.2,48z"/>
	<path class="st0" d="M27.2,43.3h-13c-0.5,0-0.9-0.4-0.9-0.9s0.4-0.9,0.9-0.9h13c0.5,0,0.9,0.4,0.9,0.9
		C28.1,42.9,27.7,43.3,27.2,43.3z"/>
	<path class="st1" d="M42.5,51C36.2,51,31,45.8,31,39.5S36.2,28,42.5,28S54,33.1,54,39.5S48.9,51,42.5,51z M42.5,29.8
		c-5.4,0-9.7,4.4-9.7,9.7s4.4,9.7,9.7,9.7s9.7-4.4,9.7-9.7S47.9,29.8,42.5,29.8z"/>
</g>
<linearGradient id="SVGID_1_" gradientUnits="userSpaceOnUse" x1="-1702.224" y1="1179.1202" x2="-1702.224" y2="1179.1858" gradientTransform="matrix(-12.6294 -39.1601 64.9728 -7.6116 -98070.4922 -57650.168)">
	<stop  offset="0" style="stop-color:#868789"/>
	<stop  offset="1" style="stop-color:#FFFFFF"/>
</linearGradient>
<path class="st2" d="M41.3,32.3c-1.1,0.5-2.2,1-3.1,1.8c0.2,0.1,0.3,0.2,0.5,0.2c0,0.1,0,0,0,0c0.8,0.2,1.7,0.4,2.6,0.5
	c0,0,0-0.1,0-0.1c-0.1,0-0.3-0.1-0.3-0.1c0.3-0.1,0.7-0.3,0.9-0.4c0.1,0.2,0.4,0.5,0.5,0.6c-0.2,0-0.6,0-0.8,0h0c0,0,0,0.1,0.1,0.1
	c0,0,0,0,0.1,0c0.3,0,1,0,1,0h0C42,34.1,41.6,33.2,41.3,32.3L41.3,32.3z M41.2,32.7c0.1,0.4,0.3,0.7,0.4,0.9c-0.6,0-1.3-0.1-2-0.3
	C40.2,33.1,40.7,32.9,41.2,32.7z M39.3,34.4c-0.1-0.1-0.2-0.2-0.5-0.2c0.1-0.2,0.3-0.4,0.5-0.5c0.2,0.2,0.4,0.5,0.7,0.7
	C39.7,34.3,39.5,34.4,39.3,34.4C39.3,34.4,39.3,34.4,39.3,34.4L39.3,34.4z M40.7,34.5c-0.5-0.2-0.9-0.7-1.1-1
	c0.7,0.2,1.6,0.4,2.2,0.4C41.5,34.2,41.1,34.4,40.7,34.5z"/>
<linearGradient id="SVGID_00000076580848656118720560000015806418525110228916_" gradientUnits="userSpaceOnUse" x1="-1680.8125" y1="1176.5839" x2="-1680.8125" y2="1176.6494" gradientTransform="matrix(-28.6906 -108.5777 115.0704 -27.0717 -183576.8906 -150602.0781)">
	<stop  offset="0" style="stop-color:#868789"/>
	<stop  offset="1" style="stop-color:#FFFFFF"/>
</linearGradient>
<path style="fill:url(#SVGID_00000076580848656118720560000015806418525110228916_);" d="M43.9,39.4C43.9,39.3,43.9,39.3,43.9,39.4
	c0,0-0.1,0-0.1,0c-0.7,0.2-1.3,0.4-1.9,0.6c-0.5,0.2-1.1,0.4-1.5,0.6c-0.7,0.3-1.3,0.7-1.9,1.1c0,0.5,0,1,0.3,1.4
	c-0.7,0.2-1.4,0.4-2.1,0.6c0-0.6,0.4-1,0.9-1.3c-3.7,2.7,1.8,4.4,5.1,4.5C43.8,44,44.2,41.9,43.9,39.4L43.9,39.4z M41.9,40.3
	c0.1,0.4-0.1,1.1-0.2,1.5c-0.2-0.1-0.7-0.4-1.1-1.1C41.1,40.6,41.6,40.4,41.9,40.3L41.9,40.3z M42.3,40.1c0.6,0.2,1.1,0.5,1.4,0.9
	c-0.6,0.3-1.2,0.7-1.8,1C42,41.3,42.2,40.6,42.3,40.1L42.3,40.1z M41.7,42.1c-0.1,0.6-0.7,1.5-1.2,2.1c-0.5-0.3-1-0.6-1.2-1.1
	C40,43,41,42.4,41.7,42.1L41.7,42.1z M39.1,42.9c0.3-0.6,1-1.4,1.4-2.1c0.3,0.6,0.7,0.9,1.1,1.1C40.9,42.3,39.8,42.8,39.1,42.9z
	 M38.8,41.5c0.5-0.2,0.9-0.4,1.4-0.6c-0.2,0.6-0.6,1.2-1.1,1.8C38.7,42.5,38.6,41.9,38.8,41.5z M37.4,45c-0.5-0.2-0.8-0.7-0.8-1.4
	c0.7-0.2,1.4-0.3,2.1-0.5C38.5,43.9,38,44.5,37.4,45z M39,43.3c0.3,0.4,0.6,0.7,1.2,1.1c-0.8,0.4-1.7,0.6-2.5,0.8
	C38.2,44.6,38.6,44,39,43.3z M37.8,45.3c0.9-0.2,1.8-0.5,2.6-0.8c-0.1,0.5-0.6,1.1-1,1.5C38.8,45.8,38.3,45.6,37.8,45.3L37.8,45.3z
	 M40.7,44.6c0.6,0.4,1.3,0.5,2,0.6c-0.9,0.4-2,0.7-3.1,0.9C40.1,45.6,40.4,45.1,40.7,44.6z M42.4,46.5c-0.8,0-1.6-0.1-2.3-0.3
	c1-0.2,1.9-0.5,2.8-0.9C42.8,45.7,42.6,46.1,42.4,46.5z M43.1,45c-0.7-0.1-1.7-0.2-2.2-0.6c0.9-0.4,1.8-0.8,2.7-1.1
	C43.5,43.9,43.3,44.4,43.1,45L43.1,45z M40.7,44.3c0.4-0.4,1.1-1.5,1.2-2.1c0.6,0.4,1.3,0.8,1.7,0.8C42.8,43.3,41.5,44,40.7,44.3z
	 M43.7,42.7c-0.6-0.1-1.2-0.3-1.7-0.7c0.6-0.3,1.2-0.6,1.8-0.9C43.8,41.7,43.8,42.1,43.7,42.7L43.7,42.7z M43.8,40.6
	c-0.2-0.3-0.6-0.5-1.1-0.7c0.3-0.1,0.7-0.2,1-0.2C43.8,40,43.8,40.3,43.8,40.6L43.8,40.6z"/>
<radialGradient id="SVGID_00000103949013723412400160000002987881623555777214_" cx="-1664.5785" cy="1180.9868" r="0.109" gradientTransform="matrix(105.9651 0 0 73.3861 176430.1406 -86630.3203)" gradientUnits="userSpaceOnUse">
	<stop  offset="0" style="stop-color:#E75A47"/>
	<stop  offset="1" style="stop-color:#9A2123"/>
</radialGradient>
<path style="fill:url(#SVGID_00000103949013723412400160000002987881623555777214_);" d="M49.1,37.9c-1.7-2.1-3.9-2.6-6.5-3h0
	c-0.3,0-0.6-0.1-0.9-0.1l0,0c0,0-0.1,0-0.1,0c-0.1,0-0.1,0-0.2,0c-0.6-0.1-1.3-0.2-2-0.4c0,0,0,0,0,0c-0.2,0-0.3-0.1-0.5-0.1
	c0,0,0,0-0.1,0c0,0,0,0,0,0c-0.3-0.1-0.4-0.1-0.5-0.2c0,0,0,0,0,0c0,0,0.2,0.1,0.4,0.3c2.5,1.8,2.6,4.2-0.2,6.9
	c-0.2,0.2-0.5,0.5-0.8,0.8c0,0,0,0,0,0c0.2-0.1,0.5-0.3,0.7-0.4c0,0,0,0,0,0c1.1-0.6,2.3-1.1,3.5-1.5c0.6-0.2,1.3-0.5,1.9-0.7
	c0,0,0.1,0,0.1,0c2.4-0.7,4.3-1.1,5.2-1.1C49.3,38.2,49.3,38.1,49.1,37.9L49.1,37.9z M46.7,36.3c-1,0.3-1.9,0.7-2.8,1.1
	c0.3-0.5,0.5-1.2,0.6-1.8C45.2,35.7,46,36,46.7,36.3z M43.7,37.3c-0.3-0.3-0.7-0.5-1.1-0.6c0.6-0.5,1.2-0.9,1.8-1.2
	C44.2,36.1,44,36.7,43.7,37.3L43.7,37.3z M40.6,36.5c0.4,0.1,0.8,0.2,1.2,0.3c-0.4,0.3-0.7,0.7-1.1,1C40.7,37.4,40.7,36.9,40.6,36.5
	z M42,36.9l-0.7,1.7c-0.2-0.2-0.4-0.4-0.7-0.4C41.1,37.8,41.6,37.3,42,36.9z M41.3,39c0.2,0.2,0.2,0.6,0.3,1c-0.6,0.2-1.3,0.5-2,0.9
	C40.1,40.3,40.8,39.5,41.3,39z M42.3,37c0.4,0.1,0.7,0.3,1,0.5c-0.6,0.4-1.2,0.8-1.8,1.3C41.7,38.2,42,37.6,42.3,37L42.3,37z
	 M44.1,35.4c-0.6,0.3-1.2,0.7-1.8,1.1c-0.1-0.5-0.1-1-0.2-1.4C42.8,35.1,43.4,35.2,44.1,35.4z M42.1,36.5c-0.4-0.1-0.9-0.3-1.3-0.4
	c0.3-0.5,0.7-0.7,1.2-1L42.1,36.5z M39.1,34.5c0.2,0,0.4,0,0.7,0.2c0.2,0.3,0.3,0.7,0.4,1C39.9,35.2,39.5,34.8,39.1,34.5z M40.5,36
	c-0.1-0.4-0.2-0.7-0.4-1.2c0.5,0,1.1,0.1,1.6,0.3C41.3,35.3,40.8,35.6,40.5,36L40.5,36z M40.5,38.6c0.2,0,0.3,0.1,0.5,0.3
	c-0.3,0.2-0.5,0.4-0.8,0.6C40.3,39.1,40.5,38.9,40.5,38.6z M40.1,39.6c0,0.1,0.1,0.3,0.1,0.4c-0.3,0.2-0.7,0.5-1,0.7
	C39.7,40.2,39.9,39.9,40.1,39.6z M41.8,39.9c0-0.4-0.1-0.7-0.3-1c0.7-0.4,1.3-0.8,2-1.2C42.9,38.4,42.3,39.2,41.8,39.9z M42.1,39.7
	c0.5-0.6,1.1-1.3,1.6-2c0.5,0.2,0.9,0.6,1.3,1C44,39.1,43.1,39.4,42.1,39.7z M44.1,37.5c0.9-0.4,1.9-0.8,2.9-1.1
	c-0.5,0.8-1.1,1.5-1.7,2.3C45,38.3,44.6,37.8,44.1,37.5z M45.5,38.7c0.6-0.7,1.1-1.4,1.6-2.2c0.7,0.4,1.3,0.9,1.8,1.5
	C47.8,38.1,46.6,38.4,45.5,38.7z"/>
</svg>
