<svg version="1.1" id="Layer_1" xmlns="http://www.w3.org/2000/svg" xmlns:xlink="http://www.w3.org/1999/xlink" x="0px" y="0px" viewBox="0 0 30 20.869" style="enable-background:new 0 0 122.88 85.48" xml:space="preserve" width="30" height="20.869"><style type="text/css">
	.st0{fill:#128807;}
	.st1{fill:#FF9933;}
	.st2{fill:#FFFFFF;}
	.st3{fill:#000088;}
  </style><g><path class="st1" d="M1.638 0h26.724c0.903 0.005 1.638 0.745 1.638 1.648v17.573c0 0.906 -0.742 1.648 -1.648 1.648H1.638C0.737 20.864 0 20.125 0 19.221V1.648C0 0.745 0.735 0.005 1.638 0z"/><path class="st2" points="0,28.49 122.88,28.49 122.88,56.99 0,56.99 0,28.49" d="M0 6.956L30 6.956L30 13.914L0 13.914L0 6.956Z"/><path class="st0" d="M0 13.914h30v5.308c0 0.906 -0.742 1.648 -1.648 1.648H1.638C0.737 20.864 0 20.125 0 19.221V13.914z"/><path class="st3" d="M17.783 10.435c0 -1.538 -1.245 -2.783 -2.783 -2.783s-2.783 1.245 -2.783 2.783c0 1.536 1.245 2.783 2.783 2.783s2.783 -1.245 2.783 -2.783z"/><path class="st2" d="M17.434 10.435c0 -1.345 -1.089 -2.434 -2.434 -2.434s-2.434 1.089 -2.434 2.434c0 1.345 1.089 2.434 2.434 2.434s2.434 -1.089 2.434 -2.434z"/><path class="st3" d="M15.486 10.435c0 -0.269 -0.217 -0.488 -0.486 -0.488s-0.486 0.217 -0.486 0.488c0 0.269 0.217 0.486 0.486 0.486s0.486 -0.217 0.486 -0.486z"/><path class="st3" d="M17.534 10.769a0.123 0.123 0 0 0 -0.105 -0.137c-0.066 -0.01 -0.127 0.039 -0.137 0.105s0.039 0.127 0.105 0.137c0.068 0.007 0.129 -0.039 0.137 -0.105z"/><path class="st3" points="61.44,52.71 61.78,46.73 61.44,43.88 61.1,46.73 61.44,52.71" d="M15 12.869L15.083 11.409L15 10.713L14.917 11.409L15 12.869Z"/><path d="M17.361 11.414a0.121 0.121 0 1 0 -0.225 -0.093 0.121 0.121 0 1 0 0.225 0.093z"/><path points="58.86,52.37 60.74,46.68 61.15,43.84 60.08,46.51 58.86,52.37" d="M14.37 12.786L14.829 11.396L14.929 10.703L14.668 11.355L14.37 12.786Z"/><path d="M17.029 11.992c0.042 -0.054 0.032 -0.129 -0.022 -0.171a0.121 0.121 0 0 0 -0.171 0.022c-0.042 0.054 -0.032 0.129 0.022 0.171 0.054 0.042 0.129 0.029 0.171 -0.022z"/><path points="56.45,51.38 59.74,46.37 60.87,43.73 59.15,46.02 56.45,51.38" d="M13.782 12.544L14.585 11.321L14.861 10.676L14.441 11.235L13.782 12.544Z"/><path d="M16.555 12.463c0.054 -0.042 0.063 -0.117 0.022 -0.171a0.121 0.121 0 0 0 -0.171 -0.022c-0.054 0.042 -0.063 0.117 -0.022 0.171 0.042 0.051 0.12 0.063 0.171 0.022z"/><path points="54.39,49.79 58.86,45.8 60.63,43.55 58.38,45.32 54.39,49.79" d="M13.279 12.156L14.37 11.182L14.802 10.632L14.253 11.064L13.279 12.156Z"/><path d="M15.979 12.798a0.122 0.122 0 0 0 0.066 -0.159 0.121 0.121 0 1 0 -0.066 0.159z"/><path points="52.8,47.73 58.16,45.03 60.45,43.31 57.81,44.44 52.8,47.73" d="M12.891 11.653L14.199 10.994L14.758 10.574L14.114 10.85L12.891 11.653Z"/><path d="M15.334 12.969a0.125 0.125 0 0 0 0.105 -0.137 0.125 0.125 0 0 0 -0.137 -0.105 0.125 0.125 0 0 0 -0.105 0.137c0.007 0.068 0.068 0.115 0.137 0.105z"/><path points="51.81,45.32 57.68,44.1 60.34,43.04 57.5,43.44 51.81,45.32" d="M12.649 11.064L14.082 10.767L14.731 10.508L14.038 10.605L12.649 11.064Z"/><path d="M14.666 12.969c0.066 0.01 0.127 -0.039 0.137 -0.105a0.123 0.123 0 0 0 -0.105 -0.137 0.122 0.122 0 1 0 -0.032 0.242z"/><path points="51.47,42.74 57.45,43.08 60.3,42.74 57.45,42.4 51.47,42.74" d="M12.566 10.435L14.026 10.518L14.722 10.435L14.026 10.352L12.566 10.435Z"/><path d="M14.021 12.798a0.121 0.121 0 1 0 0.093 -0.225 0.121 0.121 0 0 0 -0.159 0.066c-0.024 0.061 0.005 0.132 0.066 0.159z"/><path points="51.81,40.16 57.5,42.04 60.34,42.45 57.68,41.38 51.81,40.16" d="M12.649 9.805L14.038 10.264L14.731 10.364L14.082 10.103L12.649 9.805Z"/><path d="M13.442 12.463c0.054 0.042 0.129 0.032 0.171 -0.022 0.042 -0.054 0.032 -0.129 -0.022 -0.171a0.121 0.121 0 0 0 -0.171 0.022c-0.039 0.054 -0.029 0.129 0.022 0.171z"/><path points="52.8,37.75 57.81,41.04 60.45,42.17 58.16,40.45 52.8,37.75" d="M12.891 9.216L14.114 10.02L14.758 10.295L14.199 9.875L12.891 9.216Z"/><path d="M12.971 11.992c0.042 0.054 0.117 0.063 0.171 0.022 0.054 -0.042 0.063 -0.117 0.022 -0.171a0.121 0.121 0 0 0 -0.171 -0.022c-0.051 0.039 -0.063 0.117 -0.022 0.171z"/><path points="54.39,35.69 58.38,40.16 60.63,41.94 58.86,39.68 54.39,35.69" d="M13.279 8.713L14.253 9.805L14.802 10.239L14.37 9.688L13.279 8.713Z"/><path d="M12.637 11.414c0.027 0.061 0.098 0.093 0.159 0.066a0.122 0.122 0 0 0 0.066 -0.159 0.122 0.122 0 0 0 -0.159 -0.066c-0.061 0.024 -0.09 0.095 -0.066 0.159z"/><path points="56.45,34.1 59.15,39.46 60.87,41.75 59.74,39.12 56.45,34.1" d="M13.782 8.325L14.441 9.634L14.861 10.193L14.585 9.551L13.782 8.325Z"/><path d="M12.466 10.769c0.01 0.066 0.071 0.112 0.137 0.105a0.125 0.125 0 0 0 0.105 -0.137 0.125 0.125 0 0 0 -0.137 -0.105c-0.068 0.007 -0.115 0.068 -0.105 0.137z"/><path points="58.86,33.11 60.08,38.98 61.15,41.64 60.74,38.8 58.86,33.11" d="M14.37 8.083L14.668 9.517L14.929 10.166L14.829 9.473L14.37 8.083Z"/><path d="M12.466 10.1c-0.01 0.066 0.039 0.127 0.105 0.137 0.066 0.01 0.127 -0.039 0.137 -0.105a0.122 0.122 0 1 0 -0.242 -0.032z"/><path points="61.44,32.77 61.1,38.75 61.44,41.6 61.78,38.75 61.44,32.77" d="M15 8L14.917 9.46L15 10.156L15.083 9.46L15 8Z"/><path d="M12.639 9.456a0.121 0.121 0 1 0 0.225 0.093 0.121 0.121 0 1 0 -0.225 -0.093z"/><path points="64.02,33.11 62.14,38.8 61.73,41.64 62.8,38.98 64.02,33.11" d="M15.63 8.083L15.171 9.473L15.071 10.166L15.332 9.517L15.63 8.083Z"/><path d="M12.971 8.879c-0.042 0.054 -0.032 0.129 0.022 0.171 0.054 0.042 0.129 0.032 0.171 -0.022 0.042 -0.054 0.032 -0.129 -0.022 -0.171a0.121 0.121 0 0 0 -0.171 0.022z"/><path points="66.43,34.1 63.14,39.12 62.01,41.75 63.73,39.46 66.43,34.1" d="M16.218 8.325L15.415 9.551L15.139 10.193L15.559 9.634L16.218 8.325Z"/><path d="M13.445 8.406c-0.054 0.042 -0.063 0.117 -0.022 0.171 0.042 0.054 0.117 0.063 0.171 0.022 0.054 -0.042 0.063 -0.117 0.022 -0.171s-0.12 -0.061 -0.171 -0.022z"/><path points="68.49,35.69 64.02,39.68 62.25,41.94 64.5,40.16 68.49,35.69" d="M16.721 8.713L15.63 9.688L15.198 10.239L15.747 9.805L16.721 8.713Z"/><path d="M14.021 8.074c-0.061 0.027 -0.09 0.098 -0.066 0.159 0.027 0.061 0.098 0.093 0.159 0.066a0.122 0.122 0 0 0 0.066 -0.159 0.118 0.118 0 0 0 -0.159 -0.066z"/><path points="70.08,37.75 64.72,40.45 62.43,42.17 65.07,41.04 70.08,37.75" d="M17.109 9.216L15.801 9.875L15.242 10.295L15.886 10.02L17.109 9.216Z"/><path d="M14.666 7.9a0.125 0.125 0 0 0 -0.105 0.137c0.01 0.066 0.071 0.112 0.137 0.105 0.066 -0.01 0.115 -0.071 0.105 -0.137a0.12 0.12 0 0 0 -0.137 -0.105z"/><path points="71.07,40.16 65.2,41.38 62.54,42.45 65.38,42.04 71.07,40.16" d="M17.351 9.805L15.918 10.103L15.269 10.364L15.962 10.264L17.351 9.805Z"/><path d="M15.334 7.9a0.123 0.123 0 0 0 -0.137 0.105c-0.01 0.066 0.039 0.127 0.105 0.137 0.066 0.01 0.127 -0.039 0.137 -0.105a0.123 0.123 0 0 0 -0.105 -0.137z"/><path points="71.41,42.74 65.43,42.4 62.58,42.74 65.43,43.08 71.41,42.74" d="M17.434 10.435L15.974 10.352L15.278 10.435L15.974 10.518L17.434 10.435Z"/><path d="M15.979 8.074a0.121 0.121 0 1 0 -0.093 0.224 0.121 0.121 0 0 0 0.093 -0.224z"/><path points="71.07,45.32 65.38,43.44 62.54,43.04 65.2,44.1 71.07,45.32" d="M17.351 11.064L15.962 10.605L15.269 10.508L15.918 10.767L17.351 11.064Z"/><path d="M16.555 8.406a0.121 0.121 0 0 0 -0.171 0.022c-0.042 0.054 -0.032 0.129 0.022 0.171 0.054 0.042 0.129 0.032 0.171 -0.022 0.042 -0.054 0.032 -0.129 -0.022 -0.171z"/><path points="70.08,47.73 65.07,44.44 62.43,43.31 64.72,45.03 70.08,47.73" d="M17.109 11.653L15.886 10.85L15.242 10.574L15.801 10.994L17.109 11.653Z"/><path d="M17.029 8.879c-0.042 -0.054 -0.117 -0.063 -0.171 -0.022s-0.063 0.117 -0.022 0.171c0.042 0.054 0.117 0.063 0.171 0.022 0.051 -0.042 0.063 -0.12 0.022 -0.171z"/><path points="68.49,49.79 64.5,45.32 62.25,43.55 64.02,45.8 68.49,49.79" d="M16.721 12.156L15.747 11.064L15.198 10.632L15.63 11.182L16.721 12.156Z"/><path d="M17.363 9.456c-0.027 -0.061 -0.098 -0.093 -0.159 -0.066s-0.093 0.098 -0.066 0.159c0.027 0.061 0.098 0.09 0.159 0.066 0.061 -0.024 0.09 -0.095 0.066 -0.159z"/><path points="66.43,51.38 63.73,46.02 62.01,43.73 63.14,46.37 66.43,51.38" d="M16.218 12.544L15.559 11.235L15.139 10.676L15.415 11.321L16.218 12.544Z"/><path d="M17.534 10.1a0.125 0.125 0 0 0 -0.137 -0.105 0.125 0.125 0 0 0 -0.105 0.137c0.01 0.066 0.071 0.112 0.137 0.105 0.068 -0.007 0.115 -0.068 0.105 -0.137z"/><path points="64.02,52.37 62.8,46.51 61.73,43.84 62.14,46.68 64.02,52.37" d="M15.63 12.786L15.332 11.355L15.071 10.703L15.171 11.396L15.63 12.786Z"/></g></svg>