<?xml version="1.0" encoding="utf-8"?>
<!-- Generator: Adobe Illustrator 27.1.1, SVG Export Plug-In . SVG Version: 6.00 Build 0)  -->
<svg version="1.1" id="Layer_1" xmlns="http://www.w3.org/2000/svg" xmlns:xlink="http://www.w3.org/1999/xlink" x="0px" y="0px"
	 viewBox="0 0 60 60" style="enable-background:new 0 0 60 60;" xml:space="preserve">
<style type="text/css">
	.st0{fill:#FF9900;}
	.st1{fill:#012C66;}
	.st2{fill:#00BCD4;}
</style>
<g>
	<path class="st0" d="M40.6,48.2h-15c-0.5,0-0.9,0.4-0.9,0.9s0.4,0.9,0.9,0.9l0,0h15c0.5,0,0.9-0.4,0.9-0.9
		C41.5,48.6,41.1,48.2,40.6,48.2L40.6,48.2z M45.3,48.7c0-0.1-0.1-0.1-0.1-0.2l-0.1-0.1c-0.2-0.2-0.5-0.3-0.8-0.2
		c-0.1,0-0.2,0.1-0.3,0.1l-0.1,0.1l-0.1,0.1c-0.1,0.1-0.1,0.2-0.1,0.3s0,0.1,0,0.2c0,0.1,0,0.1,0,0.2c0,0.1,0.1,0.2,0.1,0.3l0.1,0.1
		l0.1,0.1c0.1,0.1,0.2,0.1,0.3,0.1c0.3,0.1,0.6,0,0.8-0.2l0.1-0.1c0.1-0.1,0.1-0.2,0.1-0.3s0-0.1,0-0.2
		C45.4,48.9,45.4,48.8,45.3,48.7L45.3,48.7z M48.7,48.7c0-0.1-0.1-0.1-0.1-0.2l-0.1-0.1l-0.1-0.1c-0.1-0.1-0.2-0.1-0.3-0.1
		s-0.2,0-0.4,0c-0.1,0-0.2,0.1-0.3,0.1l-0.1,0.1l-0.1,0.1c-0.1,0.1-0.1,0.2-0.1,0.3s0,0.1,0,0.2c0,0.1,0,0.2,0.1,0.3
		c0,0.1,0.1,0.1,0.1,0.2l0.1,0.1l0.1,0.1c0.1,0.1,0.2,0.1,0.3,0.1s0.1,0,0.2,0c0.1,0,0.1,0,0.2,0c0.1,0,0.2-0.1,0.3-0.1l0.1-0.1
		l0.1-0.1c0.1-0.1,0.1-0.2,0.1-0.3s0-0.1,0-0.2C48.8,48.9,48.8,48.9,48.7,48.7C48.7,48.8,48.7,48.8,48.7,48.7L48.7,48.7z"/>
	<path class="st0" d="M54.4,39.3c0-1.2-1-2.2-2.2-2.2H21.3c-1.2,0-2.2,1-2.2,2.2V44c0,0.5,0.2,1,0.5,1.4c-0.3,0.4-0.5,0.8-0.5,1.4
		v4.7c0,1.2,1,2.2,2.2,2.2h30.9c1.2,0,2.2-1,2.2-2.2v-4.7c0-0.5-0.2-1-0.5-1.4c0.3-0.4,0.5-0.8,0.5-1.4C54.4,44,54.4,39.3,54.4,39.3
		z M20.9,39.3c0-0.2,0.2-0.4,0.4-0.4h30.9c0.2,0,0.4,0.2,0.4,0.4V44c0,0.2-0.2,0.4-0.4,0.4l0,0H21.3c-0.2,0-0.4-0.2-0.4-0.4V39.3z
		 M52.6,51.4c0,0.2-0.2,0.4-0.4,0.4H21.3c-0.2,0-0.4-0.2-0.4-0.4v-4.7c0-0.2,0.2-0.4,0.4-0.4h30.9c0.2,0,0.4,0.2,0.4,0.4V51.4z"/>
	<path class="st0" d="M25.7,42.5h15c0.5,0,0.9-0.4,0.9-0.9s-0.4-0.9-0.9-0.9l0,0h-15c-0.5,0-0.9,0.4-0.9,0.9
		C24.8,42.1,25.2,42.5,25.7,42.5L25.7,42.5z M43.7,42c0,0.1,0.1,0.2,0.2,0.3l0.1,0.1c0,0,0.1,0.1,0.2,0.1c0.1,0,0.1,0,0.2,0.1
		c0.1,0,0.1,0,0.2,0c0.2,0,0.5-0.1,0.6-0.3c0.1-0.1,0.1-0.2,0.2-0.3c0-0.1,0-0.1,0.1-0.2c0-0.1,0-0.1,0-0.2c0-0.1,0-0.1,0-0.2
		c0-0.1-0.1-0.2-0.1-0.3S45.3,41,45.3,41c-0.2-0.2-0.5-0.3-0.8-0.2c-0.1,0-0.2,0.1-0.3,0.1L44.1,41L44,41.1
		c-0.1,0.1-0.1,0.2-0.1,0.3s0,0.1,0,0.2c0,0.1,0,0.1,0,0.2C43.6,41.9,43.6,41.9,43.7,42z M47,42c0.1,0.2,0.2,0.3,0.3,0.4
		c0.1,0.1,0.2,0.1,0.3,0.1s0.2,0,0.4,0c0.1,0,0.2-0.1,0.3-0.1l0.1-0.1c0.1-0.1,0.1-0.2,0.2-0.3c0-0.1,0-0.1,0.1-0.2
		c0-0.1,0-0.1,0-0.2c0-0.1,0-0.1,0-0.2c0-0.1-0.1-0.2-0.1-0.3S48.5,41,48.5,41l-0.1-0.1c-0.1-0.1-0.2-0.1-0.3-0.1s-0.2,0-0.4,0
		c-0.1,0-0.2,0.1-0.3,0.1L47.3,41c-0.1,0.1-0.1,0.2-0.2,0.3c0,0.1,0,0.1-0.1,0.2c0,0.1,0,0.1,0,0.2C47,41.8,47,41.8,47,42
		C47,42,47,41.9,47,42L47,42z"/>
</g>
<path class="st1" d="M24.9,12.7C24.8,12.7,24.8,12.8,24.9,12.7C24.8,12.8,24.8,12.8,24.9,12.7c-0.1,0.1-0.1,0.1-0.1,0.1l0,0l0,0l0,0
	l0,0l0,0l0,0c0,0,0,0,0,0.1l0,0c0,0.1,0,0.1,0,0.2l0,0c0,0,0,0,0,0.1l0,0l0,0l0,0l0,0l0,0l0,0l0,0l0,0l0,0l0,0c0,0,0,0,0.1,0.1l0,0
	l3.9,3.9c0.2,0.2,0.4,0.3,0.6,0.3s0.5-0.1,0.6-0.3c0.4-0.4,0.4-0.9,0-1.3l-2.3-2.3h15.8v17.9c0,0.5,0.4,0.9,0.9,0.9s0.9-0.4,0.9-0.9
	l0,0V13.3c0-0.5-0.4-0.9-0.9-0.9l0,0H27.7l2.3-2.3c0.4-0.3,0.4-0.9,0-1.3c-0.3-0.4-0.9-0.4-1.3,0l0,0L24.9,12.7L24.9,12.7L24.9,12.7
	L24.9,12.7L24.9,12.7z M12.2,41.1c-0.4-0.3-0.9-0.3-1.3,0c-0.3,0.3-0.3,0.9,0,1.3l2.3,2.3h-5V30.4c0-0.5-0.4-0.9-0.9-0.9
	s-0.9,0.4-0.9,0.9l0,0v15.2c0,0.5,0.4,0.9,0.9,0.9l0,0h6L11,48.8c-0.4,0.3-0.4,0.9,0,1.3c0.3,0.4,0.9,0.4,1.3,0l0,0l3.9-3.9
	c0.4-0.4,0.4-0.9,0-1.3L12.2,41.1z"/>
<path class="st2" d="M15.6,21.9v-5.1l-6.1,0.8v4.4H15.6z M16.5,21.9h7v-6.1l-7,0.9V21.9z M16.5,22.7V28l7,0.9v-6.1H16.5z M15.6,22.7
	H9.5v4.4l6.1,0.8V22.7z"/>
</svg>
