<?xml version="1.0" encoding="utf-8"?>
<!-- Generator: Adobe Illustrator 27.1.1, SVG Export Plug-In . SVG Version: 6.00 Build 0)  -->
<svg version="1.1" id="Layer_1" xmlns="http://www.w3.org/2000/svg" xmlns:xlink="http://www.w3.org/1999/xlink" x="0px" y="0px"
	 viewBox="0 0 60 60" style="enable-background:new 0 0 60 60;" xml:space="preserve">
<style type="text/css">
	.st0{fill:#012C66;}
	.st1{fill:#FF9900;}
</style>
<path class="st0" d="M31.7,40.3h-3.4c-0.5,0-0.9,0.4-0.9,0.9c0,0.5,0.4,0.9,0.9,0.9c0,0,0,0,0,0h3.4c0.5,0,0.9-0.4,0.9-0.9
	C32.6,40.7,32.2,40.3,31.7,40.3C31.7,40.3,31.7,40.3,31.7,40.3z"/>
<path class="st0" d="M48.4,11.6h-2.5c-0.5,0-0.9,0.4-0.9,0.9c0,0.5,0.4,0.9,0.9,0.9h2.5c1,0,1.9,0.8,1.9,1.9v21.3H9.7V15.2
	c0-1,0.8-1.9,1.9-1.9h2c0.5,0,0.9-0.4,0.9-0.9c0-0.5-0.4-0.9-0.9-0.9h-2c-2,0-3.7,1.6-3.7,3.7v27c0,2,1.6,3.7,3.7,3.7h12.2l-3,6.7
	h-3.2c-0.5,0-0.9,0.4-0.9,0.9c0,0.5,0.4,0.9,0.9,0.9c0,0,0,0,0,0h3.8h0h0h17.5h0h0h3.8c0.5,0,0.9-0.4,0.9-0.9c0-0.5-0.4-0.9-0.9-0.9
	c0,0,0,0,0,0h-3.2l-3-6.7h12.2c2,0,3.7-1.6,3.7-3.7v-27C52.1,13.2,50.4,11.6,48.4,11.6L48.4,11.6z M37.3,52.6H22.7l3-6.7h8.6
	L37.3,52.6z M48.4,44.1H11.6c-1,0-1.9-0.8-1.9-1.9v-3.9h40.6v3.9C50.3,43.3,49.5,44.1,48.4,44.1L48.4,44.1z"/>
<g>
	<path class="st1" d="M27.7,25h4.7c1.5,0,2.7-1.2,2.7-2.7v-3.6c0-1.1-0.6-2-1.6-2.4v-1.8c0-1.8-1.5-3.3-3.3-3.3s-3.3,1.5-3.3,3.3
		v1.7c-1,0.4-1.8,1.3-1.8,2.5v3.6C25,23.8,26.2,25,27.7,25L27.7,25z M33.2,22.3c0,0.5-0.4,0.9-0.9,0.9h-4.7c-0.5,0-0.9-0.4-0.9-0.9
		v-3.6c0-0.5,0.4-0.9,0.9-0.9h4.7c0.5,0,0.9,0.4,0.9,0.9V22.3z M28.6,14.6c0-0.8,0.7-1.5,1.5-1.5c0.8,0,1.5,0.7,1.5,1.5v1.5h-3V14.6
		z"/>
	<path class="st1" d="M29.8,32.1c0.1,0,0.2,0,0.3,0c3.7-0.7,6.5-2.3,8.4-5c3.8-5.3,3.5-13.6,3.2-17c0-0.4-0.3-0.7-0.6-0.8L30.3,5.6
		c-0.2-0.1-0.4-0.1-0.6,0L18.9,9.4c-0.3,0.1-0.6,0.4-0.6,0.8c-0.3,3.3-0.6,11.6,3.2,17C23.4,29.8,26.1,31.4,29.8,32.1z M20,10.9
		l10-3.4l10,3.4c0.7,9-1.8,13.6-2.9,15.2c-1.6,2.3-3.9,3.7-7.1,4.3c-3.1-0.6-5.5-2-7.1-4.3C21.8,24.5,19.3,19.9,20,10.9z"/>
</g>
</svg>
