<?xml version="1.0" encoding="utf-8"?>
<!-- Generator: Adobe Illustrator 27.1.1, SVG Export Plug-In . SVG Version: 6.00 Build 0)  -->
<svg version="1.1" id="Layer_1" xmlns="http://www.w3.org/2000/svg" xmlns:xlink="http://www.w3.org/1999/xlink" x="0px" y="0px"
	 viewBox="0 0 150 150" style="enable-background:new 0 0 150 150;" xml:space="preserve">
<style type="text/css">
	.st0{fill:#2CB742;}
	.st1{fill:#FFFFFF;}
</style>
<path class="st0" d="M25,111l8.6-25.8c-4.5-7.6-6.9-16.2-6.9-25.1C26.7,33,48.7,11,75.9,11S125,33,125,60.1s-22,49.1-49.1,49.1
	c-8,0-15.8-1.9-22.9-5.6L25,111z"/>
<path class="st1" d="M107.2,76.5c-2.3-4.3-10.6-9.2-10.6-9.2c-1.9-1.1-4.2-1.2-5.3,0.7c0,0-2.7,3.3-3.4,3.7c-3.2,2.1-6.1,2.1-9-0.9
	L72,64l-6.9-6.9c-3-3-3-5.9-0.9-9c0.5-0.7,3.7-3.4,3.7-3.4c1.9-1.1,1.8-3.4,0.7-5.3c0,0-4.9-8.4-9.2-10.6c-1.8-1-4.1-0.6-5.5,0.8
	l-3,3c-9.6,9.6-4.9,20.5,4.7,30.1l8.8,8.8l8.8,8.8c9.6,9.6,20.5,14.3,30.1,4.7l3-3C107.9,80.6,108.2,78.3,107.2,76.5L107.2,76.5z"/>
</svg>
