<?xml version="1.0" encoding="utf-8"?>
<!-- Generator: Adobe Illustrator 27.1.1, SVG Export Plug-In . SVG Version: 6.00 Build 0)  -->
<svg version="1.1" id="Layer_1" xmlns="http://www.w3.org/2000/svg" xmlns:xlink="http://www.w3.org/1999/xlink" x="0px" y="0px"
	 viewBox="0 0 60 60" style="enable-background:new 0 0 60 60;" xml:space="preserve">
<style type="text/css">
	.st0{fill:#012C66;}
	.st1{fill:#FF9900;}
	.st2{fill:#00BCD4;}
</style>
<path class="st0" d="M47,45.5H13c-1.3,0-2.3,1.1-2.3,2.3V53c0,1.3,1.1,2.3,2.3,2.3h34c1.3,0,2.3-1.1,2.3-2.3v-5.2
	C49.3,46.5,48.2,45.5,47,45.5z M47.5,53c0,0.3-0.2,0.5-0.5,0.5H13c-0.3,0-0.5-0.2-0.5-0.5v-5.2c0-0.3,0.2-0.5,0.5-0.5h34
	c0.3,0,0.5,0.2,0.5,0.5V53z"/>
<path class="st1" d="M34.2,49.5H17.8c-0.5,0-0.9,0.4-0.9,0.9s0.4,0.9,0.9,0.9h16.4c0.5,0,0.9-0.4,0.9-0.9S34.7,49.5,34.2,49.5
	L34.2,49.5z M39,49.6c0,0-0.1-0.1-0.2-0.1c-0.1,0-0.1,0-0.2-0.1c-0.1,0-0.2,0-0.4,0c-0.1,0-0.1,0-0.2,0.1c-0.1,0-0.1,0.1-0.2,0.1
	c-0.1,0-0.1,0.1-0.1,0.1c-0.2,0.2-0.3,0.4-0.3,0.6c0,0.2,0.1,0.5,0.3,0.6c0.2,0.2,0.4,0.3,0.6,0.3c0.1,0,0.1,0,0.2,0
	c0.1,0,0.1,0,0.2-0.1c0.1,0,0.1-0.1,0.2-0.1l0.1-0.1c0.2-0.2,0.3-0.4,0.3-0.6c0-0.2-0.1-0.5-0.3-0.6C39.1,49.7,39,49.7,39,49.6z
	 M43,50.1c0-0.1-0.1-0.1-0.1-0.2c-0.1-0.1-0.1-0.2-0.2-0.2c0,0-0.1-0.1-0.2-0.1c-0.1,0-0.1,0-0.2-0.1c-0.1,0-0.2,0-0.4,0
	c-0.1,0-0.2,0.1-0.3,0.1s-0.1,0.1-0.1,0.1l-0.1,0.1c0,0-0.1,0.1-0.1,0.2c0,0.1,0,0.1-0.1,0.2c0,0.1,0,0.2,0,0.4c0,0.1,0,0.1,0.1,0.2
	c0,0.1,0.1,0.1,0.1,0.2l0.1,0.1l0.1,0.1c0,0,0.1,0.1,0.2,0.1c0.1,0,0.1,0,0.2,0.1c0.1,0,0.1,0,0.2,0c0.1,0,0.1,0,0.2,0
	c0.1,0,0.1,0,0.2-0.1c0.1,0,0.1-0.1,0.2-0.1l0.1-0.1L43,51c0,0,0.1-0.1,0.1-0.2c0-0.1,0-0.1,0.1-0.2c0-0.1,0-0.1,0-0.2
	c0-0.1,0-0.1,0-0.2C43.1,50.2,43,50.1,43,50.1z"/>
<path class="st0" d="M47,33.1H13c-1.3,0-2.3,1.1-2.3,2.3v5.2c0,1.3,1.1,2.3,2.3,2.3h34c1.3,0,2.3-1.1,2.3-2.3v-5.2
	C49.3,34.2,48.2,33.1,47,33.1z M47.5,40.7c0,0.3-0.2,0.5-0.5,0.5H13c-0.3,0-0.5-0.2-0.5-0.5v-5.2c0-0.3,0.2-0.5,0.5-0.5h34
	c0.3,0,0.5,0.2,0.5,0.5V40.7z"/>
<path class="st1" d="M34.2,37.2H17.8c-0.5,0-0.9,0.4-0.9,0.9s0.4,0.9,0.9,0.9h16.4c0.5,0,0.9-0.4,0.9-0.9
	C35.1,37.6,34.7,37.2,34.2,37.2L34.2,37.2z M39.3,37.7c0-0.1,0-0.1-0.1-0.2c0-0.1-0.1-0.1-0.1-0.1c-0.1-0.1-0.2-0.1-0.3-0.2
	c-0.1,0-0.1,0-0.2-0.1c-0.1,0-0.2,0-0.4,0c-0.1,0-0.1,0-0.2,0.1c-0.1,0-0.2,0.1-0.3,0.2c-0.1,0.1-0.2,0.2-0.2,0.3s-0.1,0.2-0.1,0.3
	s0,0.1,0,0.2c0,0.1,0,0.1,0.1,0.2c0,0.1,0.1,0.2,0.2,0.3l0.1,0.1c0,0,0.1,0.1,0.2,0.1c0.1,0,0.1,0,0.2,0.1c0.1,0,0.1,0,0.2,0
	c0.1,0,0.1,0,0.2,0c0.1,0,0.1,0,0.2-0.1c0.1,0,0.1-0.1,0.2-0.1l0.1-0.1l0.1-0.1c0,0,0.1-0.1,0.1-0.2c0-0.1,0-0.1,0.1-0.2
	c0-0.1,0-0.1,0-0.2C39.4,37.9,39.4,37.9,39.3,37.7C39.3,37.8,39.3,37.8,39.3,37.7z M43,37.7c0-0.1,0-0.1-0.1-0.2
	c0-0.1-0.1-0.1-0.1-0.1l-0.1-0.1c0,0-0.1-0.1-0.2-0.1c-0.1,0-0.1,0-0.2-0.1c-0.1,0-0.2,0-0.4,0c-0.1,0-0.1,0-0.2,0.1
	c-0.1,0-0.1,0.1-0.2,0.1c-0.1,0-0.1,0.1-0.1,0.1l-0.1,0.1c0,0-0.1,0.1-0.1,0.2c0,0.1-0.1,0.2-0.1,0.3s0,0.1,0,0.2
	c0,0.1,0,0.1,0.1,0.2c0,0.1,0.1,0.2,0.2,0.3l0.1,0.1c0,0,0.1,0.1,0.2,0.1c0.1,0,0.1,0,0.2,0.1c0.1,0,0.1,0,0.2,0c0.1,0,0.1,0,0.2,0
	c0.1,0,0.1,0,0.2-0.1c0.1,0,0.1-0.1,0.2-0.1s0.1-0.1,0.1-0.1l0.1-0.1c0,0,0.1-0.1,0.1-0.2c0-0.1,0-0.1,0.1-0.2c0-0.1,0-0.1,0-0.2
	c0-0.1,0-0.1,0-0.2C43.1,37.8,43,37.8,43,37.7z"/>
<path class="st2" d="M28.3,20.9v-6.6l-7.9,1v5.6H28.3z M29.4,20.9h9V13l-9,1.1V20.9z M29.4,22v6.8l9,1.1V22H29.4z M28.3,22h-7.9v5.6
	l7.9,1V22z"/>
</svg>
