<?xml version="1.0" encoding="utf-8"?>
<!-- Generator: Adobe Illustrator 27.1.1, SVG Export Plug-In . SVG Version: 6.00 Build 0)  -->
<svg version="1.1" id="Layer_1" xmlns="http://www.w3.org/2000/svg" xmlns:xlink="http://www.w3.org/1999/xlink" x="0px" y="0px"
	 viewBox="0 0 60 60" style="enable-background:new 0 0 60 60;" xml:space="preserve">
<style type="text/css">
	.st0{fill:#012C66;}
	.st1{fill:#FF9900;}
</style>
<path class="st0" d="M14,48.6c-0.4,0-0.8-0.3-0.8-0.8v-7.8h-1.5c-3.2,0-5.8-2.6-5.8-5.8V17.2c0-3.2,2.6-5.8,5.8-5.8h25.2
	c3.2,0,5.8,2.6,5.8,5.8v2.5c0,0.4-0.4,0.8-0.8,0.8c-0.4,0-0.7-0.3-0.8-0.8v-2.5c0-2.3-1.9-4.2-4.2-4.2H11.7c-2.3,0-4.2,1.9-4.2,4.2
	v17.1c0,2.3,1.9,4.2,4.2,4.2H14c0.4,0,0.8,0.3,0.8,0.8l0,0v6.7l7.2-7.2c0.1-0.1,0.3-0.2,0.6-0.2H26c0.4,0,0.8,0.4,0.8,0.8
	c0,0.4-0.3,0.7-0.8,0.8h-3.1l-8.3,8.3C14.4,48.5,14.2,48.6,14,48.6L14,48.6z"/>
<path class="st0" d="M18.4,20.8H13c-0.4,0-0.8-0.4-0.8-0.8c0-0.4,0.3-0.7,0.8-0.8h5.4c0.4,0,0.8,0.4,0.8,0.8
	C19.1,20.4,18.8,20.8,18.4,20.8z M22.6,25.5H13c-0.4,0-0.8-0.4-0.8-0.8c0-0.4,0.3-0.7,0.8-0.8h9.7c0.4,0,0.8,0.4,0.8,0.8
	C23.4,25.2,23,25.5,22.6,25.5z M22.6,30.3H13c-0.4,0-0.8-0.4-0.8-0.8c0-0.4,0.3-0.7,0.8-0.8h9.7c0.4,0,0.8,0.4,0.8,0.8
	C23.4,29.9,23,30.3,22.6,30.3z"/>
<path class="st1" d="M39.5,39c-1.3,0-2.6-0.5-3.6-1.5c-0.3-0.3-0.3-0.8,0-1.1c0.3-0.3,0.8-0.3,1.1,0c1.4,1.4,3.7,1.4,5.1,0
	c0.3-0.3,0.8-0.3,1.1,0c0.3,0.3,0.3,0.8,0,1.1C42.1,38.5,40.8,39,39.5,39z M36.4,32.6c-0.4,0-0.8-0.3-0.8-0.8l0,0V31
	c0-0.4,0.4-0.8,0.8-0.8c0.4,0,0.7,0.3,0.8,0.8v0.8C37.2,32.2,36.8,32.6,36.4,32.6L36.4,32.6L36.4,32.6z M42.7,32.6
	c-0.4,0-0.8-0.3-0.8-0.8l0,0V31c0-0.4,0.4-0.8,0.8-0.8c0.4,0,0.7,0.3,0.8,0.8v0.8C43.4,32.2,43.1,32.6,42.7,32.6L42.7,32.6
	L42.7,32.6z"/>
<path class="st1" d="M39.5,48.4c-8,0-14.6-6.5-14.6-14.6s6.5-14.6,14.6-14.6s14.6,6.5,14.6,14.6c0,2.5-0.7,5-1.9,7.2l1.3,4.8
	c0.1,0.4-0.1,0.8-0.6,1c-0.1,0-0.3,0-0.4,0l-4.4-1.2C45.6,47.4,42.6,48.4,39.5,48.4z M39.5,20.8c-7.2,0-13,5.8-13,13s5.8,13,13,13
	c2.9,0,5.7-0.9,8-2.7c0.2-0.1,0.4-0.2,0.7-0.1l3.4,0.9l-1-3.8c-0.1-0.2,0-0.4,0.1-0.6c1.2-2,1.9-4.3,1.9-6.7
	C52.5,26.6,46.7,20.8,39.5,20.8L39.5,20.8z"/>
<path class="st1" d="M39.5,43.8c-5.5,0-9.9-4.5-9.9-9.9c0-5.5,4.5-9.9,9.9-9.9s9.9,4.5,9.9,9.9S44.9,43.8,39.5,43.8z M39.5,25.5
	c-4.6,0-8.4,3.8-8.4,8.4c0,4.6,3.8,8.4,8.4,8.4s8.4-3.8,8.4-8.4S44.1,25.5,39.5,25.5z"/>
</svg>
