<?xml version="1.0" encoding="utf-8"?>
<!-- Generator: Adobe Illustrator 27.1.1, SVG Export Plug-In . SVG Version: 6.00 Build 0)  -->
<svg version="1.1" id="Layer_1" xmlns="http://www.w3.org/2000/svg" xmlns:xlink="http://www.w3.org/1999/xlink" x="0px" y="0px"
	 viewBox="0 0 60 60" style="enable-background:new 0 0 60 60;" xml:space="preserve">
<style type="text/css">
	.st0{fill:#FF9900;}
	.st1{fill:#012C66;}
</style>
<g>
	<path class="st0" d="M40.6,48.2h-15c-0.5,0-0.9,0.4-0.9,0.9s0.4,0.9,0.9,0.9l0,0h15c0.5,0,0.9-0.4,0.9-0.9
		C41.5,48.6,41.1,48.2,40.6,48.2L40.6,48.2z M45.3,48.7c0-0.1-0.1-0.1-0.1-0.2l-0.1-0.1c-0.2-0.2-0.5-0.3-0.8-0.2
		c-0.1,0-0.2,0.1-0.3,0.1l-0.1,0.1l-0.1,0.1c-0.1,0.1-0.1,0.2-0.1,0.3s0,0.1,0,0.2c0,0.1,0,0.1,0,0.2c0,0.1,0.1,0.2,0.1,0.3l0.1,0.1
		l0.1,0.1c0.1,0.1,0.2,0.1,0.3,0.1c0.3,0.1,0.6,0,0.8-0.2l0.1-0.1c0.1-0.1,0.1-0.2,0.1-0.3s0-0.1,0-0.2
		C45.4,48.9,45.4,48.8,45.3,48.7L45.3,48.7z M48.7,48.7c0-0.1-0.1-0.1-0.1-0.2l-0.1-0.1l-0.1-0.1c-0.1-0.1-0.2-0.1-0.3-0.1
		s-0.2,0-0.4,0c-0.1,0-0.2,0.1-0.3,0.1l-0.1,0.1l-0.1,0.1c-0.1,0.1-0.1,0.2-0.1,0.3s0,0.1,0,0.2c0,0.1,0,0.2,0.1,0.3
		c0,0.1,0.1,0.1,0.1,0.2l0.1,0.1l0.1,0.1c0.1,0.1,0.2,0.1,0.3,0.1s0.1,0,0.2,0c0.1,0,0.1,0,0.2,0c0.1,0,0.2-0.1,0.3-0.1l0.1-0.1
		l0.1-0.1c0.1-0.1,0.1-0.2,0.1-0.3s0-0.1,0-0.2C48.8,48.9,48.8,48.9,48.7,48.7C48.7,48.8,48.7,48.8,48.7,48.7L48.7,48.7z"/>
	<path class="st0" d="M54.4,39.3c0-1.2-1-2.2-2.2-2.2H21.3c-1.2,0-2.2,1-2.2,2.2V44c0,0.5,0.2,1,0.5,1.4c-0.3,0.4-0.5,0.8-0.5,1.4
		v4.7c0,1.2,1,2.2,2.2,2.2h30.9c1.2,0,2.2-1,2.2-2.2v-4.7c0-0.5-0.2-1-0.5-1.4c0.3-0.4,0.5-0.8,0.5-1.4C54.4,44,54.4,39.3,54.4,39.3
		z M20.9,39.3c0-0.2,0.2-0.4,0.4-0.4h30.9c0.2,0,0.4,0.2,0.4,0.4V44c0,0.2-0.2,0.4-0.4,0.4l0,0H21.3c-0.2,0-0.4-0.2-0.4-0.4V39.3z
		 M52.6,51.4c0,0.2-0.2,0.4-0.4,0.4H21.3c-0.2,0-0.4-0.2-0.4-0.4v-4.7c0-0.2,0.2-0.4,0.4-0.4h30.9c0.2,0,0.4,0.2,0.4,0.4V51.4z"/>
	<path class="st0" d="M25.7,42.5h15c0.5,0,0.9-0.4,0.9-0.9s-0.4-0.9-0.9-0.9l0,0h-15c-0.5,0-0.9,0.4-0.9,0.9
		C24.8,42.1,25.2,42.5,25.7,42.5L25.7,42.5z M43.7,42c0,0.1,0.1,0.2,0.2,0.3l0.1,0.1c0,0,0.1,0.1,0.2,0.1c0.1,0,0.1,0,0.2,0.1
		c0.1,0,0.1,0,0.2,0c0.2,0,0.5-0.1,0.6-0.3c0.1-0.1,0.1-0.2,0.2-0.3c0-0.1,0-0.1,0.1-0.2c0-0.1,0-0.1,0-0.2c0-0.1,0-0.1,0-0.2
		c0-0.1-0.1-0.2-0.1-0.3S45.3,41,45.3,41c-0.2-0.2-0.5-0.3-0.8-0.2c-0.1,0-0.2,0.1-0.3,0.1L44.1,41L44,41.1
		c-0.1,0.1-0.1,0.2-0.1,0.3s0,0.1,0,0.2c0,0.1,0,0.1,0,0.2C43.6,41.9,43.6,41.9,43.7,42z M47,42c0.1,0.2,0.2,0.3,0.3,0.4
		c0.1,0.1,0.2,0.1,0.3,0.1s0.2,0,0.4,0c0.1,0,0.2-0.1,0.3-0.1l0.1-0.1c0.1-0.1,0.1-0.2,0.2-0.3c0-0.1,0-0.1,0.1-0.2
		c0-0.1,0-0.1,0-0.2c0-0.1,0-0.1,0-0.2c0-0.1-0.1-0.2-0.1-0.3S48.5,41,48.5,41l-0.1-0.1c-0.1-0.1-0.2-0.1-0.3-0.1s-0.2,0-0.4,0
		c-0.1,0-0.2,0.1-0.3,0.1L47.3,41c-0.1,0.1-0.1,0.2-0.2,0.3c0,0.1,0,0.1-0.1,0.2c0,0.1,0,0.1,0,0.2C47,41.8,47,41.8,47,42
		C47,42,47,41.9,47,42L47,42z"/>
</g>
<path class="st1" d="M24.9,12.7C24.8,12.7,24.8,12.8,24.9,12.7C24.8,12.8,24.8,12.8,24.9,12.7c-0.1,0.1-0.1,0.1-0.1,0.1l0,0l0,0l0,0
	l0,0l0,0l0,0c0,0,0,0,0,0.1l0,0c0,0.1,0,0.1,0,0.2l0,0c0,0,0,0,0,0.1l0,0l0,0l0,0l0,0l0,0l0,0l0,0l0,0l0,0l0,0c0,0,0,0,0.1,0.1l0,0
	l3.9,3.9c0.2,0.2,0.4,0.3,0.6,0.3s0.5-0.1,0.6-0.3c0.4-0.4,0.4-0.9,0-1.3l-2.3-2.3h15.8v17.9c0,0.5,0.4,0.9,0.9,0.9s0.9-0.4,0.9-0.9
	l0,0V13.3c0-0.5-0.4-0.9-0.9-0.9l0,0H27.7l2.3-2.3c0.4-0.3,0.4-0.9,0-1.3c-0.3-0.4-0.9-0.4-1.3,0l0,0L24.9,12.7L24.9,12.7L24.9,12.7
	L24.9,12.7L24.9,12.7z M12.2,41.1c-0.4-0.3-0.9-0.3-1.3,0c-0.3,0.3-0.3,0.9,0,1.3l2.3,2.3h-5V30.4c0-0.5-0.4-0.9-0.9-0.9
	s-0.9,0.4-0.9,0.9l0,0v15.2c0,0.5,0.4,0.9,0.9,0.9l0,0h6L11,48.8c-0.4,0.3-0.4,0.9,0,1.3c0.3,0.4,0.9,0.4,1.3,0l0,0l3.9-3.9
	c0.4-0.4,0.4-0.9,0-1.3L12.2,41.1z"/>
<g>
	<g>
		<path class="st0" d="M25.1,24.2c0-0.1-0.1-0.1-0.3-0.3c0,0,0,0-0.1-0.1c-0.1,0-0.1-0.1-0.1-0.1l-0.1-0.1c-0.1-0.1-0.1-0.1-0.1-0.3
			s-0.1-0.3-0.1-0.5c0-0.1,0-0.3-0.1-0.6c-0.3,0.3-0.3,0.5-0.3,0.6c0,0.3,0,0.5,0.1,0.8c0.1,0.3,0.3,0.5,0.5,0.5s0.5,0.1,0.5,0.3
			c0.1,0.1,0.1,0.1,0.3,0.3c0,0.1,0,0.1-0.1,0.3c-0.1,0.1-0.5,0.3-0.8,0.3c-0.5,0.1-0.8,0.3-1,0.5c-0.1,0.1-0.5,0.3-0.9,0.6
			c-0.3,0.1-0.6,0.3-0.9,0.3s-0.6-0.1-0.8-0.3c-0.1-0.3-0.3-0.6-0.1-1c0.1-0.8,0.1-1.5,0-2c-0.1-0.3-0.1-0.8,0-0.9
			c0-0.3,0.1-0.5,0.3-0.5s0.3,0,0.5,0.3c0,0,0,0.1,0.1,0.1c0,0.1,0.1,0.1,0.1,0.1s0,0.1,0.1,0.1l0.1,0.1c0.1,0,0.1,0,0.3,0
			s0.5,0,0.6-0.1c0.1-0.1,0.3-0.1,0.5-0.3c0.1-0.1,0.1-0.3,0.3-0.3c0.1-0.1,0.1-0.1,0.3-0.1l0.1-0.1c0-0.1,0.1-0.3,0.1-0.6
			c0-0.3,0-0.5,0-0.9c-0.1-0.6-0.3-1.2-0.6-2c-0.3-0.8-0.6-1.2-1-1.7c-0.6-0.8-1-1.4-1.4-2.2c-0.3-0.8-0.4-1.5-0.4-2.2
			c0-0.5,0-0.9-0.3-1.5c-0.3-0.5-0.6-0.9-0.9-1.2c-0.3-0.1-0.6-0.3-0.9-0.5c-0.3-0.1-0.8-0.1-1-0.1c-0.5,0-0.8,0-1,0.1
			c-0.6,0.3-0.9,0.6-1,1c-0.1,0.5-0.3,0.9-0.3,1.5c0,1.4,0.1,2.3,0.1,3.1c-0.1,0.3-0.5,1-1.2,2c-0.1,0.1-0.3,0.3-0.5,0.6
			c-0.1,0.1-0.1,0.5-0.3,0.6c0,0.1-0.1,0.5-0.3,0.8c-0.1,0.3-0.1,0.6-0.3,0.8c0,0.1-0.1,0.3-0.1,0.5c-0.1,0.1-0.1,0.3-0.3,0.5
			c0,0.1-0.1,0.3-0.1,0.5s0,0.3,0,0.3c0,0.1,0.1,0.1,0.1,0.1c0.3-0.1,0.6-0.1,1,0.5c0.3,0.3,0.9,1.2,1.7,2.4c0,0.1,0.1,0.3,0.1,0.3
			c0,0.1,0.1,0.3,0.1,0.5s0.1,0.5,0,0.6c0,0.1-0.1,0.3-0.3,0.5c-0.1,0.1-0.3,0.3-0.6,0.3c-0.1,0-0.3,0-0.6,0c-0.1,0-0.5-0.1-0.8-0.3
			c-0.3-0.1-0.6-0.1-0.8-0.1c-0.3,0-0.6-0.1-1-0.1c-0.5-0.1-0.8-0.1-0.9-0.1c-0.1,0-0.3-0.1-0.3-0.3s0-0.3,0.1-0.5
			c0.1-0.2,0-0.6,0-0.6v-0.1v-0.1c0,0,0-0.1-0.1-0.1c0-0.1,0-0.1-0.1-0.1c-0.1-0.3-0.1-0.5,0-0.6c-0.1-0.2,0.1-0.2,0.4-0.2
			s0.6,0,0.8-0.1c0.3-0.1,0.5-0.6,0.3-1c0,0.1,0,0.5-0.1,0.5c-0.1,0-0.1,0.3-0.5,0.3c-0.1,0-0.3,0.1-0.6,0.1c-0.3,0-0.5,0-0.6,0.1
			c0,0-0.1,0.1-0.1,0.3s0,0.3,0,0.3c0,0.1,0,0.3,0.1,0.5c0,0.1,0,0.3,0,0.5c0,0,0,0.3-0.1,0.6c-0.1,0.3-0.1,0.5,0,0.6l0.2,0.1
			c0.1,0,0.1,0.1,0.3,0.1c0.1,0,0.3,0,0.5,0.1c0.1,0,0.3,0,0.5,0.1c0.1,0,0.5,0,0.5,0.1c0.5,0.1,0.9,0.3,1.5,0.5
			c0.6,0.1,0.9,0.3,1,0.3c0.1,0,0.3,0,0.6-0.1c0.1-0.1,0.3-0.1,0.5-0.3c0.1-0.1,0.3-0.1,0.6-0.3c0.3-0.1,0.5-0.1,0.8-0.1
			c0.1,0,0.5,0,0.6,0c0.3,0,0.5,0,0.6,0c0.6,0,1,0,1.4,0c0.1,0,0.3,0,0.5,0.1c0.1,0,0.1,0.1,0.1,0.1s0.1,0.1,0.1,0.3
			c0.1,0.1,0.1,0.1,0.3,0.3c0.3,0.1,0.6,0.1,0.9,0.1c0.3,0,0.6-0.1,0.6-0.1c0.1-0.1,0.5-0.5,0.8-0.6c0.3-0.3,0.6-0.5,0.9-0.6
			c0,0,0.1,0,0.3-0.1c0.1,0,0.1-0.1,0.3-0.1s0.1-0.1,0.3-0.1c0.1,0,0.1-0.1,0.3-0.1c0.1,0,0.1-0.1,0.3-0.1s0.1-0.1,0.1-0.1v-0.1
			C25.1,24.3,25.1,24.2,25.1,24.2L25.1,24.2z M19.6,14.4C19.7,14.4,19.7,14.4,19.6,14.4C19.7,14.4,19.7,14.4,19.6,14.4
			C19.7,14.6,19.7,14.6,19.6,14.4C19.7,14.6,19.7,14.6,19.6,14.4c0.1,0.1,0.1,0.1,0.3,0.3H20h0.1c0,0,0,0,0,0.1V15l-0.1,0.2
			c-0.1,0-0.3-0.1-0.5-0.3C19.6,14.7,19.6,14.6,19.6,14.4L19.6,14.4z M18.3,10.6C18.6,10.5,18.6,10.5,18.3,10.6c0-0.1,0-0.1,0-0.3
			v-0.1c0,0,0,0,0.1,0c0,0,0.1,0,0.3,0.1c0,0,0,0,0.1,0c0.1,0,0,0,0.1,0l0,0c0,0,0,0-0.1,0h-0.1h-0.1c0,0-0.1,0-0.1,0.1
			C18.6,10.5,18.3,10.5,18.3,10.6L18.3,10.6C18.3,10.7,18.3,10.6,18.3,10.6L18.3,10.6L18.3,10.6z M13.6,18.1
			C13.6,18.1,13.6,17.9,13.6,18.1c0.1-0.1,0.1-0.1,0.1-0.3s0-0.1,0-0.1l0,0l0,0l0,0l0,0l0,0l0,0l0,0l0,0
			C13.8,18.1,13.8,18.1,13.6,18.1C13.6,18.2,13.6,18.2,13.6,18.1C13.5,18.2,13.5,18.1,13.6,18.1L13.6,18.1z M20.2,24.2
			c0,0.1,0,0.5-0.1,0.9c-0.1,0.4-0.1,0.6-0.1,0.8c-0.1,0-0.1,0-0.3-0.1c0-0.1,0-0.1,0-0.3c0.1-0.5,0.1-0.8,0.3-0.9
			c0-0.3,0-0.5-0.1-0.5c0,0-0.1,0-0.3,0.3c-0.3,0.5-0.9,0.8-1.8,0.9c-0.8,0.1-1.4,0-1.7-0.3h-0.1c0,0-0.1,0-0.1,0.1l0,0
			c0,0,0,0,0.1,0.1l0.1,0.1c0.3,0.5,0.3,0.8,0,0.9c0-0.3,0-0.6,0-0.8c0-0.1-0.3-0.3-0.4-0.6c-0.1-0.1-0.3-0.3-0.3-0.5
			c0.1,0,0.3-0.1,0.5-0.3C16,24,16,23.9,16,23.6s0-0.3-0.1-0.3c0,0-0.3-0.3-0.9-0.8c-0.6-0.5-0.9-0.8-1-0.9c0,0-0.1-0.1-0.3-0.1
			s-0.1-0.1-0.3-0.3c-0.3-0.8-0.3-1.4-0.1-1.7l0,0c0,0,0,0,0,0.1c0,0.1,0,0.3,0,0.6c0,0.5,0.1,0.8,0.3,0.9c0.1,0.1,0.3,0.1,0.3,0
			c0,0,0-0.3,0-0.6c0-0.3,0-0.6,0-0.8c0-0.3,0.1-0.9,0.5-1.4c0.3-0.6,0.5-0.9,0.6-0.9c-0.1-0.1-0.1-0.5-0.1-0.6
			c0-0.1,0.1-0.5,0.1-0.6c0.1-0.1,0.1-0.3,0.3-0.6c0.1-0.1,0.1-0.5,0.1-0.6V15c0,0,0.1,0,0.3,0.1c0.3,0.5,0.5,0.6,0.6,0.8
			s0.3,0.1,0.5,0c0.1-0.1,0.5-0.3,0.6-0.5c0.3-0.1,0.5-0.3,0.6-0.5c0,0,0,0,0.1,0h0.1c0,0,0,0,0.1,0c0,0,0,0,0.1,0l0,0l0,0l0,0
			c0,0,0-0.1-0.1-0.1h-0.1c0,0-0.1,0-0.3,0.1c-0.1,0-0.1,0.1-0.3,0.1c-0.1,0-0.1,0.1-0.3,0.1s-0.3,0.1-0.3,0.1c-0.1,0-0.3,0-0.3,0
			c-0.3,0-0.5,0-0.6-0.1c0-0.1,0-0.3,0-0.3s0,0,0.1,0c0.3,0,0.6,0,0.8,0c0.1,0,0.5-0.1,0.8-0.3c0,0,0.1-0.1,0.5-0.1
			c0.3-0.1,0.5-0.1,0.6-0.1s0.1,0,0.1-0.1v-0.1c0,0,0,0,0-0.1c0,0-0.1,0-0.1,0.1l-0.1,0.1c-0.1,0-0.1,0.1-0.3,0.1
			c-0.1,0-0.1,0-0.3,0.1c-0.1,0-0.1,0-0.3,0c-0.3,0.1-0.8,0.1-1,0.1c-0.1,0-0.3,0-0.3,0c-0.1,0-0.1-0.1-0.1-0.1l-0.1-0.1
			c0-0.1-0.1-0.1-0.3-0.1c0,0-0.1-0.1,0-0.1c0.1,0,0-0.1,0.1-0.3c0,0,0,0,0.1-0.1s0.1-0.1,0.3-0.3c0-0.1,0.1-0.1,0.3-0.3v-0.2
			c0-0.1,0-0.3-0.1-0.5c0-0.1-0.1-0.1-0.3-0.1c-0.1,0-0.3,0-0.3,0.1c0,0.1-0.1,0.1-0.1,0.3s0,0.3,0.1,0.3c0,0.1,0.1,0.1,0.1,0.1
			s0.1,0,0,0.1l-0.1,0.1c0,0-0.1,0-0.1-0.1S16,13,16,13c0-0.1,0-0.3,0-0.3c0-0.1,0-0.5,0.1-0.6c0.1-0.1,0.3-0.3,0.5-0.3
			c0.1,0,0.3,0.1,0.5,0.3c0.1,0.1,0.1,0.5,0.1,0.9c0,0,0,0,0.1,0c0.1,0,0.1,0,0.3,0s0.3,0,0.3,0.1c0,0,0,0,0-0.1
			c-0.1-0.9,0.1-1.2,0.9-1.4c0.1,0,0.1,0,0.3,0c0,0,0.1,0.1,0.3,0.1c-0.3,0.1-0.3,0.3-0.3,0.4c0,0.1,0.1,0.3,0.1,0.5v0.3
			c0,0.1,0,0.3-0.1,0.3c-0.1,0-0.3,0-0.3,0s0-0.1,0-0.3s0-0.3,0-0.6c-0.1-0.1-0.3-0.3-0.5-0.3c-0.1,0-0.3,0.1-0.3,0.3
			c0,0.1-0.1,0.3-0.1,0.5c0,0.1,0,0.3,0.1,0.3c0,0,0.1,0,0.3,0.1c0.1,0.1,0.3,0.1,0.5,0.1c0.3,0,0.5,0.1,0.5,0.3s0,0.3,0,0.5
			c0,0.1-0.1,0.5,0,0.6c0,0.1,0.1,0.3,0.1,0.5c0,0.1,0.1,0.3,0.3,0.3c0.1,0.1,0.1,0.3,0.3,0.6c0.1,0.3,0.1,0.6,0.3,1l0,0l0.1,0.1
			c0,0,0.1,0.1,0.1,0.3c0,0.1,0.1,0.3,0.1,0.5c0,0.2,0.1,0.5,0.1,0.8c0,0.3,0.1,0.6,0.1,1s0,0.8,0.1,0.8c0,0.1,0.1,0.1,0.5,0.1
			c0.3,0,0.5-0.1,0.5-0.5c0.1-0.8,0-1.7-0.6-2.8c-0.1-0.5-0.5-0.8-0.6-0.8c0.3,0.1,0.5,0.5,0.8,0.8c0.3,0.3,0.5,0.8,0.5,1
			c0,0,0,0.1,0,0.3c0,0.1,0,0.1,0,0.3v0.1c0,0.1,0,0.1,0,0.1v0.1v0.1V20c0,0.1,0,0.1,0,0.3s0,0.1,0,0.3c0.3,0.1,0.6,0.3,0.6,0.5
			c-0.1-0.1-0.3-0.1-0.6-0.1c-0.3,0-0.5,0-0.8,0.1c-0.1,0.1-0.3,0.3-0.3,0.5c-0.3,0-0.5,0-0.5,0.1c-0.1,0.1-0.1,0.5-0.3,0.8
			c0,0.3,0,0.6,0,0.9C20.1,23.9,20.2,24.2,20.2,24.2L20.2,24.2z M15.9,12.6L15.9,12.6C15.9,12.6,15.9,12.4,15.9,12.6
			C16.1,12.4,16.1,12.6,15.9,12.6c0.1,0.1,0.1,0.1,0.1,0.3l0,0C15.9,13,15.9,12.9,15.9,12.6C16.1,12.7,15.9,12.6,15.9,12.6z
			 M18.6,12.7L18.6,12.7C18.6,12.9,18.3,12.9,18.6,12.7c-0.2-0.1-0.2-0.3-0.3-0.3l0,0l0,0c0,0,0,0,0.1,0c0.1,0,0.1,0,0.1,0.1
			C18.6,12.6,18.6,12.7,18.6,12.7L18.6,12.7z"/>
		<path class="st0" d="M16.3,13.4C16.3,13.4,16.3,13.5,16.3,13.4C16.3,13.5,16.3,13.4,16.3,13.4c0.1-0.1,0.1-0.1,0.3-0.1l0,0h-0.1
			C16.3,13.2,16.3,13.4,16.3,13.4L16.3,13.4z M17,13.2L17,13.2h0.3c0,0,0,0,0-0.1C17.3,13.2,17.2,13.2,17,13.2z"/>
	</g>
</g>
</svg>
