<?xml version="1.0" encoding="utf-8"?>
<!-- Generator: Adobe Illustrator 27.1.1, SVG Export Plug-In . SVG Version: 6.00 Build 0)  -->
<svg version="1.1" id="Layer_1" xmlns="http://www.w3.org/2000/svg" xmlns:xlink="http://www.w3.org/1999/xlink" x="0px" y="0px"
	 viewBox="0 0 60 60" style="enable-background:new 0 0 60 60;" xml:space="preserve">
<style type="text/css">
	.st0{fill:#012C66;}
	.st1{fill:#FF9900;}
</style>
<path class="st0" d="M8.1,19.9h39.4c1.4,0,2.6-1.2,2.6-2.6v-6c0-1.4-1.2-2.6-2.6-2.6H8.1c-1.4,0-2.6,1.2-2.6,2.6v6
	C5.5,18.7,6.7,19.9,8.1,19.9L8.1,19.9z M7.3,11.3c0-0.4,0.3-0.8,0.8-0.8h39.4c0.4,0,0.8,0.3,0.8,0.8v6c0,0.4-0.3,0.8-0.8,0.8H8.1
	c-0.4,0-0.8-0.3-0.8-0.8V11.3z"/>
<path class="st0" d="M13.6,15.2h19.1c0.5,0,0.9-0.4,0.9-0.9c0-0.5-0.4-0.9-0.9-0.9H13.6c-0.5,0-0.9,0.4-0.9,0.9
	C12.7,14.8,13.1,15.2,13.6,15.2z M36.8,14.6c0,0.1,0.1,0.1,0.1,0.2c0,0,0.1,0.1,0.1,0.1c0.2,0.2,0.4,0.3,0.6,0.3
	c0.3,0,0.6-0.2,0.7-0.4c0.1-0.1,0.1-0.2,0.1-0.3c0-0.1,0-0.1,0-0.2c0-0.1,0-0.1,0-0.2c0-0.1-0.1-0.2-0.1-0.3c0,0-0.1-0.1-0.1-0.1
	c-0.1-0.1-0.2-0.1-0.3-0.2c-0.1,0-0.1,0-0.2-0.1c-0.1,0-0.2,0-0.4,0c-0.2,0-0.3,0.1-0.5,0.2c-0.2,0.2-0.3,0.4-0.3,0.6
	c0,0.1,0,0.1,0,0.2C36.8,14.5,36.8,14.6,36.8,14.6L36.8,14.6z M41.1,14.6c0,0.1,0.1,0.1,0.1,0.2c0,0,0.1,0.1,0.1,0.1
	c0,0,0.1,0.1,0.1,0.1c0.1,0.1,0.2,0.1,0.3,0.1c0.1,0,0.2,0,0.4,0c0.1,0,0.1,0,0.2-0.1c0.1,0,0.2-0.1,0.3-0.2c0,0,0.1-0.1,0.1-0.1
	c0,0,0.1-0.1,0.1-0.2c0-0.1,0-0.1,0.1-0.2c0-0.1,0-0.2,0-0.4c0-0.1,0-0.1-0.1-0.2c0-0.1-0.1-0.1-0.1-0.2c0,0-0.1-0.1-0.1-0.1
	c-0.2-0.2-0.4-0.3-0.6-0.3c-0.2,0-0.5,0.1-0.6,0.3c0,0-0.1,0.1-0.1,0.1c-0.1,0.1-0.1,0.2-0.1,0.3c0,0.1,0,0.2,0,0.4
	C41.1,14.5,41.1,14.6,41.1,14.6z M26.5,31.5H8.1c-0.4,0-0.8-0.3-0.8-0.8v-6c0-0.4,0.3-0.8,0.8-0.8h39.4c0.4,0,0.8,0.3,0.8,0.8
	c0,0.5,0.4,0.9,0.9,0.9c0.5,0,0.9-0.4,0.9-0.9c0,0,0,0,0,0c0-1.4-1.2-2.6-2.6-2.6H8.1c-1.4,0-2.6,1.2-2.6,2.6v6
	c0,1.4,1.2,2.6,2.6,2.6h18.4c0.5,0,0.9-0.4,0.9-0.9C27.4,31.9,27,31.5,26.5,31.5C26.5,31.5,26.5,31.5,26.5,31.5z"/>
<path class="st0" d="M13.6,26.8c-0.5,0-0.9,0.4-0.9,0.9c0,0.5,0.4,0.9,0.9,0.9c0,0,0,0,0,0h19.1c0.5,0,0.9-0.4,0.9-0.9
	s-0.4-0.9-0.9-0.9c0,0,0,0,0,0H13.6z M26.5,35.6H8.1c-1.4,0-2.6,1.2-2.6,2.6v6c0,1.4,1.2,2.6,2.6,2.6h18.4c0.5,0,0.9-0.4,0.9-0.9
	c0-0.5-0.4-0.9-0.9-0.9c0,0,0,0,0,0H8.1c-0.4,0-0.8-0.3-0.8-0.8v-6c0-0.4,0.3-0.8,0.8-0.8h18.4c0.5,0,0.9-0.4,0.9-0.9
	C27.4,36,27,35.6,26.5,35.6C26.5,35.6,26.5,35.6,26.5,35.6L26.5,35.6z"/>
<path class="st0" d="M26.5,40.2H13.6c-0.5,0-0.9,0.4-0.9,0.9s0.4,0.9,0.9,0.9c0,0,0,0,0,0h12.9c0.5,0,0.9-0.4,0.9-0.9
	C27.4,40.6,27,40.2,26.5,40.2C26.5,40.2,26.5,40.2,26.5,40.2z"/>
<g>
	<path class="st1" d="M42.4,27.2c-6.6,0-12.1,5.4-12.1,12.1s5.4,12.1,12.1,12.1s12.1-5.4,12.1-12.1S49.1,27.2,42.4,27.2z M42.4,49.5
		c-5.7,0-10.3-4.6-10.3-10.3S36.8,29,42.4,29s10.3,4.6,10.3,10.3S48.1,49.5,42.4,49.5z"/>
	<path class="st1" d="M38.1,39.2c0-2.1,1.5-3.9,3.5-4.3L41,35.5c-0.4,0.3-0.4,0.9,0,1.3c0.3,0.4,0.9,0.4,1.3,0c0,0,0,0,0,0l2-2
		c0.4-0.4,0.4-0.9,0-1.3l-2-2c-0.4-0.3-0.9-0.3-1.3,0c-0.3,0.3-0.3,0.9,0,1.3l0.4,0.4c-2.9,0.5-5.1,3-5.1,6.1c0,1.7,0.7,3.3,1.9,4.5
		c0.2,0.2,0.4,0.2,0.6,0.2c0.5,0,0.9-0.4,0.9-0.9c0-0.2-0.1-0.5-0.3-0.7C38.6,41.5,38.1,40.4,38.1,39.2z M45.8,35.1
		c-0.4,0.3-0.4,0.9-0.1,1.3c0.7,0.8,1.1,1.8,1.1,2.9c0,1.8-1.1,3.4-2.7,4l0.2-0.2c0.4-0.3,0.4-0.9,0-1.3c-0.3-0.4-0.9-0.4-1.3,0
		c0,0,0,0,0,0l-2,2c-0.4,0.4-0.4,0.9,0,1.3l2,2c0.2,0.2,0.4,0.3,0.6,0.3s0.5-0.1,0.6-0.3c0.4-0.4,0.4-0.9,0-1.3l-0.6-0.6
		c2.8-0.6,4.8-3.1,4.8-6c0-1.5-0.5-2.9-1.5-4C46.7,34.8,46.2,34.7,45.8,35.1z"/>
</g>
</svg>
