<?xml version="1.0" encoding="utf-8"?>
<!-- Generator: Adobe Illustrator 27.1.1, SVG Export Plug-In . SVG Version: 6.00 Build 0)  -->
<svg version="1.1" id="Layer_1" xmlns="http://www.w3.org/2000/svg" xmlns:xlink="http://www.w3.org/1999/xlink" x="0px" y="0px"
	 viewBox="0 0 60 60" style="enable-background:new 0 0 60 60;" xml:space="preserve">
<style type="text/css">
	.st0{fill:#012C66;}
	.st1{fill:#FF9900;}
</style>
<path class="st0" d="M14.8,18.5h20.4c0.5,0,0.9-0.4,0.9-0.9c0-0.5-0.4-0.9-0.9-0.9H14.8c-0.5,0-0.9,0.4-0.9,0.9
	C13.9,18,14.3,18.4,14.8,18.5z M44.2,17.9c0,0.1,0.1,0.1,0.1,0.2s0.1,0.1,0.1,0.1c0.1,0.1,0.2,0.1,0.3,0.2c0.1,0,0.1,0,0.2,0.1
	c0.1,0,0.1,0,0.2,0c0.2,0,0.5-0.1,0.6-0.3c0,0,0.1-0.1,0.1-0.1c0,0,0.1-0.1,0.1-0.2c0-0.1,0-0.1,0.1-0.2c0-0.1,0-0.2,0-0.4
	c0-0.1,0-0.1-0.1-0.2c0-0.1-0.1-0.2-0.2-0.3c0,0-0.1-0.1-0.1-0.1c0,0-0.1-0.1-0.2-0.1c-0.1,0-0.1,0-0.2-0.1c-0.1,0-0.2,0-0.4,0
	c-0.1,0-0.1,0-0.2,0.1c-0.1,0-0.1,0.1-0.2,0.1c0,0-0.1,0.1-0.1,0.1c0,0-0.1,0.1-0.1,0.1s-0.1,0.1-0.1,0.2c0,0.1,0,0.1-0.1,0.2
	c0,0.1,0,0.1,0,0.2s0,0.1,0,0.2C44.2,17.8,44.2,17.8,44.2,17.9L44.2,17.9z M14.8,26.7c-0.5,0-0.9,0.4-0.9,0.9c0,0.5,0.4,0.9,0.9,0.9
	h20.4c0.5,0,0.9-0.4,0.9-0.9c0-0.5-0.4-0.9-0.9-0.9H14.8z M45.8,27.1c0,0-0.1-0.1-0.1-0.1c0,0-0.1-0.1-0.1-0.1
	c-0.1-0.1-0.2-0.1-0.3-0.1c-0.1,0-0.2,0-0.4,0c-0.1,0-0.1,0-0.2,0.1c-0.1,0-0.1,0.1-0.2,0.1c0,0-0.1,0.1-0.1,0.1
	c0,0-0.1,0.1-0.1,0.1s-0.1,0.1-0.1,0.2c0,0.1,0,0.1-0.1,0.2c0,0.1,0,0.2,0,0.4c0,0.1,0,0.1,0.1,0.2c0,0.1,0.1,0.1,0.1,0.2
	c0.1,0.1,0.1,0.2,0.2,0.2c0,0,0.1,0.1,0.2,0.1c0.1,0,0.1,0,0.2,0.1c0.1,0,0.1,0,0.2,0c0.1,0,0.1,0,0.2,0c0.1,0,0.2-0.1,0.3-0.1
	c0.1,0,0.1-0.1,0.1-0.1c0,0,0.1-0.1,0.1-0.1c0.1-0.1,0.1-0.2,0.1-0.3c0-0.1,0-0.2,0-0.4C45.9,27.3,45.8,27.2,45.8,27.1z"/>
<path class="st0" d="M25.5,41.7H8.9c-0.5,0-0.9-0.4-0.9-0.9v-6.4c0-0.5,0.4-0.9,0.9-0.9h16.5c0.5,0,0.9-0.4,0.9-0.9
	c0-0.5-0.4-0.9-0.9-0.9H8.9c-0.5,0-0.9-0.4-0.9-0.9v-6.4c0-0.5,0.4-0.9,0.9-0.9h42c0.5,0,0.9,0.4,0.9,0.9v3.8c0,0.5,0.4,0.9,0.9,0.9
	c0.5,0,0.9-0.4,0.9-0.9v-3.8c0-0.7-0.2-1.3-0.7-1.8c0.4-0.5,0.7-1.1,0.7-1.8v-6.4c0-1.5-1.2-2.7-2.7-2.7h-42c-1.5,0-2.7,1.2-2.7,2.7
	v6.4c0,0.7,0.2,1.3,0.7,1.8c-0.4,0.5-0.7,1.1-0.7,1.8v6.4c0,0.7,0.2,1.3,0.7,1.8c-0.4,0.5-0.7,1.1-0.7,1.8v6.4
	c0,1.5,1.2,2.7,2.7,2.7h16.6c0.5,0,0.9-0.4,0.9-0.9C26.4,42.1,26,41.7,25.5,41.7z M8,14.3c0-0.5,0.4-0.9,0.9-0.9h42
	c0.5,0,0.9,0.4,0.9,0.9v6.4c0,0.5-0.4,0.9-0.9,0.9h-42c-0.5,0-0.9-0.4-0.9-0.9L8,14.3z"/>
<path class="st0" d="M24.5,36.7h-9.7c-0.5,0-0.9,0.4-0.9,0.9c0,0.5,0.4,0.9,0.9,0.9h9.7c0.5,0,0.9-0.4,0.9-0.9
	C25.4,37.1,25,36.7,24.5,36.7z M39.3,17.9c0,0.1,0.1,0.1,0.1,0.2c0.1,0.1,0.1,0.2,0.2,0.2c0,0,0.1,0.1,0.2,0.1c0.1,0,0.1,0,0.2,0.1
	c0.1,0,0.2,0,0.4,0c0.1,0,0.1,0,0.2-0.1c0.1,0,0.1-0.1,0.2-0.1c0,0,0.1-0.1,0.1-0.1c0,0,0.1-0.1,0.1-0.1c0,0,0.1-0.1,0.1-0.2
	c0-0.1,0-0.1,0.1-0.2c0-0.1,0-0.1,0-0.2s0-0.1,0-0.2c0-0.1,0-0.1-0.1-0.2c0-0.1-0.1-0.1-0.1-0.2c-0.1-0.1-0.1-0.2-0.2-0.2
	c0,0-0.1-0.1-0.2-0.1c-0.1,0-0.1,0-0.2-0.1c-0.1,0-0.2,0-0.4,0c-0.1,0-0.1,0-0.2,0.1c-0.1,0-0.1,0.1-0.2,0.1c0,0-0.1,0.1-0.1,0.1
	c0,0-0.1,0.1-0.1,0.1c0,0-0.1,0.1-0.1,0.2c0,0.1,0,0.1-0.1,0.2c0,0.1,0,0.2,0,0.4C39.2,17.8,39.3,17.8,39.3,17.9z M40.9,27.1
	c0,0-0.1-0.1-0.1-0.1c0,0-0.1-0.1-0.1-0.1c0,0-0.1-0.1-0.2-0.1s-0.1,0-0.2-0.1c-0.1,0-0.2,0-0.4,0c-0.1,0-0.1,0-0.2,0.1
	c-0.1,0-0.1,0.1-0.2,0.1c0,0-0.1,0.1-0.1,0.1c0,0-0.1,0.1-0.1,0.1s-0.1,0.1-0.1,0.2c0,0.1-0.1,0.2-0.1,0.3c0,0.1,0,0.2,0.1,0.3
	c0,0.1,0.1,0.1,0.1,0.2c0.1,0.1,0.2,0.2,0.2,0.2c0,0,0.1,0.1,0.2,0.1c0.1,0,0.1,0,0.2,0.1c0.1,0,0.1,0,0.2,0c0.1,0,0.1,0,0.2,0
	c0.1,0,0.1,0,0.2-0.1c0.1,0,0.1-0.1,0.2-0.1c0,0,0.1-0.1,0.1-0.1c0,0,0.1-0.1,0.1-0.1c0.1-0.1,0.1-0.2,0.1-0.3c0-0.1,0-0.1,0-0.2
	s0-0.1,0-0.2C41,27.3,40.9,27.2,40.9,27.1z"/>
<g>
	<path class="st1" d="M50.3,31.7H34.2c-1.9,0-3.5,1.6-3.5,3.5v9.7c0,1.9,1.6,3.5,3.5,3.5h16.1c1.9,0,3.5-1.6,3.5-3.5v-9.7
		C53.8,33.2,52.2,31.7,50.3,31.7z M52,44.9c0,0.9-0.8,1.7-1.7,1.7H34.2c-0.9,0-1.7-0.8-1.7-1.7v-9.7c0-0.9,0.8-1.7,1.7-1.7h16.1
		c0.9,0,1.7,0.8,1.7,1.7V44.9z"/>
	<path class="st1" d="M46.7,37.2l-4.3,3l-5.1-3c-0.4-0.3-1-0.1-1.2,0.3c-0.3,0.4-0.1,1,0.3,1.2l0,0l5.6,3.3c0.3,0.2,0.7,0.2,1,0
		l4.8-3.3c0.4-0.3,0.5-0.8,0.2-1.3C47.6,37,47.1,36.9,46.7,37.2L46.7,37.2z"/>
</g>
</svg>
