<svg version="1.1" id="Layer_1" xmlns="http://www.w3.org/2000/svg" xmlns:xlink="http://www.w3.org/1999/xlink" x="0px" y="0px" viewBox="0 0 175 60" style="enable-background:new 0 0 175 60;" xml:space="preserve" width="175" height="60"><style type="text/css">.st0{fill:#FFFFFF;}
	.st1{fill-rule:evenodd;clip-rule:evenodd;fill:#E97725;}</style><g><path class="st0" d="M18.47 22.68c0 -4.17 -2.72 -6.71 -5.48 -8.42l-3.51 -2.19c-1.62 -1.01 -3.73 -2.85 -3.73 -5.39 0 -2.02 0.92 -4.87 5.22 -4.87 4.21 0 5.39 2.85 5.96 4.96 0.22 0.26 0.92 0.13 1.1 -0.13 0 -1.84 -0.39 -4.3 -0.79 -5.35 -0.35 0 -0.96 -0.09 -1.53 -0.26 -1.14 -0.31 -2.72 -0.57 -4.08 -0.57C5.93 0.46 2.69 3.84 2.69 8c0 3.6 2.54 6.1 4.74 7.54l4.17 2.72c3.2 2.06 3.6 4.21 3.6 6.14 0 2.63 -1.8 5.04 -5.48 5.04 -5.09 0 -6.88 -4.3 -7.54 -6.53 -0.18 -0.26 -0.83 -0.18 -1.05 0.13 0.09 2.06 0.66 5.17 1.18 6.14 0.83 0.48 3.16 1.62 6.84 1.62 5.68 -0.01 9.32 -3.3 9.32 -8.12"/><path class="st0" d="M82.84 17.19c0 6.66 -2.41 11.66 -8.77 11.66 -6.71 0 -8.9 -4.65 -8.9 -11.71V7.68c0 -4.56 0.09 -5.31 2.63 -5.53l1.05 -0.09c0.26 -0.18 0.18 -0.92 -0.09 -1.05 -2.15 0.09 -3.6 0.13 -5.39 0.13 -1.75 0 -3.25 -0.04 -5.44 -0.13 -0.26 0.13 -0.35 0.88 -0.09 1.05l1.1 0.09c2.54 0.22 2.63 0.96 2.63 5.53v10.35c0 5.22 1.1 8.42 3.42 10.35 2.15 1.84 5.17 2.41 8.2 2.41 3.24 0 6.49 -1.14 8.37 -3.2 2.46 -2.63 3.07 -6.66 3.07 -10.48v-4.95c0 -2.46 0 -7.5 0.61 -8.94 0.26 -0.57 1.1 -0.96 2.19 -1.05l1.05 -0.09c0.22 -0.26 0.26 -0.83 -0.09 -1.05 -1.58 0.09 -2.76 0.13 -4.6 0.13 -1.71 0 -3.33 -0.04 -5 -0.13 -0.26 0.18 -0.35 0.75 -0.09 1.05l1.1 0.09c1.1 0.09 1.89 0.39 2.19 0.92 0.75 1.32 0.83 6.36 0.83 9.08v5.02z"/><path class="st0" d="M101.03 8.38c0.48 -1.32 0.92 -2.37 1.05 -2.59h0.09c0.26 0.53 0.66 1.71 1.01 2.76l2.37 7.15c0.39 1.18 0.31 1.36 -0.96 1.36H99.2c-1.23 0 -1.27 -0.04 -0.92 -1.05l2.75 -7.63zm7.85 17.48c0.35 1.05 0.57 1.84 0.57 2.32 0 0.44 -0.61 0.7 -1.53 0.79l-1.27 0.13c-0.31 0.22 -0.26 0.93 0.09 1.1 1.27 -0.04 2.94 -0.12 5.04 -0.12 1.97 0 3.51 0.03 5.31 0.12 0.22 -0.18 0.31 -0.88 0 -1.1l-1.18 -0.13c-1.89 -0.22 -2.46 -0.88 -3.73 -4.64l-6.01 -17.62c-0.66 -1.93 -1.36 -3.95 -1.93 -5.87 -0.09 -0.31 -0.39 -0.39 -0.66 -0.39 -0.48 0.57 -1.23 1.36 -2.28 1.67 0.13 0.7 -0.13 1.53 -0.75 3.11l-4.47 11.84c-1.84 4.9 -3.07 7.75 -3.86 9.76 -0.61 1.58 -1.58 2.06 -2.63 2.15l-1.45 0.13c-0.26 0.22 -0.18 0.93 0.09 1.1 1.18 -0.04 2.76 -0.12 4.21 -0.12 2.06 0.04 3.42 0.03 4.56 0.12 0.39 -0.18 0.39 -0.88 0.09 -1.1l-1.45 -0.13c-1.05 -0.09 -1.27 -0.35 -1.27 -0.88 0 -0.48 0.31 -1.67 0.96 -3.63l1.54 -4.6c0.31 -0.91 0.57 -1.05 1.67 -1.05h6.62c1.32 0 1.49 0.13 1.8 1.09l1.92 5.95z"/><path class="st0" d="M126.25 3.78c0 -1.23 0.13 -1.4 2.85 -1.4 4.87 0 7.02 3.29 7.02 6.75 0 2.98 -1.01 4.52 -2.19 5.44 -1.27 0.96 -2.94 1.14 -4.52 1.14 -2.24 0 -2.89 -0.09 -3.02 -0.22 -0.13 -0.18 -0.13 -0.66 -0.13 -1.45l-0.01 -10.26zm-3.6 19.72c0 4.6 -0.09 5.17 -2.63 5.47l-1.1 0.13c-0.26 0.31 -0.18 0.97 0.09 1.1 2.06 -0.09 3.64 -0.12 5.48 -0.12 1.75 0 3.25 0.03 5.22 0.12 0.26 -0.13 0.35 -0.88 0.09 -1.1l-0.92 -0.13c-2.54 -0.35 -2.63 -0.88 -2.63 -5.47v-5.53c0 -0.91 0.09 -0.96 2.06 -0.96 1.75 0 2.46 0.44 3.11 1.4 1.36 1.97 3.16 5 4.3 6.61 3.11 4.44 5.35 5.54 9.08 5.54 0.83 0 1.53 -0.09 1.93 -0.22 0.22 -0.18 0.18 -0.53 -0.04 -0.61 -1.18 -0.09 -2.28 -0.57 -3.03 -1.23 -2.98 -2.5 -5.31 -6.01 -8.81 -11.66 -0.22 -0.35 -0.44 -0.79 -0.22 -1.05 2.19 -0.88 5.48 -3.16 5.48 -7.32 0 -3.07 -1.53 -5.04 -3.64 -6.14 -2.02 -1.1 -4.6 -1.32 -7.32 -1.32 -4.3 0 -7.32 0.13 -9.78 0.35 -0.35 0.18 -0.35 0.88 -0.04 1.1l1.4 0.18c1.8 0.22 1.93 0.97 1.93 5.13l-0.01 15.73z"/><path class="st0" d="M151.55 23.51c0 4.59 -0.22 5.25 -2.72 5.47l-1.45 0.13c-0.26 0.28 -0.18 0.98 0.09 1.11 2.59 -0.09 4.08 -0.13 5.96 -0.13h3.95c3.9 0 7.8 0.04 11.75 0.13 0.57 -1.18 1.67 -4.56 1.97 -6.1 -0.18 -0.39 -0.79 -0.53 -1.1 -0.31 -1.14 2.28 -2.32 3.81 -3.11 4.25 -0.96 0.48 -2.24 0.66 -5.61 0.66 -3.86 0 -4.78 -0.48 -5.31 -1.01 -0.7 -0.75 -0.83 -2.24 -0.83 -4.56v-6.18c0 -1.14 0.13 -1.18 1.45 -1.18h2.54c1.71 0 2.76 0.04 3.38 0.22 0.88 0.22 1.18 0.88 1.36 1.67l0.39 1.71c0.22 0.26 0.96 0.26 1.14 -0.04 0 -0.96 -0.18 -2.63 -0.18 -4.21 0 -1.67 0.18 -3.38 0.18 -4.43 -0.18 -0.31 -0.92 -0.31 -1.14 -0.04l-0.35 1.8c-0.22 1.1 -0.53 1.36 -1.05 1.53 -0.53 0.18 -1.89 0.26 -3.73 0.26h-2.54c-1.32 0 -1.45 0 -1.45 -1.23V4.26c0 -1.67 0 -1.75 1.32 -1.75h3.16c1.93 0 3.33 0.04 4.25 0.26 2.28 0.57 2.67 2.1 3.33 4.17 0.22 0.26 0.92 0.18 1.1 -0.09 -0.18 -1.93 -0.44 -5.09 -0.7 -5.83 -0.53 0.13 -3.11 0.13 -5.92 0.13h-8.24c-1.8 0 -3.29 -0.04 -5.17 -0.13 -0.26 0.13 -0.35 0.92 -0.09 1.1l0.7 0.09c2.59 0.31 2.68 0.96 2.68 5.53l-0.01 15.77z"/><path class="st0" d="M168.85 42.94c0 -1.32 -0.86 -2.12 -1.73 -2.66l-1.11 -0.69c-0.51 -0.32 -1.18 -0.9 -1.18 -1.71 0 -0.64 0.29 -1.54 1.65 -1.54 1.33 0 1.71 0.9 1.89 1.57 0.07 0.08 0.29 0.04 0.35 -0.04 0 -0.58 -0.12 -1.36 -0.25 -1.69 -0.11 0 -0.31 -0.03 -0.49 -0.08 -0.36 -0.1 -0.86 -0.18 -1.29 -0.18 -1.8 0 -2.83 1.07 -2.83 2.39 0 1.14 0.81 1.93 1.5 2.39l1.32 0.86c1.01 0.65 1.14 1.33 1.14 1.94 0 0.83 -0.57 1.6 -1.74 1.6 -1.61 0 -2.18 -1.36 -2.39 -2.07 -0.06 -0.08 -0.26 -0.06 -0.33 0.04 0.03 0.65 0.21 1.64 0.37 1.94 0.26 0.15 1 0.51 2.16 0.51 1.81 -0.02 2.96 -1.06 2.96 -2.58m-13.66 -5.98c0 -0.39 0.04 -0.44 0.9 -0.44 1.54 0 2.22 1.04 2.22 2.14 0 0.94 -0.32 1.43 -0.69 1.72 -0.4 0.31 -0.93 0.36 -1.43 0.36 -0.71 0 -0.92 -0.03 -0.96 -0.07 -0.04 -0.06 -0.04 -0.21 -0.04 -0.46v-3.25zm-1.14 6.24c0 1.45 -0.03 1.64 -0.83 1.73l-0.35 0.04c-0.08 0.1 -0.06 0.31 0.03 0.35a35.151 35.151 0 0 1 3.38 0c0.08 -0.04 0.11 -0.28 0.03 -0.35l-0.29 -0.04c-0.8 -0.11 -0.83 -0.28 -0.83 -1.73v-1.75c0 -0.29 0.03 -0.3 0.65 -0.3 0.56 0 0.78 0.14 0.99 0.44 0.43 0.62 1 1.58 1.36 2.09 0.99 1.41 1.69 1.75 2.87 1.75 0.26 0 0.49 -0.03 0.61 -0.07 0.07 -0.06 0.06 -0.17 -0.01 -0.19 -0.37 -0.03 -0.72 -0.18 -0.96 -0.39 -0.94 -0.79 -1.68 -1.9 -2.79 -3.69 -0.07 -0.11 -0.14 -0.25 -0.07 -0.33 0.69 -0.28 1.73 -1 1.73 -2.32 0 -0.97 -0.49 -1.59 -1.15 -1.94 -0.64 -0.35 -1.46 -0.42 -2.32 -0.42 -1.36 0 -2.32 0.04 -3.09 0.11 -0.11 0.06 -0.11 0.28 -0.01 0.35l0.44 0.05c0.57 0.07 0.61 0.31 0.61 1.62v4.99zm-9.66 0c0 1.45 -0.07 1.66 -0.86 1.73l-0.46 0.04c-0.08 0.09 -0.06 0.31 0.03 0.35 0.82 -0.03 1.29 -0.04 1.89 -0.04h1.25c1.23 0 2.47 0.01 3.72 0.04 0.18 -0.37 0.53 -1.44 0.62 -1.93 -0.06 -0.13 -0.25 -0.17 -0.35 -0.1 -0.36 0.72 -0.73 1.21 -0.98 1.35 -0.31 0.15 -0.71 0.21 -1.78 0.21 -1.22 0 -1.51 -0.15 -1.68 -0.32 -0.22 -0.24 -0.26 -0.71 -0.26 -1.44v-1.96c0 -0.36 0.04 -0.37 0.46 -0.37h0.8c0.54 0 0.87 0.01 1.07 0.07 0.28 0.07 0.37 0.28 0.43 0.53l0.12 0.54c0.07 0.08 0.31 0.08 0.36 -0.01 0 -0.31 -0.06 -0.83 -0.06 -1.33 0 -0.53 0.06 -1.07 0.06 -1.4 -0.06 -0.1 -0.29 -0.1 -0.36 -0.01l-0.11 0.57c-0.07 0.35 -0.17 0.43 -0.33 0.49 -0.17 0.06 -0.6 0.08 -1.18 0.08h-0.8c-0.42 0 -0.46 0 -0.46 -0.39v-2.78c0 -0.53 0 -0.55 0.42 -0.55h1c0.61 0 1.05 0.01 1.35 0.08 0.72 0.18 0.85 0.67 1.05 1.32 0.07 0.08 0.29 0.05 0.35 -0.03 -0.06 -0.61 -0.14 -1.61 -0.22 -1.85 -0.17 0.04 -0.98 0.04 -1.87 0.04H145c-0.57 0 -1.04 -0.01 -1.64 -0.04 -0.08 0.04 -0.11 0.29 -0.03 0.35l0.22 0.03c0.82 0.1 0.85 0.31 0.85 1.75l-0.01 4.98zm-6.95 -2.4c0.67 0 0.69 0.03 0.69 0.44v1.96c0 1.45 0 1.59 -0.85 1.73l-0.26 0.04c-0.08 0.08 -0.06 0.31 0.03 0.35a34.884 34.884 0 0 1 3.36 0c0.08 -0.04 0.11 -0.29 0.03 -0.35l-0.33 -0.04c-0.8 -0.1 -0.83 -0.28 -0.83 -1.73v-4.99c0 -1.46 0.03 -1.66 0.83 -1.75l0.29 -0.03c0.08 -0.06 0.06 -0.31 -0.03 -0.35 -0.62 0.03 -1.1 0.04 -1.64 0.04 -0.57 0 -1.04 -0.01 -1.68 -0.04 -0.08 0.04 -0.11 0.29 -0.03 0.35l0.26 0.03c0.82 0.08 0.85 0.29 0.85 1.75v1.6c0 0.43 -0.03 0.44 -0.69 0.44h-3.97c-0.67 0 -0.69 -0.01 -0.69 -0.44v-1.6c0 -1.46 0.03 -1.66 0.83 -1.75l0.26 -0.03c0.08 -0.06 0.05 -0.31 -0.03 -0.35 -0.6 0.03 -1.07 0.04 -1.61 0.04 -0.6 0 -1.07 -0.03 -1.75 -0.04 -0.08 0.04 -0.11 0.29 -0.03 0.35l0.36 0.03c0.72 0.06 0.82 0.29 0.82 1.75v4.99c0 1.45 -0.03 1.59 -0.8 1.73l-0.24 0.04c-0.08 0.08 -0.05 0.31 0.03 0.35 0.54 -0.01 1.01 -0.04 1.61 -0.04 0.54 0 1.01 0.01 1.76 0.04 0.08 -0.04 0.11 -0.29 0.03 -0.35l-0.4 -0.04c-0.78 -0.08 -0.85 -0.28 -0.85 -1.73v-1.96c0 -0.41 0.03 -0.44 0.69 -0.44h3.98zm-13.19 -3.77c0 -0.46 -0.01 -0.47 0.4 -0.47h0.99c0.76 0 1.29 0.11 1.61 0.35 0.21 0.15 0.31 0.66 0.35 1.01 0.07 0.08 0.31 0.08 0.36 -0.03 -0.04 -0.42 0.06 -1.54 0.21 -2.11 -0.03 -0.06 -0.18 -0.07 -0.25 -0.04 -0.21 0.36 -0.33 0.39 -1.08 0.39h-5.62c-0.64 0 -1.1 0.01 -1.18 -0.43 -0.04 -0.04 -0.22 -0.03 -0.26 0 -0.1 0.55 -0.31 1.44 -0.53 2.06 0.06 0.11 0.25 0.18 0.36 0.1 0.15 -0.35 0.29 -0.65 0.62 -0.96 0.35 -0.32 1.11 -0.35 1.71 -0.35h0.76c0.42 0 0.42 0.01 0.42 0.44v6.2c0 1.46 -0.07 1.67 -0.86 1.73l-0.5 0.04c-0.11 0.07 -0.08 0.31 0 0.35 0.89 -0.03 1.37 -0.04 1.93 -0.04 0.56 0 1.03 0.01 1.82 0.04 0.08 -0.04 0.11 -0.29 0.03 -0.35l-0.44 -0.04c-0.8 -0.07 -0.83 -0.28 -0.83 -1.73l-0.02 -6.16zm-11.52 8.04c-2.73 0 -3.73 -2.66 -3.73 -4.72 0 -3.04 1.87 -4.02 3.32 -4.02 2.65 0 3.66 2.47 3.66 4.76 -0.01 2.74 -1.59 3.98 -3.25 3.98zm-0.18 0.43c2.68 0 4.81 -2.04 4.81 -4.84 0 -2.44 -1.61 -4.76 -4.81 -4.76 -2.86 0 -4.94 2.12 -4.94 4.9 0 2.5 1.86 4.7 4.94 4.7zm-12.68 -8.54c0 -0.39 0.04 -0.44 0.9 -0.44 1.54 0 2.22 1.04 2.22 2.14 0 0.94 -0.32 1.43 -0.69 1.72 -0.4 0.31 -0.93 0.36 -1.43 0.36 -0.71 0 -0.92 -0.03 -0.96 -0.07 -0.04 -0.06 -0.04 -0.21 -0.04 -0.46v-3.25zm-1.14 6.24c0 1.45 -0.03 1.64 -0.83 1.73l-0.35 0.04c-0.08 0.1 -0.06 0.31 0.03 0.35a35.151 35.151 0 0 1 3.38 0c0.08 -0.04 0.11 -0.28 0.03 -0.35l-0.29 -0.04c-0.8 -0.11 -0.83 -0.28 -0.83 -1.73v-1.75c0 -0.29 0.03 -0.3 0.65 -0.3 0.56 0 0.78 0.14 0.99 0.44 0.43 0.62 1 1.58 1.36 2.09 0.99 1.41 1.69 1.75 2.87 1.75 0.26 0 0.49 -0.03 0.61 -0.07 0.07 -0.06 0.06 -0.17 -0.01 -0.19 -0.38 -0.03 -0.72 -0.18 -0.96 -0.39 -0.94 -0.79 -1.68 -1.9 -2.79 -3.69 -0.07 -0.11 -0.14 -0.25 -0.07 -0.33 0.69 -0.28 1.74 -1 1.74 -2.32 0 -0.97 -0.49 -1.59 -1.15 -1.94 -0.64 -0.35 -1.46 -0.42 -2.32 -0.42 -1.36 0 -2.32 0.04 -3.09 0.11 -0.11 0.06 -0.11 0.28 -0.01 0.35l0.44 0.05c0.57 0.07 0.61 0.31 0.61 1.62l-0.01 4.99zm-8.82 -6.24c0 -0.25 0.06 -0.32 0.19 -0.36 0.12 -0.05 0.33 -0.08 0.64 -0.08 1.05 0 2.07 0.51 2.07 1.87 0 1.3 -0.76 1.72 -2.18 1.78 -0.71 0.03 -0.72 0 -0.72 -0.39v-2.82zm0 3.98c0 -0.28 0.06 -0.36 0.8 -0.36 2.21 0 2.76 1.28 2.76 2.37 0 1.39 -0.94 1.94 -2.18 1.94 -0.42 0 -0.83 -0.07 -1.1 -0.39 -0.26 -0.31 -0.29 -1.01 -0.29 -1.51l0.01 -2.05zm-1.13 2.26c0 1.45 -0.03 1.6 -0.76 1.73l-0.25 0.04c-0.08 0.09 -0.05 0.31 0.03 0.35 0.51 -0.01 0.99 -0.04 1.6 -0.04 0.58 0 1.26 0.04 1.66 0.04 2.5 0 3.69 -1.08 3.69 -2.69 0 -1.49 -1.11 -2.18 -1.86 -2.32 -0.15 -0.03 -0.26 -0.07 -0.26 -0.21 0.83 -0.39 1.42 -0.9 1.42 -1.9 0 -0.89 -0.46 -1.44 -1.05 -1.73 -0.62 -0.32 -1.46 -0.39 -2.33 -0.39 -1.29 0 -2.23 0.04 -2.98 0.11 -0.11 0.06 -0.12 0.26 -0.01 0.35l0.44 0.04c0.62 0.05 0.68 0.32 0.68 1.35l-0.02 5.27z"/><path class="st1" d="M27.51 4.48v22.83h22.83V4.48H27.51zM27.15 0.8H50.7c1.83 0 3.33 1.5 3.33 3.33v23.54c0 1.83 -1.5 3.33 -3.33 3.33H27.15c-1.83 0 -3.33 -1.5 -3.33 -3.33V4.13C23.83 2.3 25.32 0.8 27.15 0.8z"/><path class="st1" d="M144.78 52.93C72.5 70.78 76.05 18.66 34.94 21.67c33.82 2.6 34.01 55.42 109.84 31.26"/></g></svg>