<?xml version="1.0" encoding="utf-8"?>
<!-- Generator: Adobe Illustrator 27.1.1, SVG Export Plug-In . SVG Version: 6.00 Build 0)  -->
<svg version="1.1" id="Layer_1" xmlns:svgjs="http://svgjs.com/svgjs"
	 xmlns="http://www.w3.org/2000/svg" xmlns:xlink="http://www.w3.org/1999/xlink" x="0px" y="0px" viewBox="0 0 60 60"
	 style="enable-background:new 0 0 60 60;" xml:space="preserve">
<style type="text/css">
	.st0{fill:#FF9900;}
	.st1{fill:#012C66;}
</style>
<g>
	<g>
		<path class="st0" d="M34,22.6H18.6c-0.5,0-0.9,0.4-0.9,0.9c0,0.5,0.4,0.9,0.9,0.9c0,0,0,0,0,0H34c0.5,0,0.9-0.4,0.9-0.9
			S34.5,22.6,34,22.6C34,22.6,34,22.6,34,22.6L34,22.6z M38.8,23.2c0-0.1,0-0.1-0.1-0.2c0,0-0.1-0.1-0.1-0.1c0,0-0.1-0.1-0.1-0.1
			c0,0-0.1-0.1-0.2-0.1c-0.1,0-0.1,0-0.2-0.1c-0.3-0.1-0.6,0-0.8,0.2c-0.1,0.1-0.1,0.2-0.2,0.3c0,0.1,0,0.1-0.1,0.2
			c0,0.1,0,0.1,0,0.2s0,0.1,0,0.2c0,0.1,0,0.1,0.1,0.2c0,0.1,0.1,0.1,0.1,0.2c0,0.1,0.1,0.1,0.1,0.1c0.2,0.2,0.4,0.3,0.6,0.3
			c0.1,0,0.1,0,0.2,0c0.1,0,0.1,0,0.2-0.1c0.1,0,0.2-0.1,0.3-0.2c0,0,0.1-0.1,0.1-0.1c0,0,0.1-0.1,0.1-0.2c0-0.1,0-0.1,0.1-0.2
			c0-0.1,0-0.1,0-0.2s0-0.1,0-0.2C38.8,23.3,38.8,23.2,38.8,23.2z M42.3,23.2c0-0.1-0.1-0.2-0.2-0.3c0,0-0.1-0.1-0.1-0.1
			c0,0-0.1-0.1-0.2-0.1c-0.1,0-0.1,0-0.2-0.1c-0.1,0-0.2,0-0.4,0c-0.1,0-0.1,0-0.2,0.1c-0.1,0-0.1,0.1-0.2,0.1
			c-0.1,0.1-0.2,0.1-0.2,0.2c0,0-0.1,0.1-0.1,0.2c0,0.1-0.1,0.2-0.1,0.3c0,0.1,0,0.1,0,0.2c0,0.1,0.1,0.2,0.1,0.3
			c0,0.1,0.1,0.1,0.1,0.1c0.2,0.2,0.4,0.3,0.6,0.3c0.2,0,0.5-0.1,0.6-0.3c0,0,0.1-0.1,0.1-0.1c0.1-0.1,0.1-0.2,0.1-0.3
			c0-0.1,0-0.1,0-0.2s0-0.1,0-0.2C42.3,23.3,42.3,23.2,42.3,23.2z M34,35.6H18.6c-0.5,0-0.9,0.4-0.9,0.9c0,0.5,0.4,0.9,0.9,0.9
			c0,0,0,0,0,0H34c0.5,0,0.9-0.4,0.9-0.9C34.9,36,34.5,35.6,34,35.6C34,35.6,34,35.6,34,35.6L34,35.6z M38.4,35.8
			c0,0-0.1-0.1-0.2-0.1c-0.1,0-0.1,0-0.2-0.1c-0.3-0.1-0.6,0-0.8,0.2c-0.2,0.2-0.3,0.4-0.3,0.6c0,0.1,0,0.1,0,0.2
			c0,0.1,0,0.1,0.1,0.2c0,0.1,0.1,0.2,0.2,0.3c0.2,0.2,0.4,0.3,0.6,0.3c0.1,0,0.1,0,0.2,0c0.1,0,0.1,0,0.2-0.1c0.1,0,0.1,0,0.2-0.1
			c0.2-0.2,0.4-0.4,0.4-0.7c0-0.2-0.1-0.5-0.3-0.6C38.5,35.8,38.5,35.8,38.4,35.8L38.4,35.8z M42.3,36.2c0-0.1-0.1-0.1-0.1-0.2
			s-0.1-0.1-0.1-0.1c-0.2-0.2-0.4-0.3-0.6-0.3c-0.2,0-0.5,0.1-0.6,0.3c0,0-0.1,0.1-0.1,0.1c-0.1,0.1-0.1,0.2-0.1,0.3
			c0,0.1,0,0.2,0,0.4c0,0.1,0,0.1,0.1,0.2c0,0.1,0.1,0.1,0.1,0.2c0.1,0.1,0.1,0.2,0.2,0.2c0,0,0.1,0.1,0.2,0.1c0.1,0,0.1,0,0.2,0.1
			c0.1,0,0.2,0,0.4,0c0.1,0,0.1,0,0.2-0.1c0.1,0,0.1-0.1,0.2-0.1c0.1-0.1,0.2-0.1,0.2-0.2c0,0,0.1-0.1,0.1-0.2c0-0.1,0-0.1,0.1-0.2
			c0-0.1,0-0.1,0-0.2c0-0.1,0-0.1,0-0.2C42.3,36.3,42.3,36.2,42.3,36.2z"/>
	</g>
	<path class="st1" d="M44.6,43.7c-1.7,0-3.2,1.2-3.6,2.8h-3.3v-5.3h8.2c1.2,0,2.3-1,2.3-2.3v-4.9c0-1.2-1-2.3-2.3-2.3h-1.3v-3.6h1.3
		c1.2,0,2.3-1,2.3-2.3v-4.9c0-1.2-1-2.3-2.3-2.3h-8.2v-5.3H41c0.4,1.6,1.9,2.8,3.6,2.8c2.1,0,3.7-1.7,3.7-3.7s-1.7-3.7-3.7-3.7
		c-1.7,0-3.2,1.2-3.6,2.8h-4.2c-0.5,0-0.9,0.4-0.9,0.9v0v6.2h-5v-5.6c0-0.1,0-0.1,0-0.2c1.6-0.4,2.8-1.9,2.8-3.6
		c0-2.1-1.7-3.7-3.7-3.7c-2.1,0-3.7,1.7-3.7,3.7c0,1.7,1.2,3.2,2.8,3.6c0,0.1,0,0.1,0,0.2v5.6h-5v-6.2c0-0.5-0.4-0.9-0.9-0.9H19
		c-0.4-1.6-1.9-2.8-3.6-2.8c-2.1,0-3.7,1.7-3.7,3.7s1.7,3.7,3.7,3.7c1.7,0,3.2-1.2,3.6-2.8h3.3v5.3h-8.2c-1.2,0-2.3,1-2.3,2.3v4.9
		c0,1.2,1,2.3,2.3,2.3h1.3v3.6h-1.3c-1.2,0-2.3,1-2.3,2.3v4.9c0,1.2,1,2.3,2.3,2.3h8.2v5.3H19c-0.4-1.6-1.9-2.8-3.6-2.8
		c-2.1,0-3.7,1.7-3.7,3.7s1.7,3.7,3.7,3.7c1.7,0,3.2-1.2,3.6-2.8h4.2c0.5,0,0.9-0.4,0.9-0.9l0,0v-6.2h5v5.6c0,0.1,0,0.1,0,0.2
		c-1.6,0.4-2.8,1.9-2.8,3.6c0,2.1,1.7,3.7,3.7,3.7c2.1,0,3.7-1.7,3.7-3.7c0-1.7-1.2-3.2-2.8-3.6c0-0.1,0-0.1,0-0.2v-5.6h5v6.2
		c0,0.5,0.4,0.9,0.9,0.9h0H41c0.4,1.6,1.9,2.8,3.6,2.8c2.1,0,3.7-1.7,3.7-3.7S46.7,43.7,44.6,43.7L44.6,43.7z M44.6,10.6
		c1.1,0,1.9,0.9,1.9,1.9c0,1.1-0.9,1.9-1.9,1.9c-1.1,0-1.9-0.9-1.9-1.9S43.5,10.6,44.6,10.6z M28.1,9.4c0-1.1,0.9-1.9,1.9-1.9
		c1.1,0,1.9,0.9,1.9,1.9s-0.9,1.9-1.9,1.9S28.1,10.5,28.1,9.4z M15.4,14.5c-1.1,0-1.9-0.9-1.9-1.9s0.9-1.9,1.9-1.9s1.9,0.9,1.9,1.9
		C17.3,13.6,16.5,14.5,15.4,14.5z M15.4,49.4c-1.1,0-1.9-0.9-1.9-1.9c0-1.1,0.9-1.9,1.9-1.9s1.9,0.9,1.9,1.9S16.5,49.4,15.4,49.4z
		 M31.9,50.6c0,1.1-0.9,1.9-1.9,1.9c-1.1,0-1.9-0.9-1.9-1.9c0-1.1,0.9-1.9,1.9-1.9C31.1,48.7,31.9,49.5,31.9,50.6z M13.6,25.9v-4.9
		c0-0.2,0.2-0.5,0.5-0.5h31.8c0.2,0,0.5,0.2,0.5,0.5l0,0v4.9c0,0.2-0.2,0.5-0.5,0.5l0,0H14.1C13.8,26.4,13.6,26.2,13.6,25.9z
		 M17.2,28.2h25.5v3.6H17.2L17.2,28.2z M13.6,38.9v-4.9c0-0.2,0.2-0.5,0.5-0.5c0,0,0,0,0,0h31.8c0.2,0,0.5,0.2,0.5,0.5c0,0,0,0,0,0
		v4.9c0,0.2-0.2,0.5-0.5,0.5c0,0,0,0,0,0H14.1C13.8,39.4,13.6,39.2,13.6,38.9C13.6,38.9,13.6,38.9,13.6,38.9z M44.6,49.4
		c-1.1,0-1.9-0.9-1.9-1.9c0-1.1,0.9-1.9,1.9-1.9s1.9,0.9,1.9,1.9C46.5,48.5,45.7,49.4,44.6,49.4z"/>
</g>
</svg>
