<svg xmlns="http://www.w3.org/2000/svg" version="1.1" xmlns:xlink="http://www.w3.org/1999/xlink" xmlns:svgjs="http://svgjs.com/svgjs" width="36" height="36" x="0" y="0" viewBox="0 0 43.031 43.031" style="enable-background:new 0 0 512 512" xml:space="preserve" class=""><g><path d="M23.857 1.376c-6.482 0 -12.219 3.236 -15.692 8.174 0.719 0.469 1.42 1.111 2.097 1.938 2.591 -3.873 6.779 -6.591 11.626 -7.175l1.969 3.331 1.969 -3.331c7.45 0.898 13.372 6.819 14.269 14.268l-3.332 1.969 3.332 1.969c-0.601 4.98 -3.453 9.269 -7.499 11.838 0.258 0.587 0.403 1.188 0.429 1.808 0.019 0.452 -0.028 0.881 -0.121 1.286 6.023 -3.236 10.128 -9.596 10.128 -16.901 0 -10.573 -8.602 -19.175 -19.175 -19.175zm4.893 31.579c-4.42 -3.553 -5.656 -1.806 -7.662 0.199 -1.401 1.401 -4.943 -1.524 -8.003 -4.584 -3.06 -3.06 -5.984 -6.603 -4.584 -8.003 2.006 -2.006 3.752 -3.242 0.198 -7.661 -3.553 -4.42 -5.92 -1.027 -7.863 0.916 -2.243 2.242 -0.118 10.598 8.14 18.857 8.26 8.259 16.615 10.381 18.856 8.14 1.943 -1.943 5.337 -4.311 0.917 -7.865zm-13.462 -9.403c0 -3.93 4.6 -4.629 4.6 -6.163 0 -0.744 -0.595 -1.056 -1.146 -1.056 -1.012 0 -1.577 1.131 -1.577 1.131l-1.935 -1.295s0.982 -2.293 3.751 -2.293c1.742 0 3.632 0.998 3.632 3.259 0 3.319 -4.287 3.96 -4.362 5.329h4.525v2.232h-7.368a6.532 6.532 0 0 1 -0.119 -1.146zm8.576 -3.006 4.109 -6.49h3.185v5.91h1.265v2.158h-1.265v2.575h-2.575v-2.575h-4.718v-1.577zm4.718 -0.581V17.584c0 -0.581 0.09 -1.191 0.09 -1.191h-0.029s-0.223 0.655 -0.521 1.101l-1.608 2.441v0.029h2.069z" fill="#ffffff" data-original="#000000" class="" opacity="1"/></g></svg>