<?xml version="1.0" encoding="utf-8"?>
<!-- Generator: Adobe Illustrator 27.1.1, SVG Export Plug-In . SVG Version: 6.00 Build 0)  -->
<svg version="1.1" id="Layer_1" xmlns="http://www.w3.org/2000/svg" xmlns:xlink="http://www.w3.org/1999/xlink" x="0px" y="0px"
	 viewBox="0 0 60 60" style="enable-background:new 0 0 60 60;" xml:space="preserve">
<style type="text/css">
	.st0{fill:#FF9900;}
	.st1{fill:#012C66;}
</style>
<path class="st0" d="M35,34.3c0-0.5-0.4-0.9-0.9-0.9h0H18.2c-0.5,0-0.9,0.4-0.9,0.9c0,0.5,0.4,0.9,0.9,0.9c0,0,0,0,0,0h15.9
	C34.6,35.2,35,34.8,35,34.3C35,34.3,35,34.3,35,34.3z M37.4,34.6c0,0.1,0.1,0.1,0.1,0.2s0.1,0.1,0.1,0.1c0,0,0.1,0.1,0.1,0.1
	c0,0,0.1,0.1,0.2,0.1c0.1,0,0.1,0,0.2,0.1c0.1,0,0.1,0,0.2,0c0.2,0,0.5-0.1,0.6-0.3c0,0,0.1-0.1,0.1-0.1c0,0,0.1-0.1,0.1-0.2
	c0-0.1,0.1-0.2,0.1-0.3c0-0.2-0.1-0.5-0.3-0.6c-0.2-0.2-0.5-0.3-0.8-0.2c-0.1,0-0.1,0-0.2,0.1c-0.1,0-0.1,0.1-0.2,0.1
	c0,0-0.1,0.1-0.1,0.1c-0.2,0.2-0.3,0.5-0.2,0.8C37.3,34.5,37.4,34.5,37.4,34.6L37.4,34.6z M41.8,35.2c0.2,0,0.5-0.1,0.6-0.3
	c0.2-0.2,0.3-0.4,0.3-0.6c0-0.1,0-0.1,0-0.2c0-0.1,0-0.1-0.1-0.2c0-0.1-0.1-0.1-0.1-0.2s-0.1-0.1-0.1-0.1c-0.2-0.2-0.5-0.3-0.8-0.2
	c-0.1,0-0.1,0-0.2,0.1c-0.1,0-0.1,0.1-0.2,0.1c0,0-0.1,0.1-0.1,0.1c0,0-0.1,0.1-0.1,0.1S41,33.9,41,33.9c0,0.1,0,0.1-0.1,0.2
	c0,0.1,0,0.1,0,0.2c0,0.2,0.1,0.5,0.3,0.6C41.3,35.1,41.6,35.2,41.8,35.2L41.8,35.2z"/>
<path class="st1" d="M15.5,27.5c0.5-0.2,0.7-0.7,0.5-1.1c-0.5-1.3-0.7-2.7-0.8-4.1h6.5c0,1.5,0.2,3.1,0.4,4.5c0.1,0.5,0.5,0.8,1,0.7
	c0.5-0.1,0.8-0.5,0.7-1c-0.2-1.4-0.4-2.8-0.4-4.2h5.6v4.4c0,0.5,0.4,0.9,0.9,0.9c0.5,0,0.9-0.4,0.9-0.9c0,0,0,0,0,0v-4.4h5.6
	c0,1.5-0.2,3.1-0.4,4.5c-0.1,0.5,0.2,1,0.7,1.1s1-0.2,1.1-0.7c0,0,0,0,0,0c0.3-1.5,0.4-3.2,0.5-4.8h6.5c-0.1,1.6-0.4,3.1-1,4.6
	c-0.2,0.5,0,1,0.5,1.2c0.5,0.2,1,0,1.2-0.5c0,0,0,0,0,0c0.8-2,1.2-4,1.2-6.2c0-9.1-7.4-16.6-16.6-16.6s-16.6,7.4-16.6,16.6
	c0,1.9,0.3,3.8,1,5.6C14.5,27.5,15.1,27.7,15.5,27.5L15.5,27.5z M23.5,20.5c0.1-3.7,0.8-7.2,2.1-9.8c1-2.1,2.2-3.5,3.5-3.9v13.7
	L23.5,20.5z M30.9,6.8c1.3,0.4,2.5,1.8,3.5,3.9c1.2,2.6,2,6.1,2.1,9.8h-5.6V6.8z M44.7,20.5h-6.5c-0.1-5.6-1.6-10.4-3.9-13.2
	C40.1,9.1,44.4,14.3,44.7,20.5L44.7,20.5z M25.6,7.3c-2.2,2.8-3.7,7.6-3.9,13.2h-6.5C15.6,14.3,19.9,9.1,25.6,7.3L25.6,7.3z"/>
<path class="st0" d="M37.9,39.1h8.5c1.3,0,2.3-1,2.3-2.3v-5c0-1.3-1-2.3-2.3-2.3H13.6c-1.3,0-2.3,1-2.3,2.3v5c0,1.3,1,2.3,2.3,2.3
	h8.5v8.2h-3.4c-0.4-1.7-1.9-2.9-3.7-2.9c-2.1,0-3.8,1.7-3.8,3.8c0,2.1,1.7,3.8,3.8,3.8c1.8,0,3.3-1.2,3.7-2.9H23
	c0.5,0,0.9-0.4,0.9-0.9l0,0v-9.1h5.2v8.4c0,0.1,0,0.1,0,0.2c-1.7,0.4-2.9,1.9-2.9,3.7c0,2.1,1.7,3.8,3.8,3.8s3.8-1.7,3.8-3.8
	c0-1.8-1.2-3.3-2.9-3.7c0-0.1,0-0.1,0-0.2v-8.4h5.2v9.1c0,0.5,0.4,0.9,0.9,0.9h0h4.3c0.4,1.7,1.9,2.9,3.7,2.9c2.1,0,3.8-1.7,3.8-3.8
	c0-2.1-1.7-3.8-3.8-3.8c-1.8,0-3.3,1.2-3.7,2.9h-3.4L37.9,39.1z M15.1,50.1c-1.1,0-2-0.9-2-2s0.9-2,2-2s2,0.9,2,2
	S16.2,50.1,15.1,50.1z M32,51.4c0,1.1-0.9,2-2,2c-1.1,0-2-0.9-2-2s0.9-2,2-2C31.1,49.4,32,50.3,32,51.4z M13.1,36.8v-5
	c0-0.3,0.2-0.5,0.5-0.5h32.8c0.3,0,0.5,0.2,0.5,0.5v5c0,0.3-0.2,0.5-0.5,0.5H13.6C13.3,37.3,13.1,37,13.1,36.8z M44.9,46.1
	c1.1,0,2,0.9,2,2s-0.9,2-2,2s-2-0.9-2-2S43.8,46.1,44.9,46.1z"/>
</svg>
