<svg xmlns="http://www.w3.org/2000/svg" width="36" height="36" viewBox="0 0 36 36" style="enable-background:new 0 0 512 512" xml:space="preserve"><g fill="#fff"><path d="M32.836 16.945h-1.055v-3.164C31.781 6.221 25.56 0 18 0S4.219 6.221 4.219 13.781v3.164H3.164A3.167 3.167 0 0 0 0 20.109v4.219a3.167 3.167 0 0 0 3.164 3.164h2.109c.583 0 1.055-.472 1.055-1.055V13.781c0-1.098.163-2.227.45-3.234h1.569a3.143 3.143 0 0 0 2.882-1.889C12.407 5.961 15.066 4.219 18 4.219s5.593 1.743 6.77 4.438a3.146 3.146 0 0 0 2.883 1.89h1.569c.286 1.007.45 2.137.45 3.234v14.836c0 1.745-1.49 3.164-3.234 3.164H20.97A3.16 3.16 0 0 0 18 29.672c-1.745 0-3.164 1.419-3.164 3.164S16.255 36 18 36a3.16 3.16 0 0 0 2.97-2.109h5.468c2.908 0 5.344-2.366 5.344-5.273v-1.125h1.055a3.167 3.167 0 0 0 3.164-3.164V20.11a3.167 3.167 0 0 0-3.164-3.164zm0 0" data-original="#000000"/><path d="M13.532 20.109c-.211.182-2.915 1.045-2.915 4.219 0 .583.472 1.055 1.055 1.055h4.219a1.055 1.055 0 1 0 0-2.11h-2.918c.466-.934 1.258-1.118 1.503-1.277A4.442 4.442 0 0 0 16.945 18c0-1.745-1.419-3.164-3.164-3.164S10.617 16.255 10.617 18a1.055 1.055 0 1 0 2.11 0 1.056 1.056 0 0 1 2.11 0c0 .899-.5 1.708-1.304 2.109zm6.577-5.273c-.583 0-1.055.472-1.055 1.055v4.219c0 .583.472 1.055 1.055 1.055h3.164v3.164a1.055 1.055 0 1 0 2.11 0v-8.438a1.055 1.055 0 1 0-2.11 0v3.164h-2.109v-3.164c0-.583-.472-1.055-1.055-1.055zm0 0" data-original="#000000"/></g></svg>