<?xml version="1.0" encoding="utf-8"?>
<!-- Generator: Adobe Illustrator 27.1.1, SVG Export Plug-In . SVG Version: 6.00 Build 0)  -->
<svg version="1.1" id="Layer_1" xmlns="http://www.w3.org/2000/svg" xmlns:xlink="http://www.w3.org/1999/xlink" x="0px" y="0px"
	 viewBox="0 0 60 60" style="enable-background:new 0 0 60 60;" xml:space="preserve">
<style type="text/css">
	.st0{fill:#012C66;}
	.st1{fill:#FF9900;}
</style>
<path class="st0" d="M8.7,19.2h37.7c1.4,0,2.5-1.1,2.5-2.5V11c0-1.4-1.1-2.5-2.5-2.5H8.7c-1.4,0-2.5,1.1-2.5,2.5v5.8
	C6.2,18.1,7.4,19.2,8.7,19.2z M8,11c0-0.4,0.3-0.7,0.7-0.7h37.7c0.4,0,0.7,0.3,0.7,0.7v5.8c0,0.4-0.3,0.7-0.7,0.7H8.7
	c-0.4,0-0.7-0.3-0.7-0.7V11z"/>
<path class="st0" d="M14,14.7h18.3c0.5,0,0.9-0.4,0.9-0.9c0-0.5-0.4-0.9-0.9-0.9H14c-0.5,0-0.9,0.4-0.9,0.9
	C13.1,14.3,13.5,14.7,14,14.7z M36.5,14.6c0,0,0.1,0.1,0.2,0.1c0.1,0,0.1,0,0.2,0.1c0.1,0,0.1,0,0.2,0c0.1,0,0.1,0,0.2,0
	c0.1,0,0.1,0,0.2-0.1c0.1,0,0.1-0.1,0.2-0.1c0,0,0.1-0.1,0.1-0.1c0.2-0.2,0.3-0.4,0.3-0.6s-0.1-0.5-0.3-0.6c0,0-0.1-0.1-0.1-0.1
	c0,0-0.1-0.1-0.2-0.1c-0.1,0-0.1,0-0.2-0.1c-0.1,0-0.2,0-0.4,0c-0.1,0-0.1,0-0.2,0.1c-0.1,0-0.2,0.1-0.3,0.2
	c-0.2,0.2-0.3,0.4-0.3,0.6C36.1,14.1,36.3,14.4,36.5,14.6L36.5,14.6z M40.3,14.2c0,0.1,0.1,0.2,0.2,0.3c0.2,0.2,0.4,0.3,0.6,0.3
	c0.1,0,0.1,0,0.2,0c0.1,0,0.2-0.1,0.3-0.1c0,0,0.1-0.1,0.1-0.1c0.1-0.1,0.2-0.3,0.2-0.5c0-0.1,0-0.1,0-0.2c0-0.2-0.1-0.5-0.3-0.6
	c0,0-0.1-0.1-0.1-0.1C41.5,13,41.4,13,41.3,13c-0.3-0.1-0.6,0-0.8,0.2c-0.2,0.2-0.3,0.4-0.3,0.6c0,0.1,0,0.1,0,0.2
	C40.3,14.1,40.3,14.1,40.3,14.2z M32.6,31.3H8.7C8.4,31.3,8,31,8,30.6v-5.8c0-0.4,0.3-0.7,0.7-0.7h37.7c0.4,0,0.7,0.3,0.7,0.7v4.7
	c0,0.5,0.4,0.9,0.9,0.9c0.5,0,0.9-0.4,0.9-0.9v-4.7c0-1.4-1.1-2.5-2.5-2.5H8.7c-1.4,0-2.5,1.1-2.5,2.5v5.8c0,1.4,1.1,2.5,2.5,2.5
	h23.9c0.5,0,0.9-0.4,0.9-0.9C33.5,31.7,33.1,31.3,32.6,31.3z"/>
<path class="st0" d="M14,26.9c-0.5,0-0.9,0.4-0.9,0.9c0,0.5,0.4,0.9,0.9,0.9h18.3c0.5,0,0.9-0.4,0.9-0.9c0-0.5-0.4-0.9-0.9-0.9H14z
	 M37.4,26.9c-0.1,0-0.1,0-0.2-0.1c-0.1,0-0.2,0-0.4,0c-0.1,0-0.1,0-0.2,0.1c-0.1,0-0.1,0.1-0.2,0.1c0,0-0.1,0.1-0.1,0.1
	c-0.2,0.2-0.3,0.4-0.3,0.6c0,0.1,0,0.2,0.1,0.3c0,0.1,0.1,0.1,0.1,0.2c0.1,0.1,0.2,0.2,0.2,0.2c0,0,0.1,0.1,0.2,0.1
	c0.1,0,0.1,0,0.2,0.1c0.1,0,0.1,0,0.2,0c0.1,0,0.1,0,0.2,0c0.1,0,0.1,0,0.2-0.1c0.1,0,0.1-0.1,0.2-0.1c0,0,0.1-0.1,0.1-0.1
	c0,0,0.1-0.1,0.1-0.1c0,0,0.1-0.1,0.1-0.2c0-0.1,0-0.1,0.1-0.2c0-0.1,0-0.1,0-0.2c0-0.2-0.1-0.5-0.3-0.6c0,0-0.1-0.1-0.1-0.1
	C37.5,27,37.4,26.9,37.4,26.9L37.4,26.9z M41.9,27.3c0,0-0.1-0.1-0.1-0.1c0,0-0.1-0.1-0.1-0.1c-0.1-0.1-0.2-0.1-0.3-0.1
	c-0.3-0.1-0.6,0-0.8,0.2c0,0-0.1,0.1-0.1,0.1s-0.1,0.1-0.1,0.2c0,0.1,0,0.1-0.1,0.2c0,0.1,0,0.1,0,0.2c0,0.2,0.1,0.5,0.3,0.6
	c0.2,0.2,0.4,0.3,0.6,0.3c0.1,0,0.1,0,0.2,0c0.1,0,0.2-0.1,0.3-0.1c0,0,0.1-0.1,0.1-0.1c0.2-0.2,0.3-0.4,0.3-0.6c0-0.1,0-0.1,0-0.2
	c0-0.1,0-0.1-0.1-0.2C41.9,27.4,41.9,27.3,41.9,27.3L41.9,27.3z M30,36.3H8.7c-1.4,0-2.5,1.1-2.5,2.5v5.8c0,1.4,1.1,2.5,2.5,2.5H30
	c0.5,0,0.9-0.4,0.9-0.9c0-0.5-0.4-0.9-0.9-0.9H8.7c-0.4,0-0.7-0.3-0.7-0.7v-5.8c0-0.4,0.3-0.7,0.7-0.7H30c0.5,0,0.9-0.4,0.9-0.9
	C30.9,36.7,30.5,36.3,30,36.3z"/>
<path class="st0" d="M30,40.8H14c-0.5,0-0.9,0.4-0.9,0.9c0,0.5,0.4,0.9,0.9,0.9h16c0.5,0,0.9-0.4,0.9-0.9
	C30.9,41.2,30.5,40.8,30,40.8z"/>
<g>
	<path class="st1" d="M51.9,38.6c-0.1,0-0.1,0-0.2-0.1c0-0.1,0-0.1,0-0.2c0.7-0.8,0.7-2-0.1-2.7l-1.6-1.6c-0.7-0.7-1.9-0.8-2.7-0.1
		c-0.1,0.1-0.1,0.1-0.2,0S47,33.7,47,33.7c-0.1-1-0.9-1.9-2-1.9h-2.2c-1.1,0-1.9,0.8-2,1.9c0,0.1,0,0.1-0.1,0.2c-0.1,0-0.1,0-0.2,0
		c-0.8-0.7-2-0.7-2.7,0.1l-1.6,1.6c-0.7,0.7-0.8,1.9-0.1,2.7c0.1,0.1,0.1,0.1,0,0.2c0,0.1-0.1,0.1-0.2,0.1c-1,0.1-1.9,0.9-1.9,2v2.2
		c0,1.1,0.8,1.9,1.9,2c0.1,0,0.1,0,0.2,0.1c0,0.1,0,0.1,0,0.2c-0.7,0.8-0.7,2,0.1,2.7l1.6,1.6c0.7,0.7,1.9,0.8,2.7,0.1
		c0.1-0.1,0.1-0.1,0.2,0s0.1,0.1,0.1,0.2c0.1,1,0.9,1.9,2,1.9H45c1.1,0,1.9-0.8,2-1.9c0-0.1,0-0.1,0.1-0.2s0.1,0,0.2,0
		c0.8,0.7,2,0.7,2.7-0.1l1.6-1.6c0.7-0.7,0.8-1.9,0.1-2.7c-0.1-0.1-0.1-0.1,0-0.2s0.1-0.1,0.2-0.1c1-0.1,1.9-0.9,1.9-2v-2.2
		C53.8,39.5,52.9,38.6,51.9,38.6z M52,42.8c0,0.1-0.1,0.2-0.2,0.2c-0.8,0.1-1.4,0.5-1.7,1.2c-0.3,0.7-0.2,1.5,0.3,2.1
		c0.1,0.1,0.1,0.2,0,0.3l-1.6,1.6c-0.1,0.1-0.2,0.1-0.3,0c-0.6-0.5-1.4-0.6-2.1-0.3c-0.7,0.3-1.2,1-1.2,1.7c0,0.1-0.1,0.2-0.2,0.2
		h-2.2c-0.1,0-0.2-0.1-0.2-0.2c-0.1-0.8-0.5-1.4-1.2-1.7c-0.2-0.1-0.5-0.2-0.8-0.2c-0.5,0-0.9,0.2-1.3,0.5c-0.1,0.1-0.2,0.1-0.3,0
		l-1.6-1.6c-0.1-0.1-0.1-0.2,0-0.3c0.5-0.6,0.6-1.4,0.3-2.1c-0.3-0.7-1-1.2-1.7-1.2c-0.1,0-0.2-0.1-0.2-0.2v-2.2
		c0-0.1,0.1-0.2,0.2-0.2c0.8-0.1,1.4-0.5,1.7-1.2c0.3-0.7,0.2-1.5-0.3-2.1c-0.1-0.1-0.1-0.2,0-0.3l1.6-1.6c0.1-0.1,0.2-0.1,0.3,0
		c0.6,0.5,1.4,0.6,2.1,0.3c0.7-0.3,1.2-1,1.2-1.7c0-0.1,0.1-0.2,0.2-0.2H45c0.1,0,0.2,0.1,0.2,0.2c0.1,0.8,0.5,1.4,1.2,1.7
		c0.7,0.3,1.5,0.2,2.1-0.3c0.1-0.1,0.2-0.1,0.3,0l1.6,1.6c0.1,0.1,0.1,0.2,0,0.3c-0.5,0.6-0.6,1.4-0.3,2.1c0.3,0.7,1,1.2,1.7,1.2
		c0.1,0,0.2,0.1,0.2,0.2L52,42.8L52,42.8z"/>
	<path class="st1" d="M43.9,37.3c-2.4,0-4.3,2-4.3,4.3c0,2.4,2,4.3,4.3,4.3c2.4,0,4.3-2,4.3-4.3C48.2,39.3,46.3,37.3,43.9,37.3z
		 M43.9,44.2c-1.4,0-2.5-1.1-2.5-2.5c0-1.4,1.1-2.5,2.5-2.5s2.5,1.1,2.5,2.5C46.4,43.1,45.3,44.2,43.9,44.2z"/>
</g>
</svg>
