<?xml version="1.0" encoding="utf-8"?>
<!-- Generator: Adobe Illustrator 27.1.1, SVG Export Plug-In . SVG Version: 6.00 Build 0)  -->
<svg version="1.1" id="Layer_1" xmlns="http://www.w3.org/2000/svg" xmlns:xlink="http://www.w3.org/1999/xlink" x="0px" y="0px"
	 viewBox="0 0 60 60" style="enable-background:new 0 0 60 60;" xml:space="preserve">
<style type="text/css">
	.st0{fill:#012C66;}
	.st1{fill:#FF9900;}
	.st2{fill-rule:evenodd;clip-rule:evenodd;fill:#176BEF;}
	.st3{fill-rule:evenodd;clip-rule:evenodd;fill:#FF3E30;}
	.st4{fill-rule:evenodd;clip-rule:evenodd;fill:#F7B529;}
	.st5{fill-rule:evenodd;clip-rule:evenodd;fill:#179C52;}
</style>
<path class="st0" d="M55.6,40.2h-3.2V14.4c0-2.1-1.7-3.8-3.8-3.8H11.2c-2.1,0-3.8,1.7-3.8,3.8v25.8h-3c-0.5,0-0.9,0.4-0.9,0.9l0,0
	v1.3c0,3.8,3.1,6.9,6.9,6.9h39.1c3.8,0,6.9-3.1,6.9-6.9v-1.3C56.5,40.6,56.1,40.2,55.6,40.2L55.6,40.2L55.6,40.2z M11.2,12.4h37.3
	c1.1,0,2,0.9,2,2v4.1H9.2v-4.1C9.2,13.3,10.1,12.4,11.2,12.4z M9.2,20.3h41.4v19.9H38c-0.5,0-0.9,0.4-0.9,0.9v0c0,1-0.8,1.7-1.7,1.7
	H24.6c-1,0-1.7-0.8-1.7-1.7c0-0.5-0.4-0.9-0.9-0.9c0,0,0,0,0,0H9.2L9.2,20.3z M54.7,42.4c0,2.8-2.3,5.1-5.1,5.1H10.4
	c-2.8,0-5.1-2.3-5.1-5.1V42h15.9c0.4,1.5,1.8,2.6,3.4,2.6h10.8c1.6,0,3-1.1,3.4-2.6h15.9C54.7,42,54.7,42.4,54.7,42.4z"/>
<path class="st1" d="M11.9,15.8c0,0.1,0.1,0.1,0.1,0.2c0,0,0.1,0.1,0.1,0.1c0.2,0.2,0.4,0.3,0.6,0.3c0.2,0,0.5-0.1,0.6-0.3
	c0,0,0.1-0.1,0.1-0.1c0,0,0.1-0.1,0.1-0.2c0-0.1,0-0.1,0.1-0.2c0-0.1,0-0.1,0-0.2c0-0.2-0.1-0.5-0.3-0.6c-0.2-0.2-0.4-0.3-0.6-0.3
	c-0.2,0-0.5,0.1-0.6,0.3c0,0-0.1,0.1-0.1,0.1c-0.1,0.1-0.1,0.2-0.1,0.3c0,0.1,0,0.1,0,0.2c0,0.1,0,0.1,0,0.2
	C11.9,15.7,11.9,15.7,11.9,15.8z M15.9,16.2c0,0,0.1,0.1,0.2,0.1c0.1,0,0.1,0,0.2,0.1c0.1,0,0.1,0,0.2,0c0.2,0,0.5-0.1,0.6-0.3
	c0.2-0.2,0.3-0.4,0.3-0.6c0-0.2-0.1-0.5-0.3-0.6c-0.2-0.2-0.5-0.3-0.8-0.2c-0.1,0-0.1,0-0.2,0.1c-0.1,0-0.1,0.1-0.2,0.1
	c0,0-0.1,0.1-0.1,0.1c-0.2,0.2-0.3,0.4-0.3,0.6c0,0.2,0.1,0.5,0.3,0.6C15.8,16.1,15.9,16.2,15.9,16.2L15.9,16.2z M19.3,15.8
	c0,0.1,0.1,0.1,0.1,0.2c0,0,0.1,0.1,0.1,0.1c0,0,0.1,0.1,0.1,0.1c0.1,0.1,0.2,0.1,0.3,0.1c0.1,0,0.1,0,0.2,0c0.1,0,0.1,0,0.2,0
	c0.1,0,0.2-0.1,0.3-0.1c0,0,0.1-0.1,0.1-0.1c0,0,0.1-0.1,0.1-0.1c0,0,0.1-0.1,0.1-0.2c0-0.1,0-0.1,0.1-0.2c0-0.1,0-0.2,0-0.4
	c0-0.1-0.1-0.2-0.1-0.3c0,0-0.1-0.1-0.1-0.1c0,0-0.1-0.1-0.1-0.1c-0.1-0.1-0.2-0.1-0.3-0.1c-0.1,0-0.2,0-0.4,0
	c-0.1,0-0.2,0.1-0.3,0.1c0,0-0.1,0.1-0.1,0.1c0,0-0.1,0.1-0.1,0.1c-0.1,0.1-0.1,0.2-0.1,0.3c0,0.1,0,0.2,0,0.4
	C19.2,15.7,19.3,15.7,19.3,15.8z M26.2,16.3h20c0.5,0,0.9-0.4,0.9-0.9c0-0.5-0.4-0.9-0.9-0.9h-20c-0.5,0-0.9,0.4-0.9,0.9
	C25.3,15.9,25.7,16.3,26.2,16.3z"/>
<path class="st2" d="M20.4,29.2h-4.2v1.2h3c-0.1,1.7-1.6,2.5-3,2.5c-1.8,0-3.3-1.4-3.3-3.3c0-1.9,1.5-3.3,3.3-3.3
	c1.4,0,2.2,0.9,2.2,0.9l0.9-0.9c0,0-1.1-1.2-3.2-1.2c-2.6,0-4.6,2.2-4.6,4.6c0,2.3,1.9,4.6,4.7,4.6c2.5,0,4.2-1.7,4.2-4.2
	C20.5,29.5,20.4,29.2,20.4,29.2L20.4,29.2z"/>
<path class="st3" d="M23.9,29.5c0.8,0,1.7,0.7,1.7,1.8c0,1.1-0.8,1.8-1.7,1.8c-0.9,0-1.7-0.8-1.7-1.8C22.2,30.2,22.9,29.5,23.9,29.5
	z M23.9,28.3c-1.7,0-3,1.3-3,2.9c0,1.6,1.2,3,3,3c1.6,0,2.9-1.2,2.9-2.9C26.8,29.3,25.3,28.3,23.9,28.3z"/>
<path class="st4" d="M30.3,29.5c0.8,0,1.7,0.7,1.7,1.8c0,1.1-0.8,1.8-1.7,1.8c-0.9,0-1.7-0.8-1.7-1.8C28.6,30.2,29.4,29.5,30.3,29.5
	z M30.3,28.3c-1.7,0-3,1.3-3,2.9c0,1.6,1.2,3,3,3c1.6,0,2.9-1.2,2.9-2.9C33.3,29.3,31.7,28.3,30.3,28.3z"/>
<path class="st2" d="M36.7,29.5c0.8,0,1.6,0.7,1.6,1.8c0,1.1-0.8,1.8-1.6,1.8c-0.8,0-1.6-0.7-1.6-1.8C35.1,30.1,35.9,29.5,36.7,29.5
	z M36.6,28.3c-1.6,0-2.8,1.4-2.8,2.9c0,1.8,1.4,2.9,2.8,2.9c0.8,0,1.3-0.3,1.6-0.7v0.6c0,1-0.6,1.6-1.5,1.6c-0.9,0-1.3-0.7-1.5-1
	L34,35.1c0.4,0.8,1.2,1.7,2.6,1.7c1.6,0,2.8-1,2.8-3.1v-5.3h-1.2V29C37.8,28.6,37.3,28.3,36.6,28.3z"/>
<path class="st3" d="M45,29.4c0.5,0,0.9,0.3,1.1,0.6l-2.6,1.1C43.3,30.3,44.1,29.4,45,29.4z M44.9,28.3c-1.5,0-2.7,1.2-2.7,2.9
	c0,1.9,1.4,3,2.9,3c1.2,0,2-0.7,2.5-1.3l-1-0.7c-0.3,0.4-0.7,0.8-1.4,0.8c-0.8,0-1.2-0.5-1.4-0.9l3.9-1.6L47.4,30
	C47,29.1,46.1,28.3,44.9,28.3L44.9,28.3z"/>
<path class="st5" d="M40.3,34h1.3v-8.7h-1.3V34z"/>
</svg>
