<?xml version="1.0" encoding="utf-8"?>
<!-- Generator: Adobe Illustrator 27.1.1, SVG Export Plug-In . SVG Version: 6.00 Build 0)  -->
<svg version="1.1" id="Layer_1" xmlns="http://www.w3.org/2000/svg" xmlns:xlink="http://www.w3.org/1999/xlink" x="0px" y="0px"
	 viewBox="0 0 60 60" style="enable-background:new 0 0 60 60;" xml:space="preserve">
<style type="text/css">
	.st0{fill:#FF9900;}
	.st1{fill:#012C66;}
</style>
<path class="st0" d="M30,31.6c-6,0-11,4.9-11,11s4.9,11,11,11s11-4.9,11-11S36,31.6,30,31.6z M39.1,41.7h-3.9
	c-0.1-3.2-0.9-5.9-2-7.7C36.4,35.2,38.8,38.2,39.1,41.7L39.1,41.7z M30,51.8c-0.8,0-1.6-0.9-2.3-2.4c-0.7-1.6-1.1-3.7-1.2-5.9h6.9
	c-0.1,2.2-0.5,4.3-1.2,5.9C31.6,50.9,30.8,51.8,30,51.8L30,51.8z M26.5,41.7c0.1-2.1,0.5-4.1,1.2-5.7c0.7-1.5,1.5-2.4,2.3-2.4
	s1.6,0.9,2.3,2.4c0.7,1.5,1.1,3.5,1.2,5.7H26.5z M26.8,34c-1.1,1.8-1.9,4.5-2,7.7h-3.9C21.2,38.2,23.6,35.2,26.8,34L26.8,34z
	 M20.9,43.5h3.9c0.1,3.1,0.8,5.8,1.8,7.6C23.5,49.9,21.2,47,20.9,43.5z M33.4,51.1c1.1-1.8,1.7-4.5,1.8-7.6h3.9
	C38.8,47,36.5,49.9,33.4,51.1z"/>
<path class="st1" d="M48.6,6.4H11.4c-2,0-3.6,1.6-3.6,3.6v29.9c0,2,1.6,3.6,3.6,3.6h3.9c0.5,0,0.9-0.4,0.9-0.9
	c0-0.5-0.4-0.9-0.9-0.9h-3.9c-1,0-1.8-0.8-1.8-1.8V16.6h40.8v23.3c0,1-0.8,1.8-1.8,1.8h-4.4c-0.5,0-0.9,0.4-0.9,0.9
	c0,0.5,0.4,0.9,0.9,0.9h4.4c2,0,3.6-1.6,3.6-3.6V10C52.2,8,50.6,6.4,48.6,6.4L48.6,6.4z M9.6,14.8V10c0-1,0.8-1.8,1.8-1.8h37.2
	c1,0,1.8,0.8,1.8,1.8v4.8L9.6,14.8z"/>
<path class="st1" d="M44.8,10.5H33.1c-0.5,0-0.9,0.4-0.9,0.9c0,0.5,0.4,0.9,0.9,0.9h11.6c0.5,0,0.9-0.4,0.9-0.9
	C45.7,10.9,45.3,10.5,44.8,10.5z M14.3,11.1c0-0.1-0.1-0.1-0.1-0.2c-0.1-0.1-0.1-0.2-0.2-0.2c0,0-0.1-0.1-0.2-0.1
	c-0.1,0-0.1,0-0.2-0.1c-0.1,0-0.2,0-0.4,0c-0.1,0-0.1,0-0.2,0.1c-0.1,0-0.1,0.1-0.2,0.1c0,0-0.1,0.1-0.1,0.1c0,0-0.1,0.1-0.1,0.1
	c0,0-0.1,0.1-0.1,0.2c0,0.1,0,0.1-0.1,0.2c0,0.1,0,0.1,0,0.2s0,0.1,0,0.2c0,0.1,0,0.1,0.1,0.2c0,0.1,0.1,0.1,0.1,0.2
	c0.1,0.1,0.1,0.2,0.2,0.2c0,0,0.1,0.1,0.2,0.1c0.1,0,0.1,0,0.2,0.1c0.1,0,0.1,0,0.2,0s0.1,0,0.2,0c0.1,0,0.1,0,0.2-0.1
	c0.1,0,0.1-0.1,0.2-0.1c0,0,0.1-0.1,0.1-0.1c0,0,0.1-0.1,0.1-0.1c0,0,0.1-0.1,0.1-0.2c0-0.1,0-0.1,0.1-0.2c0-0.1,0-0.1,0-0.2
	s0-0.1,0-0.2C14.3,11.2,14.3,11.1,14.3,11.1z M17.7,10.7c0,0-0.1-0.1-0.2-0.1c-0.1,0-0.1,0-0.2-0.1c-0.1,0-0.2,0-0.4,0
	c-0.1,0-0.1,0-0.2,0.1c-0.1,0-0.1,0.1-0.2,0.1c-0.1,0.1-0.2,0.2-0.2,0.2c0,0-0.1,0.1-0.1,0.2c0,0.1,0,0.1-0.1,0.2c0,0.1,0,0.1,0,0.2
	s0,0.1,0,0.2c0,0.1,0,0.1,0.1,0.2c0,0.1,0.1,0.1,0.1,0.2c0,0,0.1,0.1,0.1,0.1c0,0,0.1,0.1,0.1,0.1c0,0,0.1,0.1,0.2,0.1
	c0.1,0,0.1,0,0.2,0.1c0.1,0,0.1,0,0.2,0s0.1,0,0.2,0c0.1,0,0.1,0,0.2-0.1c0.1,0,0.1-0.1,0.2-0.1c0,0,0.1-0.1,0.1-0.1
	c0.2-0.2,0.3-0.4,0.3-0.6c0-0.2-0.1-0.5-0.3-0.6C17.8,10.7,17.8,10.7,17.7,10.7z M21.5,10.7c0,0-0.1-0.1-0.2-0.1
	c-0.1,0-0.1,0-0.2-0.1c-0.1,0-0.2,0-0.4,0c-0.1,0-0.1,0-0.2,0.1c-0.1,0-0.1,0.1-0.2,0.1c-0.1,0-0.1,0.1-0.1,0.1c0,0-0.1,0.1-0.1,0.1
	c0,0-0.1,0.1-0.1,0.2c0,0.1,0,0.1-0.1,0.2c0,0.1,0,0.2,0,0.4c0,0.1,0,0.1,0.1,0.2c0,0.1,0.1,0.1,0.1,0.2c0,0,0.1,0.1,0.1,0.1
	c0,0,0.1,0.1,0.1,0.1c0,0,0.1,0.1,0.2,0.1c0.1,0,0.1,0,0.2,0.1c0.1,0,0.1,0,0.2,0s0.1,0,0.2,0c0.1,0,0.1,0,0.2-0.1
	c0.1,0,0.1-0.1,0.2-0.1c0,0,0.1-0.1,0.1-0.1c0.2-0.2,0.3-0.4,0.3-0.6c0-0.2-0.1-0.5-0.3-0.6C21.6,10.7,21.5,10.7,21.5,10.7z"/>
<path class="st0" d="M20.9,27.6h0.4c0.4,0,0.7-0.2,0.9-0.6l1.9-5.5c0.1-0.3,0.1-0.6-0.1-0.8c-0.2-0.2-0.4-0.4-0.7-0.4
	c-0.4,0-0.7,0.3-0.9,0.6L21,24.8l-1.2-3.7c-0.1-0.5-0.6-0.8-1.1-0.8c-0.5,0-1,0.3-1.1,0.8l-1.2,3.7L15.2,21
	c-0.1-0.4-0.5-0.6-0.9-0.6c-0.3,0-0.6,0.1-0.7,0.4c-0.2,0.2-0.2,0.5-0.1,0.8l1.9,5.5c0.1,0.4,0.5,0.6,0.9,0.6h0.4
	c0.4,0,0.7-0.3,0.9-0.6l1.2-3.7L20,27C20.1,27.4,20.5,27.6,20.9,27.6L20.9,27.6z M27.4,27.6h0.4c0.4,0,0.7-0.3,0.9-0.6l1.2-3.7
	l1.2,3.7c0.1,0.4,0.5,0.6,0.9,0.6h0.4c0.4,0,0.7-0.2,0.9-0.6l1.9-5.5c0.1-0.3,0.1-0.6-0.1-0.8c-0.2-0.2-0.4-0.4-0.7-0.4
	c-0.4,0-0.7,0.3-0.9,0.6l-1.3,3.9l-1.2-3.7c-0.1-0.5-0.6-0.8-1.1-0.8c-0.5,0-1,0.3-1.1,0.8l-1.2,3.7L26.5,21
	c-0.1-0.4-0.5-0.6-0.9-0.6c-0.3,0-0.6,0.1-0.7,0.4c-0.2,0.2-0.2,0.5-0.1,0.8l1.9,5.5C26.7,27.4,27,27.6,27.4,27.6z M44.6,27l1.9-5.5
	c0.1-0.3,0.1-0.6-0.1-0.8c-0.2-0.2-0.4-0.4-0.7-0.4c-0.4,0-0.7,0.3-0.9,0.6l-1.3,3.9l-1.2-3.7c-0.1-0.5-0.6-0.8-1.1-0.8
	c-0.5,0-1,0.3-1.1,0.8l-1.2,3.7L37.7,21c-0.1-0.4-0.5-0.6-0.9-0.6c-0.3,0-0.6,0.1-0.7,0.4c-0.2,0.2-0.2,0.5-0.1,0.8l1.9,5.5
	c0.1,0.4,0.5,0.6,0.9,0.6h0.4c0.4,0,0.7-0.3,0.9-0.6l1.2-3.7l1.2,3.7c0.1,0.4,0.5,0.6,0.9,0.6h0.4C44.1,27.6,44.5,27.4,44.6,27
	L44.6,27z"/>
</svg>
