<?xml version="1.0" encoding="utf-8"?>
<!-- Generator: Adobe Illustrator 27.0.0, SVG Export Plug-In . SVG Version: 6.00 Build 0)  -->
<svg version="1.1" id="Camada_1" xmlns="http://www.w3.org/2000/svg" xmlns:xlink="http://www.w3.org/1999/xlink" x="0px" y="0px"
	 viewBox="0 0 2147.22 1200" style="enable-background:new 0 0 2147.22 1200;" xml:space="preserve">
<style type="text/css">
	.st0{display:none;fill:#FFFFFF;}
	.st1{fill:url(#SVGID_1_);}
	.st2{fill:url(#SVGID_00000155120428119397840280000013098572506464529813_);}
	.st3{display:none;}
	.st4{fill:#FCFCFC;}
	.st5{fill:url(#SVGID_00000155141421624829956380000001661104615205859754_);}
	.st6{fill:url(#SVGID_00000087392369787187050460000015903227193908470408_);}
</style>
<g>
	<rect x="-34.83" y="-17" class="st0" width="2221.04" height="1236.83"/>
	<g>
		<path d="M1315.61,491.58V373.24c0-8.39-6.86-15.25-15.25-15.25h-453.5c-8.39,0-15.25,6.86-15.25,15.25v125.95h99.55
			c9.19,0,17.81,0.5,25.84,1.5h0.03c0.08,0.01,0.15,0.01,0.22,0.03c24.02,3.01,42.9,10.46,56.64,22.36
			c18.37,15.93,27.57,39.87,27.57,71.85c0,30.21-10.56,54.6-31.67,73.19c-5.64,4.97-11.78,9.27-18.44,12.9
			c-0.15,0.09-0.32,0.18-0.48,0.27c-18.02,6.04-38.91,8.88-62.51,8.88c-2.36,0-4.63-0.06-6.77-0.15c-0.34-0.03-0.69-0.04-1.02-0.05
			c-0.83-0.05-1.63-0.09-2.4-0.14c-0.51-0.04-1.02-0.06-1.51-0.1c-0.04,0-0.06,0-0.1-0.01c-1.98-0.13-3.81-0.28-5.49-0.43
			c-0.08-0.01-0.15-0.01-0.24-0.03c-0.78-0.06-1.53-0.14-2.22-0.2c-0.42-0.04-0.84-0.08-1.23-0.1c-0.08-0.01-0.15-0.01-0.23-0.01
			v7.07h-0.24v52.67l-75.26,20.59v57.5c0,8.39,6.86,15.25,15.25,15.25h453.5c8.39,0,15.25-6.86,15.25-15.25v-76.41l-74.47,20.49
			V659.78h-81.66l81.69-56.75l-0.03-10.66v-80.3L1315.61,491.58z M1135.53,659.78h-0.06v89.44l-78.64,21.63V512.05l78.59-21.62h0.05
			v101.94h97.08L1135.53,659.78z"/>
		<path d="M971.96,613.68c4.68-5.92,7.3-13.33,7.3-22.15c0-11.76-5.12-21.15-15.43-27.01c-7.58-4.3-17.96-6.69-31.18-6.69
			c-13.31,0-21.63,0.83-25.79,1.67v69.89c4.58,0.84,10.41,1.25,20.39,1.25C947.08,630.64,963.17,624.8,971.96,613.68z"/>
	</g>
</g>
</svg>
