<?xml version="1.0" encoding="utf-8"?>
<!-- Generator: Adobe Illustrator 27.0.0, SVG Export Plug-In . SVG Version: 6.00 Build 0)  -->
<svg version="1.1" id="Camada_1" xmlns="http://www.w3.org/2000/svg" xmlns:xlink="http://www.w3.org/1999/xlink" x="0px" y="0px"
	 viewBox="0 0 2147.22 1200" style="enable-background:new 0 0 2147.22 1200;" xml:space="preserve">
<style type="text/css">
	.st0{display:none;fill:#FFFFFF;}
	.st1{fill:url(#SVGID_1_);}
	.st2{fill:url(#SVGID_00000070813844121492782750000012934873486039840139_);}
	.st3{display:none;}
	.st4{fill:#FCFCFC;}
	.st5{fill:url(#SVGID_00000165937914078542173530000000139172173820961182_);}
	.st6{fill:url(#SVGID_00000101076675962009701410000006418928585735456171_);}
</style>
<g>
	<rect x="-27.52" y="-17" class="st3" width="2202.26" height="1236.83"/>
	<g>
		<linearGradient id="SVGID_1_" gradientUnits="userSpaceOnUse" x1="743.1391" y1="600" x2="1404.0782" y2="600">
			<stop  offset="0" style="stop-color:#00629C"/>
			<stop  offset="1" style="stop-color:#123673"/>
		</linearGradient>
		<path class="st1" d="M1404.08,451.94V290.35c0-11.46-9.37-20.83-20.83-20.83H763.97c-11.46,0-20.83,9.37-20.83,20.83v171.99
			h135.94c12.55,0,24.32,0.68,35.29,2.05h0.03c0.1,0.02,0.21,0.02,0.29,0.03c32.8,4.11,58.58,14.28,77.34,30.53
			c25.08,21.75,37.65,54.45,37.65,98.12c0,41.26-14.42,74.56-43.25,99.94c-7.71,6.79-16.09,12.65-25.18,17.62
			c-0.21,0.12-0.43,0.24-0.66,0.36c-24.61,8.24-53.13,12.13-85.36,12.13c-3.23,0-6.32-0.09-9.25-0.21
			c-0.47-0.03-0.94-0.05-1.39-0.07c-1.13-0.07-2.22-0.12-3.28-0.19c-0.69-0.05-1.39-0.09-2.07-0.14c-0.05,0-0.09,0-0.14-0.02
			c-2.71-0.17-5.21-0.38-7.5-0.59c-0.1-0.02-0.21-0.02-0.33-0.03c-1.06-0.09-2.08-0.19-3.04-0.28c-0.57-0.05-1.15-0.1-1.68-0.14
			c-0.1-0.02-0.21-0.02-0.31-0.02v9.65h-0.33v71.93l-102.77,28.12v78.52c0,11.46,9.37,20.83,20.83,20.83h619.28
			c11.46,0,20.83-9.37,20.83-20.83V805.3l-101.69,27.98V681.64h-111.52l111.55-77.5l-0.03-14.56V479.92L1404.08,451.94z
			 M1158.17,681.64h-0.09v122.14l-107.39,29.54V479.9l107.32-29.52h0.07v139.2h132.57L1158.17,681.64z"/>
		
			<linearGradient id="SVGID_00000151514536173400242180000005420361517246194589_" gradientUnits="userSpaceOnUse" x1="845.9075" y1="592.1287" x2="944.7708" y2="592.1287">
			<stop  offset="0" style="stop-color:#00629C"/>
			<stop  offset="1" style="stop-color:#123673"/>
		</linearGradient>
		<path style="fill:url(#SVGID_00000151514536173400242180000005420361517246194589_);" d="M934.81,618.68
			c6.39-8.09,9.96-18.21,9.96-30.25c0-16.05-6.99-28.88-21.07-36.88c-10.34-5.87-24.52-9.13-42.58-9.13
			c-18.17,0-29.54,1.13-35.22,2.27v95.44c6.25,1.15,14.22,1.7,27.84,1.7C900.82,641.84,922.8,633.87,934.81,618.68z"/>
	</g>
</g>
</svg>
