<svg xmlns="http://www.w3.org/2000/svg" xmlns:xlink="http://www.w3.org/1999/xlink" viewBox="0 0 229 42"><defs><path id="a" d="M0 0h41.48v41.197H0z"/></defs><g fill="none" fill-rule="evenodd"><path d="M120.589 21.737v-1.378h-7.172v-5.563h-1.39v14.833c0 2.119 1.73 3.84 3.865 3.84h11.738v-1.59h-12.143c-1.119 0-2.07-.757-2.07-2.01v-8.132h7.172zm34.433 11.732v-3.266h-14.758c-.555 0-.931-.328-.931-.887v-10.52c0-.552.331-.925.893-.925h11.68v4.84h3.116v-7.917h-14.649c-2.316.133-4.152 2.043-4.152 4.375v9.916c0 2.42 1.976 4.384 4.415 4.384h14.386zM92.927 14.796v14.833c0 2.119 1.73 3.84 3.864 3.84h11.74v-1.59H96.39c-1.122 0-2.071-.757-2.071-2.01V14.795h-1.39zm-5.095 0v17.29H77.48c-1.121 0-2.069-.755-2.069-2.01v-15.28H73.83v14.833c0 2.121 1.728 3.84 3.865 3.84H89.43V14.796h-1.599zM59.45 33.469h1.599V18.23c0-1.114.762-2.053 2.024-2.053h3.61c1.118 0 2.067.755 2.067 2.01V33.47h1.583V18.631c0-2.12-1.733-3.837-3.866-3.837h-3.151a3.868 3.868 0 00-3.067 1.502 3.864 3.864 0 00-3.064-1.502H54.03c-2.135 0-3.864 1.718-3.864 3.837v14.838h1.599V18.23c0-1.114.76-2.053 2.024-2.053h3.607c1.12 0 2.07.755 2.07 2.01v.087c-.01.12-.017.24-.017.358V33.47zm71.677 0h1.6V14.796h-1.6v18.673zm0-21.437h1.6V8.935h-1.6v3.097zm75.11 2.773h-3.29v3.888c0 .552-.33.925-.891.925h-10.59c-.559 0-.933-.328-.933-.887v-3.926h-3.097v3.78c.136 2.301 2.057 4.124 4.405 4.124h9.983c2.437 0 4.413-1.966 4.413-4.385v-3.52zm-18.8 18.664h3.286v-5.58c0-.55.331-.923.894-.923h10.587c.56 0 .936.326.936.885v5.618h3.097v-5.473c-.136-2.3-2.057-4.123-4.405-4.123h-9.985c-2.435 0-4.41 1.964-4.41 4.384v5.212zm-13.438-14.137v14.137h3.321V19.176c0-2.423-1.976-4.382-4.413-4.382h-9.982c-2.349 0-4.268 1.822-4.404 4.122v10.178c0 2.33 1.834 4.242 4.15 4.375h9.914v-3.086l-10.06.009c-.069 0-.136-.005-.2-.016-.44-.08-.695-.425-.695-.912v-1.617l-.011-9.075c0-.56.375-.888.931-.888h10.59c.56 0 .892.37.892.926l-.033.522zm51.212 0v14.137h3.322V19.176c0-2.423-1.975-4.382-4.412-4.382h-9.983c-2.348 0-4.266 1.822-4.403 4.122v10.178c0 2.33 1.836 4.242 4.15 4.375h9.914v-3.086l-10.064.009c-.067 0-.134-.005-.196-.016-.44-.08-.695-.425-.695-.912v-1.617l-.013-9.075c0-.56.374-.888.932-.888h10.589c.564 0 .895.37.895.926l-.036.522zm-44.394-7.3h3.12V8.935h-3.12v3.097zm0 21.437h3.12V14.805h-3.12v18.664z" fill="#002133"/><g transform="translate(.54 .417)"><mask id="b" fill="#fff"><use xlink:href="#a"/></mask><path d="M14.548 20.599c0 3.396 2.772 6.15 6.191 6.15 3.42 0 6.192-2.754 6.192-6.15 0-3.398-2.772-6.152-6.192-6.152-3.419 0-6.19 2.754-6.19 6.152m-9.701-1.557c-.62-.625-1.093-1.393-1.316-2.222l-1.258-4.66c-.57-2.112.692-3.823 2.817-3.823h5.523c.006-.878.219-1.753.65-2.498l2.43-4.177c1.098-1.893 3.209-2.218 4.71-.724l3.907 3.879c.629-.617 1.402-1.086 2.236-1.31L29.24 2.26c2.125-.566 3.848.687 3.848 2.798v5.486c.884.008 1.765.217 2.513.647l4.206 2.412c1.906 1.092 2.232 3.189.73 4.682l-3.81 3.784c.637.633 1.124 1.414 1.352 2.258l1.258 4.662c.568 2.11-.694 3.82-2.818 3.82h-5.387c0 .897-.213 1.79-.652 2.549l-2.429 4.178c-1.1 1.893-3.21 2.217-4.711.724l-3.811-3.785c-.637.634-1.423 1.117-2.273 1.343l-4.693 1.25c-2.124.565-3.846-.688-3.846-2.8v-5.612c-.991.048-1.998-.16-2.838-.64l-4.206-2.413c-1.905-1.092-2.231-3.189-.728-4.68l3.904-3.88" fill="#FF7C00" mask="url(#b)"/></g><path d="M13.339 13.156h-7.63l-.2-.764c-.132-.498.124-.79.62-.79h5.62l1.59 1.554zm7.945-.597a8.624 8.624 0 00-3.698.856l-3.79-3.765c-.355-.352-.389-.854-.131-1.295l1.622-2.767 6.002 5.96-.005 1.011zm.018-2.674l-5.386-5.368.394-.672c.26-.444.65-.471 1-.122l3.974 3.946.018 2.216zm6.043 5.16a8.565 8.565 0 00-3.223-1.994V7.726c0-.495.334-.877.829-1.006l3.116-.818v8.43l-.722.713zm1.918-1.88V5.586l.77-.198c.499-.131.795.122.795.615v5.583l-1.565 1.579zm.6 7.894a8.498 8.498 0 00-.861-3.674l3.79-3.766c.354-.351.86-.386 1.303-.129l2.786 1.612-6.001 5.96-1.018-.003zm2.693.018l5.404-5.35.676.39c.446.259.474.646.123.994l-3.973 3.948-2.23.018zm-5.194 6.002a8.51 8.51 0 002.006-3.202h5.36c.5 0 .883.332 1.013.823l.823 3.098h-8.486l-.716-.719zm1.892 1.905l7.628.012.2.753c.133.496-.125.788-.619.788h-5.62l-1.59-1.553zm-7.947.597a8.633 8.633 0 003.7-.856l3.789 3.766c.353.35.39.854.13 1.294l-1.622 2.767-6.001-5.96.004-1.011zm-.017 2.675l5.385 5.367-.394.673c-.26.444-.649.471-1 .124l-3.974-3.95-.017-2.214zm-6.043-5.16a8.568 8.568 0 003.224 1.993v5.326c0 .496-.335.876-.83 1.007l-3.118.816v-8.43l.724-.711zm-1.917 1.88v7.578l-.771.198c-.499.132-.794-.122-.794-.616v-5.581l1.565-1.58zm-.602-7.895a8.483 8.483 0 00.861 3.675L9.8 28.52c-.353.351-.86.386-1.302.13L5.71 27.037l6.002-5.96 1.016.003zm-2.692-.017l-5.403 5.351-.677-.393c-.447-.259-.475-.645-.124-.993l3.973-3.948 2.231-.017zm5.194-6.004a8.526 8.526 0 00-2.007 3.203h-5.36c-.5 0-.883-.33-1.013-.824l-.823-3.095h8.486l.717.716z" fill="#F00041"/></g></svg>