<?xml version="1.0" encoding="utf-8"?>
<!-- Generator: Adobe Illustrator 27.1.1, SVG Export Plug-In . SVG Version: 6.00 Build 0)  -->
<svg version="1.1" id="Layer_1" xmlns:svgjs="http://svgjs.com/svgjs"
	 xmlns="http://www.w3.org/2000/svg" xmlns:xlink="http://www.w3.org/1999/xlink" x="0px" y="0px" viewBox="0 0 512 512"
	 style="enable-background:new 0 0 512 512;" xml:space="preserve">
<style type="text/css">
	.st0{fill:#012C66;}
	.st1{fill:#FF9900;}
</style>
<g>
	<path class="st0" d="M325.3,210.8c4.2,0,7.7-3.4,7.7-7.7c0-81.3-66.1-147.4-147.4-147.4S38.1,121.8,38.1,203.1
		s66.1,147.4,147.4,147.4c19.5,0,37.2-16,50-45c11.3-25.6,17.7-59,18.4-94.7H325.3z M317.4,195.4h-63.6c-1-34.5-7.4-66.7-18.3-91.5
		c-5.3-11.9-11.3-21.7-18-29C272.5,88.7,314,137,317.4,195.4z M177.9,333.6c-10.2-4.1-20.2-16.1-28.2-34.3
		c-10.4-23.7-16.4-55-17.1-88.5h45.3V333.6z M132.7,195.4c1-32.3,6.9-62.3,17-85.3c8-18.2,18-30.2,28.2-34.3v119.6H132.7
		L132.7,195.4z M193.2,75.8c10.2,4.1,20.2,16.1,28.2,34.3c10.1,23,16,53,17,85.3h-45.2V75.8z M153.6,74.9c-6.7,7.3-12.8,17.1-18,29
		c-10.9,24.8-17.3,57-18.3,91.5H57.1c-1.2,0-2.4,0.3-3.4,0.8C56.7,137.4,98.3,88.7,153.6,74.9L153.6,74.9z M53.7,210
		c1,0.5,2.2,0.8,3.4,0.8h60.1c0.7,35.7,7.1,69.1,18.4,94.7c4.3,9.8,9.2,18.1,14.5,24.9C96.6,315.4,56.6,267.5,53.7,210L53.7,210z
		 M221.5,299.3c-8,18.2-18,30.2-28.2,34.3V210.8h45.3C237.9,244.3,231.9,275.6,221.5,299.3z"/>
</g>
<path class="st1" d="M354.7,226.6c-61.1,0-110.8,49.7-110.8,110.8s49.7,110.8,110.8,110.8s110.8-49.7,110.8-110.8
	S415.8,226.6,354.7,226.6z M354.7,431.6c-51.9,0-94.2-42.3-94.2-94.2s42.3-94.2,94.2-94.2s94.2,42.3,94.2,94.2
	S406.6,431.6,354.7,431.6z"/>
<path class="st1" d="M360.6,272.1L360.6,272.1c-0.2-0.2-0.4-0.4-0.6-0.6c-0.1-0.1-0.2-0.2-0.3-0.2c-0.1-0.1-0.2-0.2-0.3-0.3
	s-0.3-0.2-0.4-0.2c-0.1-0.1-0.2-0.1-0.3-0.2c-0.1-0.1-0.3-0.1-0.4-0.2c-0.1-0.1-0.2-0.1-0.3-0.2c-0.1-0.1-0.3-0.1-0.4-0.1
	c-0.1,0-0.2-0.1-0.4-0.1c-0.1,0-0.3-0.1-0.4-0.1c-0.1,0-0.3-0.1-0.4-0.1c-0.2,0-0.3,0-0.5-0.1c-0.1,0-0.2,0-0.3,0
	c-0.5-0.1-1.1-0.1-1.6,0c-0.1,0-0.2,0-0.4,0.1c-0.1,0-0.3,0-0.4,0.1c-0.1,0-0.3,0.1-0.4,0.1c-0.1,0-0.2,0.1-0.4,0.1
	c-0.1,0-0.3,0.1-0.4,0.1c-0.1,0-0.2,0.1-0.4,0.1c-0.1,0.1-0.2,0.1-0.4,0.2s-0.2,0.1-0.4,0.2c-0.1,0.1-0.2,0.1-0.4,0.2
	c-0.1,0.1-0.2,0.1-0.4,0.2c-0.1,0.1-0.2,0.2-0.4,0.3c-0.1,0.1-0.2,0.1-0.3,0.2c-0.2,0.2-0.4,0.3-0.6,0.5l0,0l-53.1,53.1
	c-3.3,3.2-3.4,8.5-0.1,11.8s8.5,3.4,11.8,0.1c0,0,0.1-0.1,0.1-0.1l38.9-38.9v98.7c0,4.6,3.7,8.3,8.3,8.3c4.6,0,8.3-3.7,8.3-8.3
	c0,0,0,0,0,0v-98.7l38.9,38.9c1.6,1.6,3.8,2.4,5.9,2.4c2.1,0,4.3-0.8,5.9-2.4c3.2-3.2,3.2-8.5,0-11.8L360.6,272.1z"/>
</svg>
