<?xml version="1.0" encoding="utf-8"?>
<!-- Generator: Adobe Illustrator 27.1.1, SVG Export Plug-In . SVG Version: 6.00 Build 0)  -->
<svg version="1.1" id="Layer_1" xmlns:svgjs="http://svgjs.com/svgjs"
	 xmlns="http://www.w3.org/2000/svg" xmlns:xlink="http://www.w3.org/1999/xlink" x="0px" y="0px" viewBox="0 0 60 60"
	 style="enable-background:new 0 0 60 60;" xml:space="preserve">
<style type="text/css">
	.st0{fill:#012C66;}
	.st1{fill:#FF9900;}
</style>
<g>
	<path class="st0" d="M48.3,20.3H8.6c-1.4,0-2.6-1.2-2.6-2.6v-6.1c0-1.4,1.2-2.6,2.6-2.6h39.7c1.4,0,2.6,1.2,2.6,2.6v6.1
		C50.9,19.1,49.7,20.3,48.3,20.3z M8.6,10.9c-0.4,0-0.8,0.4-0.8,0.8v6.1c0,0.4,0.4,0.8,0.8,0.8h39.7c0.4,0,0.8-0.4,0.8-0.8v-6.1
		c0-0.4-0.4-0.8-0.8-0.8L8.6,10.9z"/>
	<path class="st0" d="M33.4,15.6H14.2c-0.5,0-0.9-0.4-0.9-0.9s0.4-0.9,0.9-0.9l0,0h19.2c0.5,0,0.9,0.4,0.9,0.9S33.9,15.6,33.4,15.6z
		 M38.4,15.6c-0.2,0-0.5-0.1-0.6-0.3c0,0-0.1-0.1-0.1-0.1c0,0-0.1-0.1-0.1-0.2c0-0.1,0-0.1-0.1-0.2c0-0.1,0-0.1,0-0.2
		c0-0.1,0-0.1,0-0.2c0-0.1,0-0.1,0.1-0.2c0-0.1,0.1-0.1,0.1-0.2c0,0,0.1-0.1,0.1-0.1c0.2-0.2,0.5-0.3,0.8-0.2c0.1,0,0.1,0,0.2,0.1
		c0.1,0,0.1,0.1,0.2,0.1c0,0,0.1,0.1,0.1,0.1c0.1,0.1,0.1,0.2,0.2,0.3c0,0.1,0.1,0.2,0.1,0.3c0,0.1,0,0.1,0,0.2c0,0.1,0,0.1-0.1,0.2
		c-0.1,0.2-0.2,0.3-0.3,0.4c0,0-0.1,0.1-0.2,0.1c-0.1,0-0.1,0-0.2,0.1C38.5,15.6,38.4,15.6,38.4,15.6L38.4,15.6z M42.7,15.6
		c-0.1,0-0.1,0-0.2,0c-0.1,0-0.1,0-0.2-0.1c-0.1,0-0.2-0.1-0.3-0.2c0,0-0.1-0.1-0.1-0.1c0,0-0.1-0.1-0.1-0.2c0-0.1,0-0.1-0.1-0.2
		s0-0.1,0-0.2c0-0.1,0-0.1,0-0.2c0-0.1,0-0.1,0.1-0.2c0-0.1,0.1-0.1,0.1-0.2c0,0,0.1-0.1,0.1-0.1c0.1-0.1,0.3-0.2,0.5-0.2
		c0.3-0.1,0.6,0,0.8,0.2c0.1,0.1,0.2,0.2,0.2,0.3c0,0.1,0.1,0.2,0.1,0.3c0,0.1,0,0.1,0,0.2c0,0.1,0,0.1-0.1,0.2
		c0,0.1-0.1,0.2-0.2,0.3C43.2,15.5,43,15.6,42.7,15.6z M27.2,34.2H8.6C7.2,34.2,6,33,6,31.6v-6.1c0-1.4,1.2-2.6,2.6-2.6h39.7
		c1.4,0,2.6,1.2,2.6,2.6c0,0.5-0.4,0.9-0.9,0.9c-0.5,0-0.9-0.4-0.9-0.9c0-0.4-0.4-0.8-0.8-0.8H8.6c-0.4,0-0.8,0.4-0.8,0.8v6.1
		c0,0.4,0.4,0.8,0.8,0.8h18.6c0.5,0,0.9,0.4,0.9,0.9C28.1,33.8,27.7,34.2,27.2,34.2L27.2,34.2z"/>
	<path class="st0" d="M33.4,29.4H14.2c-0.5,0-0.9-0.4-0.9-0.9c0-0.5,0.4-0.9,0.9-0.9h19.2c0.5,0,0.9,0.4,0.9,0.9
		C34.3,29,33.9,29.4,33.4,29.4z M27.2,48H8.6C7.2,48,6,46.9,6,45.4v-6.1c0-1.4,1.2-2.6,2.6-2.6h18.6c0.5,0,0.9,0.4,0.9,0.9
		c0,0.5-0.4,0.9-0.9,0.9H8.6c-0.4,0-0.8,0.4-0.8,0.8v6.1c0,0.4,0.4,0.8,0.8,0.8h18.6c0.5,0,0.9,0.4,0.9,0.9
		C28.1,47.6,27.7,48,27.2,48L27.2,48z"/>
	<path class="st0" d="M27.2,43.3h-13c-0.5,0-0.9-0.4-0.9-0.9c0-0.5,0.4-0.9,0.9-0.9h13c0.5,0,0.9,0.4,0.9,0.9
		C28.1,42.9,27.7,43.3,27.2,43.3z"/>
	<path class="st0" d="M42.5,51C36.2,51,31,45.8,31,39.5S36.2,28,42.5,28S54,33.1,54,39.5S48.9,51,42.5,51z M42.5,29.8
		c-5.4,0-9.7,4.4-9.7,9.7s4.4,9.7,9.7,9.7s9.7-4.4,9.7-9.7S47.9,29.8,42.5,29.8z"/>
	<g>
		<path class="st1" d="M48.7,43.6c-0.1-0.1-0.1-0.1-0.2-0.2c0,0-0.1,0-0.1-0.1c-0.1,0-0.1-0.1-0.2-0.1c0,0-0.1-0.1-0.2-0.1
			c-0.1-0.1-0.1-0.1-0.2-0.2c0-0.1-0.1-0.2-0.1-0.3c0-0.1-0.1-0.3-0.1-0.4c-0.1,0.1-0.1,0.2-0.1,0.4c0,0.2,0,0.4,0.1,0.6
			c0.1,0.2,0.2,0.3,0.4,0.4c0.2,0.1,0.3,0.1,0.4,0.2c0.1,0.1,0.2,0.1,0.2,0.2c0,0.1,0,0.2-0.1,0.3c-0.1,0.1-0.3,0.2-0.6,0.3
			c-0.4,0.1-0.7,0.2-0.8,0.3c-0.2,0.1-0.4,0.3-0.7,0.5c-0.2,0.2-0.4,0.3-0.7,0.3c-0.2,0-0.4-0.1-0.6-0.3c-0.1-0.2-0.2-0.5-0.1-0.8
			c0.1-0.7,0.1-1.2,0-1.5c-0.1-0.3-0.1-0.5-0.1-0.8c0-0.2,0.1-0.3,0.2-0.4c0.1,0,0.2,0,0.3,0.2c0,0,0,0.1,0.1,0.2
			c0,0.1,0.1,0.1,0.1,0.2c0,0,0.1,0.1,0.1,0.1c0,0,0.1,0.1,0.2,0.1c0.1,0,0.2,0,0.2,0c0.2,0,0.3,0,0.5-0.1c0.1-0.1,0.2-0.2,0.3-0.3
			c0.1-0.1,0.1-0.2,0.2-0.3c0.1-0.1,0.1-0.1,0.2-0.1c0.1,0,0.1-0.1,0.2-0.2c0-0.1,0.1-0.3,0.1-0.4c0-0.2,0-0.4,0-0.7
			c-0.1-0.5-0.2-1-0.5-1.5c-0.2-0.5-0.5-1-0.8-1.3c-0.5-0.6-0.9-1.1-1-1.7c-0.2-0.6-0.3-1.2-0.2-1.7c0-0.4-0.1-0.7-0.2-1.2
			c-0.2-0.4-0.4-0.7-0.7-1c-0.2-0.1-0.4-0.3-0.7-0.3c-0.3-0.1-0.6-0.1-0.8-0.1c-0.3,0-0.6,0.1-0.8,0.2c-0.4,0.2-0.7,0.5-0.8,0.8
			c-0.1,0.3-0.2,0.7-0.2,1.2c0,1,0.1,1.9,0.1,2.4c-0.1,0.3-0.4,0.8-1,1.5c-0.1,0.1-0.2,0.2-0.3,0.4s-0.2,0.3-0.2,0.5
			c-0.1,0.1-0.1,0.3-0.2,0.6c-0.1,0.3-0.2,0.5-0.2,0.6c0,0.1-0.1,0.2-0.2,0.3c-0.1,0.1-0.1,0.2-0.2,0.4c0,0.1-0.1,0.3-0.1,0.4
			c0,0.1,0,0.2,0,0.3c0,0.1,0.1,0.2,0.1,0.1c0.2-0.2,0.5-0.1,0.9,0.3c0.3,0.3,0.7,0.9,1.3,1.9c0.1,0.1,0.1,0.2,0.2,0.3
			c0.1,0.1,0.1,0.2,0.1,0.4c0,0.2,0.1,0.3,0.1,0.5c0,0.1-0.1,0.3-0.2,0.4c-0.1,0.1-0.3,0.2-0.5,0.2c-0.1,0-0.3,0-0.4,0
			c-0.2,0-0.4-0.1-0.7-0.2c-0.3-0.1-0.5-0.1-0.6-0.2c-0.2,0-0.4-0.1-0.8-0.2c-0.3-0.1-0.6-0.1-0.7-0.1c-0.2,0-0.3-0.1-0.3-0.2
			c0-0.1,0-0.2,0.1-0.4c0.1-0.2,0.1-0.3,0.1-0.4c0-0.1,0-0.1,0-0.2c0-0.1,0-0.1,0-0.1c0,0,0-0.1-0.1-0.1c0-0.1-0.1-0.1-0.1-0.1
			c-0.1-0.2-0.1-0.4,0-0.4c0-0.1,0.2-0.1,0.3-0.1c0.3,0,0.5,0,0.7-0.1c0.3-0.2,0.4-0.5,0.3-0.8c0,0.2,0,0.3-0.1,0.4
			c-0.1,0.1-0.2,0.2-0.3,0.3c-0.1,0.1-0.2,0.1-0.5,0.1c-0.2,0-0.4,0-0.4,0.1c-0.1,0-0.1,0.1-0.1,0.2c0,0.1,0,0.2,0,0.3
			c0,0.1,0.1,0.2,0.1,0.3c0,0.1,0,0.2,0,0.3c0,0.1-0.1,0.2-0.1,0.4c-0.1,0.2-0.1,0.4-0.1,0.5c0,0.1,0.1,0.1,0.1,0.2
			c0.1,0,0.2,0.1,0.3,0.1c0.1,0,0.2,0.1,0.3,0.1c0.1,0,0.2,0,0.4,0.1s0.3,0.1,0.4,0.1c0.3,0.1,0.7,0.2,1.2,0.3
			c0.4,0.2,0.7,0.2,0.9,0.2c0.1,0,0.3,0,0.4-0.1c0.1-0.1,0.2-0.1,0.3-0.2s0.2-0.2,0.4-0.2s0.4-0.1,0.6-0.1c0.2,0,0.3,0,0.5,0
			c0.2,0,0.3,0,0.4,0c0.5,0,0.8,0,1,0c0.2,0,0.3,0,0.4,0.1c0.1,0,0.1,0.1,0.2,0.2c0,0.1,0.1,0.1,0.1,0.2c0.1,0.1,0.1,0.1,0.2,0.2
			c0.2,0.1,0.4,0.1,0.7,0.1c0.3,0,0.4-0.1,0.5-0.2c0.1-0.1,0.3-0.3,0.6-0.5c0.2-0.2,0.5-0.3,0.7-0.4c0,0,0.1-0.1,0.2-0.1
			c0.1,0,0.2-0.1,0.3-0.1c0.1,0,0.2-0.1,0.2-0.1c0.1-0.1,0.2-0.1,0.2-0.1c0.1,0,0.1-0.1,0.2-0.2c0.1-0.1,0.1-0.1,0.1-0.2
			c0-0.1,0-0.1,0-0.2C48.8,43.8,48.7,43.7,48.7,43.6L48.7,43.6z M44.4,36C44.5,36,44.5,36,44.4,36C44.5,36,44.5,36,44.4,36
			c0.1,0,0.1,0.1,0.1,0.1c0,0,0,0,0.1,0.1c0,0,0,0,0.1,0.1c0,0,0.1,0,0.1,0c0,0,0.1,0,0.1,0c0,0,0,0,0.1,0.1c0,0.1,0,0.1,0,0.2
			c0,0-0.1,0.1-0.1,0.1c-0.1,0-0.2-0.1-0.3-0.2C44.4,36.2,44.4,36.1,44.4,36L44.4,36z M43.5,32.9C43.5,32.9,43.5,32.9,43.5,32.9
			c0.1-0.1,0.1-0.1,0.1-0.2c0,0,0-0.1,0-0.1c0,0,0-0.1,0.1-0.1c0,0,0.1,0,0.2,0.1c0,0,0,0,0.1,0c0,0,0.1,0,0.1,0.1c0,0,0,0,0,0
			c0,0,0,0-0.1,0.1c0,0-0.1,0-0.1,0c0,0-0.1,0-0.1,0c0,0-0.1,0-0.1,0.1c0,0-0.1,0.1-0.1,0.1c0,0,0,0-0.1,0
			C43.4,33,43.4,33,43.5,32.9C43.4,33,43.4,33,43.5,32.9L43.5,32.9z M39.7,38.8c0,0,0.1-0.1,0.1-0.1c0,0,0-0.1,0-0.1s0-0.1,0-0.1
			c0,0,0,0,0,0c0,0,0,0,0,0l0,0v0c0,0,0,0,0,0c0,0,0,0,0,0c0,0,0,0,0,0c0,0,0,0,0,0.1C39.8,38.8,39.8,38.8,39.7,38.8
			C39.7,38.9,39.7,38.9,39.7,38.8C39.6,38.9,39.6,38.9,39.7,38.8L39.7,38.8z M44.8,43.7c0,0.2,0,0.4-0.1,0.7s-0.1,0.5-0.1,0.6
			c-0.1,0-0.2,0-0.2-0.1c0-0.1,0-0.2,0-0.3c0.1-0.4,0.2-0.6,0.2-0.7c0-0.2,0-0.4-0.1-0.4c-0.1,0-0.1,0-0.3,0.2
			c-0.2,0.4-0.7,0.6-1.4,0.7c-0.6,0.1-1.1,0-1.3-0.3c-0.1,0-0.1,0-0.2,0c-0.1,0-0.1,0-0.1,0.1c0,0,0,0,0,0c0,0,0,0.1,0.1,0.1
			c0,0,0.1,0.1,0.1,0.1c0.2,0.4,0.2,0.6-0.1,0.7c0-0.2,0-0.4-0.1-0.6c0-0.1-0.1-0.3-0.2-0.4C41,44,41,43.9,40.9,43.8
			c0.2,0,0.3-0.1,0.4-0.2c0.1-0.1,0.1-0.2,0.1-0.3c0-0.1-0.1-0.2-0.1-0.3c0,0-0.3-0.2-0.7-0.6c-0.4-0.4-0.7-0.6-0.8-0.7
			c0,0-0.1-0.1-0.2-0.2c-0.1-0.1-0.2-0.2-0.2-0.2c-0.2-0.5-0.3-1-0.1-1.3l0,0c0,0,0,0,0,0.1c0,0.1,0,0.3,0,0.4
			c0,0.3,0.1,0.6,0.3,0.7c0.1,0.1,0.2,0.1,0.2,0c0,0,0-0.2,0-0.5c0-0.3,0-0.4,0-0.5c0-0.3,0.2-0.7,0.4-1.1c0.2-0.4,0.4-0.7,0.5-0.7
			c-0.1-0.2-0.1-0.3-0.1-0.5c0-0.2,0.1-0.3,0.2-0.5c0.1-0.1,0.2-0.3,0.2-0.4c0.1-0.2,0.1-0.3,0.1-0.4c0,0,0-0.1,0-0.1
			c0,0,0.1,0,0.2,0.2c0.2,0.3,0.4,0.5,0.5,0.6c0.1,0.1,0.2,0.1,0.4,0c0.1-0.1,0.3-0.2,0.5-0.3c0.2-0.2,0.4-0.3,0.5-0.3
			c0,0,0,0,0.1,0c0,0,0.1,0,0.1,0c0,0,0,0,0.1,0c0,0,0.1,0,0.1,0c0,0,0,0,0,0c0,0,0,0,0,0c0,0,0,0,0,0c0,0,0-0.1-0.1-0.1
			c0,0-0.1,0-0.1,0c-0.1,0-0.1,0.1-0.2,0.1c-0.1,0-0.2,0.1-0.2,0.1c-0.1,0-0.2,0.1-0.3,0.1c-0.1,0-0.2,0.1-0.3,0.1
			c-0.1,0-0.2,0-0.3,0.1c-0.2,0-0.4-0.1-0.5-0.2c-0.1-0.1-0.1-0.1-0.1-0.1c0,0,0,0,0.1,0c0.3,0,0.5,0,0.6,0c0.1,0,0.3-0.1,0.6-0.2
			c0,0,0.2-0.1,0.4-0.2c0.2-0.1,0.3-0.1,0.4-0.2c0.1,0,0.1,0,0.1-0.1c0,0,0-0.1,0-0.1c0,0,0-0.1-0.1-0.1c-0.1,0-0.1,0-0.2,0.1
			c0,0-0.1,0.1-0.2,0.1c-0.1,0-0.2,0.1-0.2,0.1c-0.1,0-0.2,0.1-0.3,0.1c-0.1,0-0.2,0-0.2,0.1c-0.3,0.1-0.6,0.1-0.8,0.1
			c-0.1,0-0.2,0-0.3-0.1c-0.1,0-0.1-0.1-0.1-0.1c0,0-0.1-0.1-0.1-0.1c-0.1-0.1-0.1-0.1-0.2-0.2c-0.1,0-0.1-0.1-0.1-0.1
			c0-0.1,0.1-0.1,0.1-0.2c0,0,0.1,0,0.2-0.1c0.1-0.1,0.2-0.1,0.2-0.2c0-0.1,0.1-0.1,0.2-0.2c0,0,0-0.1,0-0.2c0-0.1,0-0.2-0.1-0.3
			c-0.1-0.1-0.1-0.2-0.2-0.2c-0.1,0-0.2,0-0.3,0.1c-0.1,0.1-0.1,0.2-0.1,0.3c0,0.1,0,0.2,0.1,0.3c0,0.1,0.1,0.1,0.1,0.1
			c0.1,0,0.1,0,0.1,0.1c0,0.1-0.1,0.1-0.1,0.1c0,0-0.1,0-0.1-0.1c0-0.1-0.1-0.2-0.1-0.3c0-0.1,0-0.2,0-0.3c0-0.2,0.1-0.3,0.1-0.5
			s0.2-0.2,0.3-0.2c0.1,0,0.3,0.1,0.4,0.3c0.1,0.2,0.1,0.4,0.1,0.7c0,0,0.1,0,0.1,0c0.1,0,0.2,0,0.3,0c0.1,0,0.2,0,0.2,0.1
			c0,0,0,0,0-0.1c-0.1-0.7,0.1-1,0.7-1.1c0.1,0,0.2,0,0.2,0.1c0.1,0,0.1,0.1,0.2,0.1s0.1,0.1,0.2,0.2c0,0.1,0.1,0.2,0.1,0.4v0.3
			c0,0.2,0,0.3-0.1,0.3c-0.1,0-0.2,0-0.2,0c0,0,0-0.1,0-0.2c0.1-0.1,0-0.3,0-0.5s-0.2-0.3-0.4-0.2c-0.1,0-0.2,0.1-0.3,0.2
			c-0.1,0.1-0.1,0.3-0.1,0.4c0,0.1,0,0.2,0.1,0.2c0,0,0.1,0,0.3,0.1c0.2,0.1,0.3,0.1,0.4,0.1c0.2,0,0.3,0.1,0.4,0.2
			c0,0.1,0,0.2,0,0.4c-0.1,0.2-0.1,0.3,0,0.4c0,0.1,0.1,0.2,0.1,0.3c0.1,0.1,0.1,0.2,0.2,0.3c0.1,0.1,0.1,0.2,0.2,0.4
			c0.1,0.2,0.2,0.5,0.2,0.8c0,0,0,0,0.1,0.1c0,0,0.1,0.1,0.1,0.1c0,0,0.1,0.1,0.1,0.2c0,0.1,0.1,0.2,0.2,0.4
			c0.1,0.2,0.1,0.3,0.2,0.5c0.1,0.2,0.1,0.5,0.1,0.8c0,0.3,0,0.5,0.1,0.7c0,0.1,0.1,0.2,0.3,0.1c0.2,0,0.3-0.1,0.4-0.3
			c0.2-0.6,0-1.3-0.4-2.2c-0.2-0.3-0.3-0.5-0.4-0.7c0.2,0.1,0.4,0.3,0.6,0.6c0.2,0.3,0.3,0.6,0.4,0.8c0,0,0,0.1,0,0.2
			c0,0.1,0,0.2,0,0.2c0,0,0,0.1,0,0.2c0,0.1,0,0.1,0,0.2c0,0,0,0.1,0,0.2s0,0.1,0,0.2c0,0,0,0.1,0,0.2c0,0.1,0,0.1,0,0.2
			c0,0.1,0,0.1-0.1,0.2c0.3,0.1,0.4,0.2,0.4,0.3c-0.1-0.1-0.3-0.1-0.5-0.2c-0.2,0-0.4,0-0.6,0.1c-0.2,0.1-0.3,0.2-0.3,0.4
			c-0.2,0-0.3,0-0.4,0.1c-0.1,0.1-0.2,0.3-0.2,0.6c0,0.2,0,0.5,0.1,0.8C44.8,43.4,44.8,43.6,44.8,43.7L44.8,43.7z M41.5,34.6
			C41.5,34.6,41.5,34.5,41.5,34.6c0-0.1,0-0.1,0-0.1c0,0,0.1,0,0.1,0.1c0,0.1,0,0.1,0,0.2c0,0,0,0,0,0c-0.1,0-0.1-0.1-0.1-0.2
			C41.6,34.6,41.6,34.6,41.5,34.6z M43.5,34.7L43.5,34.7C43.5,34.7,43.5,34.8,43.5,34.7c-0.1-0.1-0.1-0.2-0.2-0.2l0,0
			c0,0,0,0,0.1-0.1c0,0,0,0,0.1,0c0,0,0.1,0.1,0.1,0.1C43.5,34.6,43.5,34.6,43.5,34.7L43.5,34.7z"/>
		<path class="st1" d="M41.7,35.2C41.7,35.2,41.7,35.2,41.7,35.2c0.1,0,0.1,0,0.1,0c0,0,0.1-0.1,0.1-0.1l0,0h-0.1
			C41.8,35.1,41.7,35.1,41.7,35.2L41.7,35.2z M42.4,35.1c0.1,0,0.1,0,0.1,0c0,0,0.1,0.1,0.1,0.1c0,0,0,0,0-0.1
			C42.6,35,42.5,35,42.4,35.1z"/>
	</g>
</g>
</svg>
