<?xml version="1.0" encoding="utf-8"?>
<!-- Generator: Adobe Illustrator 27.1.1, SVG Export Plug-In . SVG Version: 6.00 Build 0)  -->
<svg version="1.1" id="Layer_1" xmlns:svgjs="http://svgjs.com/svgjs"
	 xmlns="http://www.w3.org/2000/svg" xmlns:xlink="http://www.w3.org/1999/xlink" x="0px" y="0px" viewBox="0 0 60 60"
	 style="enable-background:new 0 0 60 60;" xml:space="preserve">
<style type="text/css">
	.st0{fill:#012C66;}
	.st1{fill:#FF9900;}
</style>
<g>
	<path class="st0" d="M48.3,20.3H8.6c-1.4,0-2.6-1.2-2.6-2.6v-6.1C6,10.2,7.2,9,8.6,9h39.7c1.4,0,2.6,1.2,2.6,2.6v6.1
		C50.9,19.1,49.7,20.3,48.3,20.3z M8.6,10.9c-0.4,0-0.8,0.4-0.8,0.8v6.1c0,0.4,0.4,0.8,0.8,0.8h39.7c0.4,0,0.8-0.4,0.8-0.8v-6.1
		c0-0.4-0.4-0.8-0.8-0.8L8.6,10.9z"/>
	<path class="st0" d="M33.4,15.6H14.2c-0.5,0-0.9-0.4-0.9-0.9s0.4-0.9,0.9-0.9l0,0h19.2c0.5,0,0.9,0.4,0.9,0.9S33.9,15.6,33.4,15.6z
		 M38.4,15.6c-0.2,0-0.5-0.1-0.6-0.3l-0.1-0.1c0,0-0.1-0.1-0.1-0.2c0-0.1,0-0.1-0.1-0.2c0-0.1,0-0.1,0-0.2c0-0.1,0-0.1,0-0.2
		c0-0.1,0-0.1,0.1-0.2c0-0.1,0.1-0.1,0.1-0.2l0.1-0.1c0.2-0.2,0.5-0.3,0.8-0.2c0.1,0,0.1,0,0.2,0.1c0.1,0,0.1,0.1,0.2,0.1l0.1,0.1
		c0.1,0.1,0.1,0.2,0.2,0.3c0,0.1,0.1,0.2,0.1,0.3s0,0.1,0,0.2c0,0.1,0,0.1-0.1,0.2c-0.1,0.2-0.2,0.3-0.3,0.4c0,0-0.1,0.1-0.2,0.1
		c-0.1,0-0.1,0-0.2,0.1C38.5,15.6,38.4,15.6,38.4,15.6L38.4,15.6z M42.7,15.6c-0.1,0-0.1,0-0.2,0c-0.1,0-0.1,0-0.2-0.1
		c-0.1,0-0.2-0.1-0.3-0.2l-0.1-0.1c0,0-0.1-0.1-0.1-0.2c0-0.1,0-0.1-0.1-0.2s0-0.1,0-0.2c0-0.1,0-0.1,0-0.2c0-0.1,0-0.1,0.1-0.2
		c0-0.1,0.1-0.1,0.1-0.2l0.1-0.1c0.1-0.1,0.3-0.2,0.5-0.2c0.3-0.1,0.6,0,0.8,0.2c0.1,0.1,0.2,0.2,0.2,0.3s0.1,0.2,0.1,0.3
		s0,0.1,0,0.2c0,0.1,0,0.1-0.1,0.2c0,0.1-0.1,0.2-0.2,0.3C43.2,15.5,43,15.6,42.7,15.6z M27.2,34.2H8.6C7.2,34.2,6,33,6,31.6v-6.1
		c0-1.4,1.2-2.6,2.6-2.6h39.7c1.4,0,2.6,1.2,2.6,2.6c0,0.5-0.4,0.9-0.9,0.9s-0.9-0.4-0.9-0.9c0-0.4-0.4-0.8-0.8-0.8H8.6
		c-0.4,0-0.8,0.4-0.8,0.8v6.1c0,0.4,0.4,0.8,0.8,0.8h18.6c0.5,0,0.9,0.4,0.9,0.9C28.1,33.8,27.7,34.2,27.2,34.2L27.2,34.2z"/>
	<path class="st0" d="M33.4,29.4H14.2c-0.5,0-0.9-0.4-0.9-0.9s0.4-0.9,0.9-0.9h19.2c0.5,0,0.9,0.4,0.9,0.9
		C34.3,29,33.9,29.4,33.4,29.4z M27.2,48H8.6C7.2,48,6,46.9,6,45.4v-6.1c0-1.4,1.2-2.6,2.6-2.6h18.6c0.5,0,0.9,0.4,0.9,0.9
		s-0.4,0.9-0.9,0.9H8.6c-0.4,0-0.8,0.4-0.8,0.8v6.1c0,0.4,0.4,0.8,0.8,0.8h18.6c0.5,0,0.9,0.4,0.9,0.9C28.1,47.6,27.7,48,27.2,48
		L27.2,48z"/>
	<path class="st0" d="M27.2,43.3h-13c-0.5,0-0.9-0.4-0.9-0.9s0.4-0.9,0.9-0.9h13c0.5,0,0.9,0.4,0.9,0.9
		C28.1,42.9,27.7,43.3,27.2,43.3z"/>
	<path class="st1" d="M42.5,51C36.2,51,31,45.8,31,39.5S36.2,28,42.5,28S54,33.1,54,39.5S48.9,51,42.5,51z M42.5,29.8
		c-5.4,0-9.7,4.4-9.7,9.7s4.4,9.7,9.7,9.7s9.7-4.4,9.7-9.7S47.9,29.8,42.5,29.8z"/>
</g>
<path class="st1" d="M49.8,34.2c-0.6-0.5-1.5-0.7-2.2-0.4c-0.8,0.4-1.2,1.2-1.2,2c0.1,0.6,0.3,1.2,0.6,1.7c0.4,0.9,0.9,1.9,0.8,3
	l-1.8,5l-3.2-9.1h0.7l1.7,4.9c0.1,0.2,0.3,0.4,0.6,0.4c0.3,0,0.6-0.3,0.6-0.6c0-0.1,0-0.1,0-0.2l-1.6-4.5h0.5c0.3,0,0.6-0.3,0.6-0.6
	s-0.3-0.6-0.6-0.6h-4.1c-0.3,0-0.6,0.3-0.6,0.6s0.3,0.6,0.6,0.6h0.2l0.8,2.3l-2.4,6.8l-3.2-9.1h0.7l1.7,4.9c0.1,0.2,0.3,0.4,0.6,0.4
	c0.1,0,0.1,0,0.2,0c0.3-0.1,0.5-0.5,0.4-0.8c0,0,0,0,0,0l-1.6-4.5h0.5c0.3,0,0.6-0.3,0.6-0.6s-0.3-0.6-0.6-0.6h-4.1
	c-0.3,0-0.6,0.3-0.6,0.6s0.3,0.6,0.6,0.6h0.2l3.9,11.1c0.1,0.2,0.3,0.4,0.6,0.4c0.3,0,0.5-0.2,0.6-0.4l2.5-7l2.5,7
	c0.1,0.2,0.3,0.4,0.6,0.4c0.3,0,0.5-0.2,0.6-0.4l2.4-6.7v0l1-2.8l0.4-1.1C50.7,36,50.5,34.9,49.8,34.2L49.8,34.2z M49.2,36.6
	l-0.6,1.6c-0.2-0.4-0.4-0.8-0.5-1.2c-0.2-0.4-0.4-0.7-0.5-1.1c0-0.4,0.1-0.7,0.4-0.9c0.1,0,0.2-0.1,0.3-0.1c0.2,0,0.4,0.1,0.6,0.2
	C49.3,35.5,49.4,36.1,49.2,36.6L49.2,36.6z"/>
</svg>
