<?xml version="1.0" encoding="utf-8"?>
<!-- Generator: Adobe Illustrator 27.0.0, SVG Export Plug-In . SVG Version: 6.00 Build 0)  -->
<svg version="1.1" id="Camada_1" xmlns="http://www.w3.org/2000/svg" xmlns:xlink="http://www.w3.org/1999/xlink" x="0px" y="0px"
	 viewBox="0 0 2147.22 1200" style="enable-background:new 0 0 2147.22 1200;" xml:space="preserve">
<style type="text/css">
	.st0{fill:#FFFFFF;}
	.st1{fill:url(#SVGID_1_);}
	.st2{fill:url(#SVGID_00000163049500973734968590000010408482668165821089_);}
	.st3{fill:url(#SVGID_00000075883228273098301020000000211104273677282717_);}
	.st4{fill:url(#SVGID_00000150783217542108940630000003446038842964082101_);}
	.st5{fill:url(#SVGID_00000116227366371475375280000008013642362288962708_);}
	.st6{fill:url(#SVGID_00000124862916756995582390000004509051320271417734_);}
	.st7{fill:url(#SVGID_00000178168922877117631800000011227354931364608941_);}
	.st8{fill:url(#SVGID_00000140726357474103561900000010449254634839793331_);}
	.st9{fill:url(#SVGID_00000063632799426374354150000009540159566925687226_);}
	.st10{fill:url(#SVGID_00000069389707918831293350000000364634734461746835_);}
	.st11{fill:url(#SVGID_00000070091012983875942240000004078704598715329197_);}
	.st12{fill:#123673;}
	.st13{font-family:'HelveticaRounded-Bold';}
	.st14{font-size:48.92px;}
	.st15{fill:#FCFCFC;}
	.st16{fill:url(#SVGID_00000077292657486409321370000011874464186308161412_);}
	.st17{fill:url(#SVGID_00000011735079620537314500000003179410944917410981_);}
	.st18{fill:url(#SVGID_00000028300538219119690070000018434671972938501307_);}
	.st19{fill:url(#SVGID_00000013158917153202893690000016760831853639167394_);}
	.st20{fill:url(#SVGID_00000120533805907565014310000002441504073565352100_);}
	.st21{fill:url(#SVGID_00000128483936878231363910000001265312607511720361_);}
	.st22{fill:url(#SVGID_00000168116625026699995770000012551373106079607696_);}
	.st23{fill:url(#SVGID_00000079465391398804159890000018291260280633272960_);}
	.st24{fill:url(#SVGID_00000138534894330148218680000000711181261495035272_);}
	.st25{fill:url(#SVGID_00000168826265318837875660000007552773199816601011_);}
	.st26{fill:url(#SVGID_00000134237967296369616850000017742219064302389430_);}
	.st27{fill:url(#SVGID_00000142159406140269096620000001236119860902994367_);}
	.st28{fill:url(#SVGID_00000083066004572350456150000001579216993484817833_);}
	.st29{fill:url(#SVGID_00000129204217703140366330000003516232376097924513_);}
	.st30{fill:url(#SVGID_00000087376320949305790000000015068080428638556807_);}
	.st31{fill:url(#SVGID_00000132086340623892627090000012234199963670113435_);}
	.st32{fill:url(#SVGID_00000005263829072473231440000004062010206013252778_);}
	.st33{fill:url(#SVGID_00000183939599340409366390000017735586907012971934_);}
	.st34{fill:url(#SVGID_00000016067340717366463270000008297041219780004777_);}
	.st35{fill:url(#SVGID_00000147917689387994711130000000867116028309307779_);}
	.st36{fill:url(#SVGID_00000123408697660702118680000017335446542688251288_);}
	.st37{fill:url(#SVGID_00000136394315658220487880000003040177070967997879_);}
	.st38{fill:url(#SVGID_00000025432965844015295480000017519867183448080818_);}
	.st39{fill:url(#SVGID_00000144314920733552075430000000928936866065878692_);}
	.st40{fill:url(#SVGID_00000103246042744243100870000009289779969447354284_);}
	.st41{fill:url(#SVGID_00000144315687993735740240000000538551486852398497_);}
	.st42{fill:url(#SVGID_00000041269183442914002540000001537434256006536331_);}
	.st43{fill:url(#SVGID_00000163757335801928463250000012538491418163077554_);}
	.st44{fill:url(#SVGID_00000018226599315748831890000001407016146474668444_);}
	.st45{fill:url(#SVGID_00000115486089920303404490000008787065634325322665_);}
	.st46{fill:url(#SVGID_00000005249232729297151320000013704517305389913762_);}
	.st47{fill:url(#SVGID_00000178166962685138223430000001331625333762689203_);}
	.st48{fill:url(#SVGID_00000127724856600984674660000007911341358668230078_);}
	.st49{fill:url(#SVGID_00000136408293740922445510000017483565473403512253_);}
	.st50{fill:url(#SVGID_00000153666730257947086010000001945918323385853878_);}
	.st51{fill:url(#SVGID_00000064332812483267440460000016937811725649213370_);}
	.st52{fill:url(#SVGID_00000150802825980975723480000018021806320837896873_);}
	.st53{fill:url(#SVGID_00000041994593032340109280000008382208775873732754_);}
	.st54{fill:url(#SVGID_00000164507118480332075740000004417223112011564478_);}
	.st55{fill:url(#SVGID_00000010289230948865097850000000027222833007197068_);}
</style>
<g>
	<rect x="-34.83" y="-45.09" class="st0" width="2221.04" height="1300.7"/>
	<g>
		<linearGradient id="SVGID_1_" gradientUnits="userSpaceOnUse" x1="347.0061" y1="569.0776" x2="727.8062" y2="569.0776">
			<stop  offset="0" style="stop-color:#00629C"/>
			<stop  offset="1" style="stop-color:#123673"/>
		</linearGradient>
		<path class="st1" d="M727.81,483.77v-93.1c0-6.6-5.4-12-12-12h-356.8c-6.6,0-12,5.4-12,12v99.09h78.32
			c7.23,0,14.01,0.39,20.33,1.18h0.02c0.06,0.01,0.12,0.01,0.17,0.02c18.9,2.37,33.75,8.23,44.56,17.59
			c14.45,12.53,21.69,31.37,21.69,56.53c0,23.77-8.31,42.96-24.92,57.58c-4.44,3.91-9.27,7.29-14.51,10.15
			c-0.12,0.07-0.25,0.14-0.38,0.21c-14.18,4.75-30.61,6.99-49.18,6.99c-1.86,0-3.64-0.05-5.33-0.12c-0.27-0.02-0.54-0.03-0.8-0.04
			c-0.65-0.04-1.28-0.07-1.89-0.11c-0.4-0.03-0.8-0.05-1.19-0.08c-0.03,0-0.05,0-0.08-0.01c-1.56-0.1-3-0.22-4.32-0.34
			c-0.06-0.01-0.12-0.01-0.19-0.02c-0.61-0.05-1.2-0.11-1.75-0.16c-0.33-0.03-0.66-0.06-0.97-0.08c-0.06-0.01-0.12-0.01-0.18-0.01
			v5.56h-0.19v41.44l-59.21,16.2v45.24c0,6.6,5.4,12,12,12h356.8c6.6,0,12-5.4,12-12v-60.12l-58.59,16.12v-87.37h-64.25l64.27-44.65
			l-0.02-8.39v-63.18L727.81,483.77z M586.13,616.11h-0.05v70.37l-61.87,17.02V499.88l61.83-17.01h0.04v80.2h76.38L586.13,616.11z"
			/>
		
			<linearGradient id="SVGID_00000047753670233357079920000014434011403766482867_" gradientUnits="userSpaceOnUse" x1="406.2161" y1="564.5425" x2="463.1761" y2="564.5425">
			<stop  offset="0" style="stop-color:#00629C"/>
			<stop  offset="1" style="stop-color:#123673"/>
		</linearGradient>
		<path style="fill:url(#SVGID_00000047753670233357079920000014434011403766482867_);" d="M457.44,579.84
			c3.68-4.66,5.74-10.49,5.74-17.43c0-9.25-4.03-16.64-12.14-21.25c-5.96-3.38-14.13-5.26-24.53-5.26
			c-10.47,0-17.02,0.65-20.29,1.31v54.99c3.6,0.66,8.19,0.98,16.04,0.98C437.86,593.18,450.52,588.59,457.44,579.84z"/>
	</g>
	<g>
		<g>
			
				<linearGradient id="SVGID_00000163767315825473748760000008746266593217674899_" gradientUnits="userSpaceOnUse" x1="731.3046" y1="592.0854" x2="831.283" y2="592.0854">
				<stop  offset="0" style="stop-color:#00629C"/>
				<stop  offset="1" style="stop-color:#123673"/>
			</linearGradient>
			<path style="fill:url(#SVGID_00000163767315825473748760000008746266593217674899_);" d="M761.41,615.54v45.74H731.3V522.89
				h48.06c17.31,0,30.29,3.75,38.94,11.24c8.65,7.5,12.98,18.77,12.98,33.82c0,14.22-4.97,25.7-14.91,34.45
				c-9.94,8.75-23.21,13.13-39.81,13.13H761.41z M761.41,546.25v46.23h12.55c8.49,0,14.88-1.94,19.16-5.84
				c4.28-3.89,6.42-9.73,6.42-17.52c0-7.65-2.11-13.38-6.32-17.18c-4.21-3.79-10.6-5.69-19.16-5.69H761.41z"/>
			
				<linearGradient id="SVGID_00000060733564166087402170000011087921187179836602_" gradientUnits="userSpaceOnUse" x1="853.8651" y1="592.0854" x2="936.1834" y2="592.0854">
				<stop  offset="0" style="stop-color:#00629C"/>
				<stop  offset="1" style="stop-color:#123673"/>
			</linearGradient>
			<path style="fill:url(#SVGID_00000060733564166087402170000011087921187179836602_);" d="M936.18,661.28h-82.32V522.89H933v24.61
				h-49.02v31.85h45.65v24.61h-45.65v32.81h52.21V661.28z"/>
			
				<linearGradient id="SVGID_00000080192230117656870950000012826283354002739603_" gradientUnits="userSpaceOnUse" x1="947.4744" y1="592.0854" x2="1056.6206" y2="592.0854">
				<stop  offset="0" style="stop-color:#00629C"/>
				<stop  offset="1" style="stop-color:#123673"/>
			</linearGradient>
			<path style="fill:url(#SVGID_00000080192230117656870950000012826283354002739603_);" d="M1056.62,547.5h-39.57v113.78h-30.21
				V547.5h-39.37v-24.61h109.15V547.5z"/>
			
				<linearGradient id="SVGID_00000140693783262540168360000005762933986547430030_" gradientUnits="userSpaceOnUse" x1="1077.465" y1="592.0854" x2="1188.9271" y2="592.0854">
				<stop  offset="0" style="stop-color:#00629C"/>
				<stop  offset="1" style="stop-color:#123673"/>
			</linearGradient>
			<path style="fill:url(#SVGID_00000140693783262540168360000005762933986547430030_);" d="M1188.93,661.28h-34.26l-18.72-34.45
				c-3.03-5.6-6.05-9.81-9.07-12.64c-3.02-2.83-6.5-4.41-10.42-4.73h-8.88v51.82h-30.11V522.89h48.73c16.53,0,28.98,3.25,37.35,9.75
				c8.36,6.5,12.55,16.28,12.55,29.34c0,9.2-2.69,17.13-8.06,23.79c-5.37,6.66-12.72,11.6-22.05,14.81v0.39
				c3.99,1.29,7.74,3.91,11.24,7.86c3.51,3.96,6.48,8.15,8.93,12.59L1188.93,661.28z M1107.57,545.67v40.82h14.09
				c6.82,0,12.3-2.06,16.45-6.18c4.15-4.12,6.22-9.23,6.22-15.34c0-6.37-1.83-11.18-5.5-14.43c-3.67-3.25-9.2-4.87-16.6-4.87
				H1107.57z"/>
			
				<linearGradient id="SVGID_00000052808684581094827500000010143537952560380071_" gradientUnits="userSpaceOnUse" x1="1196.5514" y1="592.1336" x2="1331.8494" y2="592.1336">
				<stop  offset="0" style="stop-color:#00629C"/>
				<stop  offset="1" style="stop-color:#123673"/>
			</linearGradient>
			<path style="fill:url(#SVGID_00000052808684581094827500000010143537952560380071_);" d="M1263.53,663.69
				c-19.75,0-35.85-6.45-48.3-19.35c-12.45-12.9-18.67-29.71-18.67-50.42c0-21.87,6.32-39.57,18.96-53.08
				c12.64-13.51,29.42-20.26,50.33-20.26c19.69,0,35.61,6.46,47.77,19.4c12.16,12.93,18.24,29.98,18.24,51.15
				c0,21.81-6.31,39.36-18.92,52.64C1300.32,657.05,1283.85,663.69,1263.53,663.69z M1264.1,637.54c11.13,0,19.91-3.92,26.35-11.77
				c6.43-7.85,9.65-18.82,9.65-32.91c0-14.6-3.14-25.96-9.41-34.07c-6.27-8.11-14.88-12.16-25.81-12.16
				c-11.13,0-20.01,4.17-26.64,12.5c-6.63,8.33-9.94,19.38-9.94,33.15c0,13.96,3.3,24.99,9.89,33.1
				C1244.79,633.48,1253.42,637.54,1264.1,637.54z"/>
			
				<linearGradient id="SVGID_00000128481619678096685380000001796391801764132008_" gradientUnits="userSpaceOnUse" x1="1357.0365" y1="592.0854" x2="1475.6404" y2="592.0854">
				<stop  offset="0" style="stop-color:#00629C"/>
				<stop  offset="1" style="stop-color:#123673"/>
			</linearGradient>
			<path style="fill:url(#SVGID_00000128481619678096685380000001796391801764132008_);" d="M1475.64,661.28h-30.21v-56.84h-58.29
				v56.84h-30.11V522.89h30.11v55.59h58.29v-55.59h30.21V661.28z"/>
			
				<linearGradient id="SVGID_00000170975025693109657580000009711430353049817267_" gradientUnits="userSpaceOnUse" x1="1500.8275" y1="592.1336" x2="1636.127" y2="592.1336">
				<stop  offset="0" style="stop-color:#00629C"/>
				<stop  offset="1" style="stop-color:#123673"/>
			</linearGradient>
			<path style="fill:url(#SVGID_00000170975025693109657580000009711430353049817267_);" d="M1567.8,663.69
				c-19.75,0-35.85-6.45-48.3-19.35c-12.45-12.9-18.67-29.71-18.67-50.42c0-21.87,6.32-39.57,18.96-53.08
				c12.64-13.51,29.42-20.26,50.33-20.26c19.69,0,35.61,6.46,47.77,19.4c12.16,12.93,18.24,29.98,18.24,51.15
				c0,21.81-6.31,39.36-18.92,52.64C1604.6,657.05,1588.13,663.69,1567.8,663.69z M1568.38,637.54c11.13,0,19.91-3.92,26.35-11.77
				c6.43-7.85,9.65-18.82,9.65-32.91c0-14.6-3.14-25.96-9.41-34.07c-6.27-8.11-14.88-12.16-25.81-12.16
				c-11.13,0-20.01,4.17-26.64,12.5c-6.63,8.33-9.94,19.38-9.94,33.15c0,13.96,3.3,24.99,9.89,33.1
				C1549.06,633.48,1557.7,637.54,1568.38,637.54z"/>
			
				<linearGradient id="SVGID_00000139284066240610662250000003791274068832295844_" gradientUnits="userSpaceOnUse" x1="1650.5065" y1="592.1336" x2="1749.9059" y2="592.1336">
				<stop  offset="0" style="stop-color:#00629C"/>
				<stop  offset="1" style="stop-color:#123673"/>
			</linearGradient>
			<path style="fill:url(#SVGID_00000139284066240610662250000003791274068832295844_);" d="M1650.51,651.92l12.45-23.55
				c6.95,4.18,13.03,7.03,18.24,8.54c5.21,1.51,10.68,2.27,16.41,2.27c7.4,0,12.95-1.46,16.65-4.39c3.7-2.93,5.55-7,5.55-12.21
				c0-4.82-1.48-8.57-4.44-11.24c-2.96-2.67-8.33-4.94-16.12-6.8c-15.31-3.6-26.44-8.64-33.39-15.1
				c-6.95-6.47-10.42-15.46-10.42-26.97c0-11.64,4.49-21.54,13.46-29.68c8.97-8.14,21.57-12.21,37.78-12.21
				c6.76,0,13.4,0.77,19.93,2.32c6.53,1.54,12.79,3.83,18.77,6.85l-11.48,23.74c-5.28-2.96-10.28-5.1-15.01-6.42
				c-4.73-1.32-9.15-1.98-13.27-1.98c-6.37,0-11.34,1.27-14.91,3.81c-3.57,2.54-5.36,6.19-5.36,10.95c0,4.31,1.62,7.62,4.87,9.94
				c3.25,2.32,9.09,4.5,17.52,6.56c14.86,3.47,25.61,8.57,32.23,15.3c6.62,6.72,9.94,16.16,9.94,28.32c0,13-4.57,23.53-13.7,31.61
				c-9.14,8.07-22.36,12.11-39.66,12.11c-7.79,0-15.78-1.03-23.98-3.09C1664.36,658.55,1657,655.65,1650.51,651.92z"/>
			
				<linearGradient id="SVGID_00000065766592353695063300000014697184231507335820_" gradientUnits="userSpaceOnUse" x1="1761.0991" y1="592.0854" x2="1870.2461" y2="592.0854">
				<stop  offset="0" style="stop-color:#00629C"/>
				<stop  offset="1" style="stop-color:#123673"/>
			</linearGradient>
			<path style="fill:url(#SVGID_00000065766592353695063300000014697184231507335820_);" d="M1870.25,547.5h-39.57v113.78h-30.21
				V547.5h-39.37v-24.61h109.15V547.5z"/>
		</g>
	</g>
	<text transform="matrix(1 0 0 1 864.6228 734.1849)" class="st12 st13 st14">Seu parceiro para o sucesso Online</text>
</g>
</svg>
