<?xml version="1.0" encoding="utf-8"?>
<!-- Generator: Adobe Illustrator 27.0.0, SVG Export Plug-In . SVG Version: 6.00 Build 0)  -->
<svg version="1.1" id="Camada_1" xmlns="http://www.w3.org/2000/svg" xmlns:xlink="http://www.w3.org/1999/xlink" x="0px" y="0px"
	 viewBox="0 0 2147.22 1200" style="enable-background:new 0 0 2147.22 1200;" xml:space="preserve">
<style type="text/css">
	.st0{fill:#FFFFFF;}
	.st1{fill:url(#SVGID_1_);}
	.st2{fill:url(#SVGID_00000138556735423609638240000016449134776489891249_);}
	.st3{fill:url(#SVGID_00000086677192486819304920000002995969708679872172_);}
	.st4{fill:url(#SVGID_00000130612613146155907730000015985570469000463291_);}
	.st5{fill:url(#SVGID_00000028307149305192262060000008576260551887207083_);}
	.st6{fill:url(#SVGID_00000081619734654300579320000016384215075865733769_);}
	.st7{fill:url(#SVGID_00000026854282821472592540000010052662266752383104_);}
	.st8{fill:url(#SVGID_00000183961396069661756490000015022671173126370970_);}
	.st9{fill:url(#SVGID_00000003786831013364489420000003803864500006806418_);}
	.st10{fill:url(#SVGID_00000027600104766159362130000000808016125901351569_);}
	.st11{fill:url(#SVGID_00000009586546020092428860000013758139189441076613_);}
	.st12{fill:#FCFCFC;}
	.st13{font-family:'HelveticaRounded-Bold';}
	.st14{font-size:48.92px;}
	.st15{fill:url(#SVGID_00000137114273246752939770000003807188200153160881_);}
	.st16{fill:url(#SVGID_00000115501763518865569470000016500774227491911607_);}
	.st17{fill:url(#SVGID_00000137844663604729661220000008514100376849231747_);}
	.st18{fill:url(#SVGID_00000086654602139543574160000012600636270651859373_);}
	.st19{fill:url(#SVGID_00000078018352570200388620000004559007248308398980_);}
	.st20{fill:url(#SVGID_00000153702661792224080720000012673687369979359167_);}
	.st21{fill:url(#SVGID_00000017500498902112926430000007451459005590432177_);}
	.st22{fill:url(#SVGID_00000171680457872675944240000008773950405136801673_);}
	.st23{fill:url(#SVGID_00000089531741492496730670000009749805359945458874_);}
	.st24{fill:url(#SVGID_00000016791686792111481110000003486065622845185453_);}
	.st25{fill:url(#SVGID_00000009558950540301324180000000574280747812462744_);}
	.st26{fill:url(#SVGID_00000058558322896793347540000010486223001455950782_);}
	.st27{fill:url(#SVGID_00000054949507820068365400000017154992384381565879_);}
	.st28{fill:url(#SVGID_00000165218590519818079730000006879474357813878920_);}
	.st29{fill:url(#SVGID_00000114787009100512040720000004814367874263969413_);}
	.st30{fill:url(#SVGID_00000178183078973036721450000009272171811500140202_);}
	.st31{fill:url(#SVGID_00000182500969832787383690000012564589159436085688_);}
	.st32{fill:url(#SVGID_00000003800227216134419380000011115364018398962838_);}
	.st33{fill:url(#SVGID_00000036958581126766637600000013222533407347094944_);}
	.st34{fill:url(#SVGID_00000083073053897426359960000014276474821635613593_);}
	.st35{fill:url(#SVGID_00000028306145564653079890000003614575279847758519_);}
	.st36{fill:url(#SVGID_00000121270005149300161480000017337683115455735484_);}
	.st37{fill:url(#SVGID_00000175316036700353511090000009027610284950585752_);}
	.st38{fill:url(#SVGID_00000163777372996306196890000005376511553854248111_);}
	.st39{fill:url(#SVGID_00000050658286708515569890000000947433011534351005_);}
	.st40{fill:url(#SVGID_00000173126618087442675220000013167337886847925129_);}
	.st41{fill:url(#SVGID_00000023282661340115768100000017405102449099222913_);}
	.st42{fill:url(#SVGID_00000085955108203186086290000006267717566402965672_);}
	.st43{fill:url(#SVGID_00000178922801120716685600000013419566245529862310_);}
	.st44{fill:url(#SVGID_00000006689171992595911560000018119251052480605089_);}
	.st45{fill:url(#SVGID_00000140702033970107508120000003974447351029071514_);}
	.st46{fill:url(#SVGID_00000148625415685053716010000004631291265392543106_);}
	.st47{fill:url(#SVGID_00000150809712922572463510000003150358360704091297_);}
	.st48{fill:url(#SVGID_00000153701057779128258190000008909613782491368367_);}
	.st49{fill:url(#SVGID_00000116219442903694282490000009222745429003821465_);}
	.st50{fill:url(#SVGID_00000125589990488446845510000008936260319925282229_);}
	.st51{fill:url(#SVGID_00000032641727279755155840000007629420662542787735_);}
	.st52{fill:url(#SVGID_00000080202039568362898000000013135572346430996916_);}
	.st53{fill:url(#SVGID_00000024720309510582931350000012643579033282441636_);}
	.st54{fill:url(#SVGID_00000025428156778493140970000003183607841535266446_);}
</style>
<g>
	<rect x="-34.83" y="-17" class="st0" width="2221.04" height="1236.83"/>
	<g>
		<path d="M727.81,505.99v-93.1c0-6.6-5.4-12-12-12h-356.8c-6.6,0-12,5.4-12,12v99.09h78.32c7.23,0,14.01,0.39,20.33,1.18h0.02
			c0.06,0.01,0.12,0.01,0.17,0.02c18.9,2.37,33.75,8.23,44.56,17.59c14.45,12.53,21.69,31.37,21.69,56.53
			c0,23.77-8.31,42.96-24.92,57.58c-4.44,3.91-9.27,7.29-14.51,10.15c-0.12,0.07-0.25,0.14-0.38,0.21
			c-14.18,4.75-30.61,6.99-49.18,6.99c-1.86,0-3.64-0.05-5.33-0.12c-0.27-0.02-0.54-0.03-0.8-0.04c-0.65-0.04-1.28-0.07-1.89-0.11
			c-0.4-0.03-0.8-0.05-1.19-0.08c-0.03,0-0.05,0-0.08-0.01c-1.56-0.1-3-0.22-4.32-0.34c-0.06-0.01-0.12-0.01-0.19-0.02
			c-0.61-0.05-1.2-0.11-1.75-0.16c-0.33-0.03-0.66-0.06-0.97-0.08c-0.06-0.01-0.12-0.01-0.18-0.01v5.56h-0.19v41.44l-59.21,16.2
			v45.24c0,6.6,5.4,12,12,12h356.8c6.6,0,12-5.4,12-12v-60.12l-58.59,16.12v-87.37h-64.25l64.27-44.65l-0.02-8.39v-63.18
			L727.81,505.99z M586.13,638.33h-0.05v70.37l-61.87,17.02V522.1l61.83-17.01h0.04v80.2h76.38L586.13,638.33z"/>
		<path d="M457.44,602.06c3.68-4.66,5.74-10.49,5.74-17.43c0-9.25-4.03-16.64-12.14-21.25c-5.96-3.38-14.13-5.26-24.53-5.26
			c-10.47,0-17.02,0.65-20.29,1.31v54.99c3.6,0.66,8.19,0.98,16.04,0.98C437.86,615.4,450.52,610.81,457.44,602.06z"/>
	</g>
	<g>
		<g>
			<path d="M761.41,637.75v45.74H731.3V545.11h48.06c17.31,0,30.29,3.75,38.94,11.24c8.65,7.5,12.98,18.77,12.98,33.82
				c0,14.22-4.97,25.7-14.91,34.45c-9.94,8.75-23.21,13.13-39.81,13.13H761.41z M761.41,568.46v46.23h12.55
				c8.49,0,14.88-1.94,19.16-5.84c4.28-3.89,6.42-9.73,6.42-17.52c0-7.65-2.11-13.38-6.32-17.18c-4.21-3.79-10.6-5.69-19.16-5.69
				H761.41z"/>
			<path d="M936.18,683.5h-82.32V545.11H933v24.61h-49.02v31.85h45.65v24.61h-45.65v32.81h52.21V683.5z"/>
			<path d="M1056.62,569.72h-39.57V683.5h-30.21V569.72h-39.37v-24.61h109.15V569.72z"/>
			<path d="M1188.93,683.5h-34.26l-18.72-34.45c-3.03-5.6-6.05-9.81-9.07-12.64c-3.02-2.83-6.5-4.41-10.42-4.73h-8.88v51.82h-30.11
				V545.11h48.73c16.53,0,28.98,3.25,37.35,9.75c8.36,6.5,12.55,16.28,12.55,29.34c0,9.2-2.69,17.13-8.06,23.79
				c-5.37,6.66-12.72,11.6-22.05,14.81v0.39c3.99,1.29,7.74,3.91,11.24,7.86c3.51,3.96,6.48,8.16,8.93,12.59L1188.93,683.5z
				 M1107.57,567.88v40.82h14.09c6.82,0,12.3-2.06,16.45-6.18c4.15-4.12,6.22-9.23,6.22-15.34c0-6.37-1.83-11.18-5.5-14.43
				c-3.67-3.25-9.2-4.87-16.6-4.87H1107.57z"/>
			<path d="M1263.53,685.91c-19.75,0-35.85-6.45-48.3-19.35c-12.45-12.9-18.67-29.71-18.67-50.42c0-21.87,6.32-39.57,18.96-53.08
				c12.64-13.51,29.42-20.26,50.33-20.26c19.69,0,35.61,6.46,47.77,19.4c12.16,12.93,18.24,29.98,18.24,51.15
				c0,21.81-6.31,39.36-18.92,52.64C1300.32,679.27,1283.85,685.91,1263.53,685.91z M1264.1,659.76c11.13,0,19.91-3.92,26.35-11.77
				c6.43-7.85,9.65-18.82,9.65-32.91c0-14.6-3.14-25.96-9.41-34.07c-6.27-8.11-14.88-12.16-25.81-12.16
				c-11.13,0-20.01,4.17-26.64,12.5c-6.63,8.33-9.94,19.38-9.94,33.15c0,13.96,3.3,24.99,9.89,33.1
				C1244.79,655.7,1253.42,659.76,1264.1,659.76z"/>
			<path d="M1475.64,683.5h-30.21v-56.84h-58.29v56.84h-30.11V545.11h30.11v55.59h58.29v-55.59h30.21V683.5z"/>
			<path d="M1567.8,685.91c-19.75,0-35.85-6.45-48.3-19.35c-12.45-12.9-18.67-29.71-18.67-50.42c0-21.87,6.32-39.57,18.96-53.08
				c12.64-13.51,29.42-20.26,50.33-20.26c19.69,0,35.61,6.46,47.77,19.4c12.16,12.93,18.24,29.98,18.24,51.15
				c0,21.81-6.31,39.36-18.92,52.64C1604.6,679.27,1588.13,685.91,1567.8,685.91z M1568.38,659.76c11.13,0,19.91-3.92,26.35-11.77
				c6.43-7.85,9.65-18.82,9.65-32.91c0-14.6-3.14-25.96-9.41-34.07c-6.27-8.11-14.88-12.16-25.81-12.16
				c-11.13,0-20.01,4.17-26.64,12.5c-6.63,8.33-9.94,19.38-9.94,33.15c0,13.96,3.3,24.99,9.89,33.1
				C1549.06,655.7,1557.7,659.76,1568.38,659.76z"/>
			<path d="M1650.51,674.14l12.45-23.55c6.95,4.18,13.03,7.03,18.24,8.54c5.21,1.51,10.68,2.27,16.41,2.27
				c7.4,0,12.95-1.46,16.65-4.39c3.7-2.93,5.55-7,5.55-12.21c0-4.82-1.48-8.57-4.44-11.24c-2.96-2.67-8.33-4.94-16.12-6.8
				c-15.31-3.6-26.44-8.64-33.39-15.1c-6.95-6.47-10.42-15.46-10.42-26.97c0-11.64,4.49-21.54,13.46-29.68
				c8.97-8.14,21.57-12.21,37.78-12.21c6.76,0,13.4,0.77,19.93,2.32c6.53,1.54,12.79,3.83,18.77,6.85l-11.48,23.74
				c-5.28-2.96-10.28-5.1-15.01-6.42c-4.73-1.32-9.15-1.98-13.27-1.98c-6.37,0-11.34,1.27-14.91,3.81
				c-3.57,2.54-5.36,6.19-5.36,10.95c0,4.31,1.62,7.62,4.87,9.94c3.25,2.32,9.09,4.5,17.52,6.56c14.86,3.47,25.61,8.57,32.23,15.3
				c6.62,6.72,9.94,16.16,9.94,28.32c0,13-4.57,23.53-13.7,31.61c-9.14,8.07-22.36,12.11-39.66,12.11c-7.79,0-15.78-1.03-23.98-3.09
				C1664.36,680.76,1657,677.87,1650.51,674.14z"/>
			<path d="M1870.25,569.72h-39.57V683.5h-30.21V569.72h-39.37v-24.61h109.15V569.72z"/>
		</g>
	</g>
	<text transform="matrix(1 0 0 1 864.6228 757.4021)" class="st13 st14">Seu parceiro para o sucesso Online</text>
</g>
</svg>
