<?xml version="1.0" encoding="utf-8"?>
<!-- Generator: Adobe Illustrator 27.0.0, SVG Export Plug-In . SVG Version: 6.00 Build 0)  -->
<svg version="1.1" id="Camada_1" xmlns="http://www.w3.org/2000/svg" xmlns:xlink="http://www.w3.org/1999/xlink" x="0px" y="0px"
	 viewBox="0 0 2147.22 1200" style="enable-background:new 0 0 2147.22 1200;" xml:space="preserve">
<style type="text/css">
	.st0{fill:#FFFFFF;}
	.st1{fill:url(#SVGID_1_);}
	.st2{fill:url(#SVGID_00000035499144608265316270000004571427227037279142_);}
	.st3{fill:url(#SVGID_00000130629394296237718240000012248490027786359430_);}
	.st4{fill:url(#SVGID_00000094578934752302745950000000714789527265178507_);}
	.st5{fill:url(#SVGID_00000179642598257307077420000013673871946439619980_);}
	.st6{fill:url(#SVGID_00000163774486048126279520000015563560426578259381_);}
	.st7{fill:url(#SVGID_00000003089796439866042100000009350540461781249721_);}
	.st8{fill:url(#SVGID_00000170977999547483258370000010680542228622256297_);}
	.st9{fill:url(#SVGID_00000022544738637293461030000007648063897221801135_);}
	.st10{fill:url(#SVGID_00000172418377646756425170000017556728090159259009_);}
	.st11{fill:url(#SVGID_00000073716101009437904090000013373221842618154682_);}
	.st12{fill:#FCFCFC;}
	.st13{font-family:'HelveticaRounded-Bold';}
	.st14{font-size:48.92px;}
	.st15{fill:url(#SVGID_00000110447503515455200260000007072181328797216683_);}
	.st16{fill:url(#SVGID_00000095323254776164304130000008618388080179441548_);}
	.st17{fill:url(#SVGID_00000012452903813099262640000016665577017880736934_);}
	.st18{fill:url(#SVGID_00000039838287206070907950000005214000977726716802_);}
	.st19{fill:url(#SVGID_00000034064434907132649260000013665687762063303060_);}
	.st20{fill:url(#SVGID_00000002383161798093544110000010667921609689681322_);}
	.st21{fill:url(#SVGID_00000131366756332712282050000009113573077550195391_);}
	.st22{fill:url(#SVGID_00000155832598407091176140000006876245397067284905_);}
	.st23{fill:url(#SVGID_00000138554832573417129510000000836778348794230691_);}
	.st24{fill:url(#SVGID_00000036245000205502609450000003372413638255605154_);}
	.st25{fill:url(#SVGID_00000036209878086217886790000014867841881189366968_);}
	.st26{fill:url(#SVGID_00000080896029433080144290000015513719510966505404_);}
	.st27{fill:url(#SVGID_00000087414285706601141170000006791458402339048585_);}
	.st28{fill:url(#SVGID_00000033364531610548147530000002280479828696882864_);}
	.st29{fill:url(#SVGID_00000145046454901795693120000011460983042896427140_);}
	.st30{fill:url(#SVGID_00000054238409381365180550000016995838301892992160_);}
	.st31{fill:url(#SVGID_00000003080382043850480710000008854148009984896409_);}
	.st32{fill:url(#SVGID_00000158730874310983960870000005633075533278732163_);}
	.st33{fill:url(#SVGID_00000126295289009840443730000002946435007369299647_);}
	.st34{fill:url(#SVGID_00000116943285013471778530000009004512167967468196_);}
	.st35{fill:url(#SVGID_00000093152886267946861160000001084394180887202447_);}
	.st36{fill:url(#SVGID_00000062192988434334908560000007651293622244978617_);}
	.st37{fill:url(#SVGID_00000118380066802158548800000004066860319084819114_);}
	.st38{fill:url(#SVGID_00000117645312284862186730000010739084641189941923_);}
	.st39{fill:url(#SVGID_00000101061759351040819460000002897943297185555112_);}
	.st40{fill:url(#SVGID_00000035495606907865450610000005928681006641503932_);}
	.st41{fill:url(#SVGID_00000130643928058734714190000009631610021427200647_);}
	.st42{fill:url(#SVGID_00000165192699173733645060000007119744764060421050_);}
	.st43{fill:url(#SVGID_00000041997490316328727340000000096451526632037308_);}
	.st44{fill:url(#SVGID_00000152248226155528714700000002398073138815643571_);}
	.st45{fill:url(#SVGID_00000066498230560995238900000004884118948647362437_);}
	.st46{fill:url(#SVGID_00000170274680118476429160000017836703396330961303_);}
	.st47{fill:url(#SVGID_00000173855073419656776900000007144805544204889757_);}
	.st48{fill:url(#SVGID_00000136373048800377912700000004985306004974820539_);}
	.st49{fill:url(#SVGID_00000162333229797062255850000005419445170019103677_);}
	.st50{fill:url(#SVGID_00000147187645464500965910000017304266873038501804_);}
	.st51{fill:url(#SVGID_00000145748981448835454980000003053137608399523223_);}
	.st52{fill:url(#SVGID_00000093895119130751158870000005498546260212560312_);}
	.st53{fill:url(#SVGID_00000105417396023308611710000010035572849714589350_);}
	.st54{fill:url(#SVGID_00000112628934538254155550000008694308617998409614_);}
</style>
<g>
	<rect x="-27.52" y="-45.09" width="2202.26" height="1300.7"/>
	<g>
		<path class="st12" d="M692.79,501.18v-93.1c0-6.6-5.4-12-12-12h-356.8c-6.6,0-12,5.4-12,12v99.09h78.32
			c7.23,0,14.01,0.39,20.33,1.18h0.02c0.06,0.01,0.12,0.01,0.17,0.02c18.9,2.37,33.75,8.23,44.56,17.59
			c14.45,12.53,21.69,31.37,21.69,56.53c0,23.77-8.31,42.96-24.92,57.58c-4.44,3.91-9.27,7.29-14.51,10.15
			c-0.12,0.07-0.25,0.14-0.38,0.21c-14.18,4.75-30.61,6.99-49.18,6.99c-1.86,0-3.64-0.05-5.33-0.12c-0.27-0.02-0.54-0.03-0.8-0.04
			c-0.65-0.04-1.28-0.07-1.89-0.11c-0.4-0.03-0.8-0.05-1.19-0.08c-0.03,0-0.05,0-0.08-0.01c-1.56-0.1-3-0.22-4.32-0.34
			c-0.06-0.01-0.12-0.01-0.19-0.02c-0.61-0.05-1.2-0.11-1.75-0.16c-0.33-0.03-0.66-0.06-0.97-0.08c-0.06-0.01-0.12-0.01-0.18-0.01
			v5.56h-0.19v41.44l-59.21,16.2v45.24c0,6.6,5.4,12,12,12h356.8c6.6,0,12-5.4,12-12v-60.12l-58.59,16.12v-87.37h-64.25l64.27-44.65
			l-0.02-8.39V517.3L692.79,501.18z M551.11,633.52h-0.05v70.37l-61.87,17.02V517.29l61.83-17.01h0.04v80.2h76.38L551.11,633.52z"/>
		<path class="st12" d="M422.42,597.25c3.68-4.66,5.74-10.49,5.74-17.43c0-9.25-4.03-16.64-12.14-21.25
			c-5.96-3.38-14.13-5.26-24.53-5.26c-10.47,0-17.02,0.65-20.29,1.31v54.99c3.6,0.66,8.19,0.98,16.04,0.98
			C402.84,610.59,415.5,606,422.42,597.25z"/>
	</g>
	<g>
		<g>
			<path class="st12" d="M726.4,632.95v45.74h-30.11V540.3h48.06c17.31,0,30.29,3.75,38.94,11.24c8.65,7.5,12.98,18.77,12.98,33.82
				c0,14.22-4.97,25.7-14.91,34.45c-9.94,8.75-23.21,13.13-39.81,13.13H726.4z M726.4,563.66v46.23h12.55
				c8.49,0,14.88-1.94,19.16-5.84c4.28-3.89,6.42-9.73,6.42-17.52c0-7.65-2.11-13.38-6.32-17.18c-4.21-3.79-10.6-5.69-19.16-5.69
				H726.4z"/>
			<path class="st12" d="M901.17,678.69h-82.32V540.3h79.13v24.61h-49.02v31.85h45.65v24.61h-45.65v32.81h52.21V678.69z"/>
			<path class="st12" d="M1021.6,564.91h-39.57v113.78h-30.21V564.91h-39.37V540.3h109.15V564.91z"/>
			<path class="st12" d="M1153.91,678.69h-34.26l-18.72-34.45c-3.03-5.6-6.05-9.81-9.07-12.64c-3.02-2.83-6.5-4.41-10.42-4.73h-8.88
				v51.82h-30.11V540.3h48.73c16.53,0,28.98,3.25,37.35,9.75c8.36,6.5,12.55,16.28,12.55,29.34c0,9.2-2.69,17.13-8.06,23.79
				c-5.37,6.66-12.72,11.6-22.05,14.81v0.39c3.99,1.29,7.74,3.91,11.24,7.86c3.51,3.96,6.48,8.16,8.93,12.59L1153.91,678.69z
				 M1072.56,563.08v40.82h14.09c6.82,0,12.3-2.06,16.45-6.18c4.15-4.12,6.22-9.23,6.22-15.34c0-6.37-1.83-11.18-5.5-14.43
				c-3.67-3.25-9.2-4.87-16.6-4.87H1072.56z"/>
			<path class="st12" d="M1228.51,681.1c-19.75,0-35.85-6.45-48.3-19.35c-12.45-12.9-18.67-29.71-18.67-50.42
				c0-21.87,6.32-39.57,18.96-53.08c12.64-13.51,29.42-20.26,50.33-20.26c19.69,0,35.61,6.46,47.77,19.4
				c12.16,12.93,18.24,29.98,18.24,51.15c0,21.81-6.31,39.36-18.92,52.64C1265.31,674.46,1248.84,681.1,1228.51,681.1z
				 M1229.09,654.95c11.13,0,19.91-3.92,26.35-11.77c6.43-7.85,9.65-18.82,9.65-32.91c0-14.6-3.14-25.96-9.41-34.07
				c-6.27-8.11-14.88-12.16-25.81-12.16c-11.13,0-20.01,4.17-26.64,12.5c-6.63,8.33-9.94,19.38-9.94,33.15
				c0,13.96,3.3,24.99,9.89,33.1C1209.77,650.9,1218.41,654.95,1229.09,654.95z"/>
			<path class="st12" d="M1440.62,678.69h-30.21v-56.84h-58.29v56.84h-30.11V540.3h30.11v55.59h58.29V540.3h30.21V678.69z"/>
			<path class="st12" d="M1532.78,681.1c-19.75,0-35.85-6.45-48.3-19.35c-12.45-12.9-18.67-29.71-18.67-50.42
				c0-21.87,6.32-39.57,18.96-53.08c12.64-13.51,29.42-20.26,50.33-20.26c19.69,0,35.61,6.46,47.77,19.4
				c12.16,12.93,18.24,29.98,18.24,51.15c0,21.81-6.31,39.36-18.92,52.64C1569.58,674.46,1553.11,681.1,1532.78,681.1z
				 M1533.36,654.95c11.13,0,19.91-3.92,26.35-11.77c6.43-7.85,9.65-18.82,9.65-32.91c0-14.6-3.14-25.96-9.41-34.07
				c-6.27-8.11-14.88-12.16-25.81-12.16c-11.13,0-20.01,4.17-26.64,12.5c-6.63,8.33-9.94,19.38-9.94,33.15
				c0,13.96,3.3,24.99,9.89,33.1C1514.05,650.9,1522.68,654.95,1533.36,654.95z"/>
			<path class="st12" d="M1615.49,669.33l12.45-23.55c6.95,4.18,13.03,7.03,18.24,8.54c5.21,1.51,10.68,2.27,16.4,2.27
				c7.4,0,12.95-1.46,16.65-4.39c3.7-2.93,5.55-7,5.55-12.21c0-4.82-1.48-8.57-4.44-11.24c-2.96-2.67-8.33-4.94-16.12-6.8
				c-15.31-3.6-26.44-8.64-33.39-15.1s-10.42-15.46-10.42-26.97c0-11.64,4.49-21.54,13.46-29.68c8.97-8.14,21.57-12.21,37.78-12.21
				c6.76,0,13.4,0.77,19.93,2.32c6.53,1.54,12.79,3.83,18.77,6.85l-11.48,23.74c-5.28-2.96-10.28-5.1-15.01-6.42
				c-4.73-1.32-9.15-1.98-13.27-1.98c-6.37,0-11.34,1.27-14.91,3.81c-3.57,2.54-5.36,6.19-5.36,10.95c0,4.31,1.62,7.62,4.87,9.94
				c3.25,2.32,9.09,4.5,17.52,6.56c14.86,3.47,25.61,8.57,32.23,15.3c6.62,6.72,9.94,16.16,9.94,28.32c0,13-4.57,23.53-13.7,31.61
				c-9.14,8.07-22.36,12.11-39.66,12.11c-7.79,0-15.78-1.03-23.98-3.09C1629.34,675.96,1621.99,673.06,1615.49,669.33z"/>
			<path class="st12" d="M1835.23,564.91h-39.57v113.78h-30.21V564.91h-39.37V540.3h109.15V564.91z"/>
		</g>
	</g>
	<text transform="matrix(1 0 0 1 829.6056 752.5954)" class="st12 st13 st14">Seu parceiro para o sucesso Online</text>
</g>
</svg>
