<?xml version="1.0" encoding="utf-8"?>
<!-- Generator: Adobe Illustrator 27.0.0, SVG Export Plug-In . SVG Version: 6.00 Build 0)  -->
<svg version="1.1" id="Camada_1" xmlns="http://www.w3.org/2000/svg" xmlns:xlink="http://www.w3.org/1999/xlink" x="0px" y="0px"
	 viewBox="0 0 2147.22 1200" style="enable-background:new 0 0 2147.22 1200;" xml:space="preserve">
<style type="text/css">
	.st0{fill:#FFFFFF;}
	.st1{fill:url(#SVGID_1_);}
	.st2{fill:url(#SVGID_00000173878804540650540200000017046441073262345347_);}
	.st3{fill:url(#SVGID_00000114790173108543175320000014365479533601922729_);}
	.st4{fill:url(#SVGID_00000011739957202908311220000009697836725840661401_);}
	.st5{fill:url(#SVGID_00000140722162197249785670000013879952130379764409_);}
	.st6{fill:url(#SVGID_00000138561763789655086180000014330685812780794275_);}
	.st7{fill:url(#SVGID_00000053517546329528157970000018120175366496578461_);}
	.st8{fill:url(#SVGID_00000034793409192926934730000011072274079352015520_);}
	.st9{fill:url(#SVGID_00000056388321188842858210000005681552643765510053_);}
	.st10{fill:url(#SVGID_00000114774119023224968310000003514919623572380344_);}
	.st11{fill:url(#SVGID_00000147909538493437145420000013787923690133521324_);}
	.st12{fill:#FCFCFC;}
	.st13{fill:url(#SVGID_00000141447042394363991270000001405497027526012348_);}
	.st14{fill:url(#SVGID_00000175300169616187912860000010614038058533234095_);}
	.st15{fill:url(#SVGID_00000118399299344168118070000001374574602846196611_);}
	.st16{fill:url(#SVGID_00000176735116937535403170000009633156374112836258_);}
	.st17{fill:url(#SVGID_00000091701681410907545710000013255579338075965063_);}
	.st18{fill:url(#SVGID_00000000204238331013633520000003472827989707892375_);}
	.st19{fill:url(#SVGID_00000062193816162441427740000006837612339213730226_);}
	.st20{fill:url(#SVGID_00000101070839948927157110000009441917620746192011_);}
	.st21{fill:url(#SVGID_00000048497262429648612100000018235957127160533392_);}
	.st22{fill:url(#SVGID_00000078756140998641667030000001952122084742799000_);}
	.st23{fill:url(#SVGID_00000081649641200271925010000016511469459821061250_);}
	.st24{fill:url(#SVGID_00000033333152689456377350000009511224088152624001_);}
	.st25{fill:url(#SVGID_00000039136135648473007170000015259087966310709931_);}
	.st26{fill:url(#SVGID_00000049189930927030480130000012886038375172042667_);}
	.st27{fill:url(#SVGID_00000065044010388749059230000011550908770062054018_);}
	.st28{fill:url(#SVGID_00000101783642915280963050000012928623727882094005_);}
	.st29{fill:url(#SVGID_00000092439778911438828630000013070443066174123148_);}
	.st30{fill:url(#SVGID_00000066498530503099973100000005686828838179435685_);}
	.st31{fill:url(#SVGID_00000004517127201884727130000004832699580844628875_);}
	.st32{fill:url(#SVGID_00000121998080349973302810000009191966607783547802_);}
	.st33{fill:url(#SVGID_00000031190135423038113590000007342852941097175428_);}
	.st34{fill:url(#SVGID_00000121961954811248489990000005032578309831048836_);}
	.st35{fill:url(#SVGID_00000068663049316508233550000004462463661902896822_);}
	.st36{fill:url(#SVGID_00000099658033958609132430000017697631181330110093_);}
	.st37{fill:url(#SVGID_00000123440455546325567190000006226716026271451550_);}
	.st38{fill:url(#SVGID_00000038383702013894631700000000715065384805504420_);}
	.st39{fill:url(#SVGID_00000089536837117020204530000001908084795208291508_);}
	.st40{fill:url(#SVGID_00000160901347929877937190000006550506235181356678_);}
	.st41{fill:url(#SVGID_00000047744879677503738320000011853358366100118967_);}
	.st42{fill:url(#SVGID_00000075857688930354540970000017454975382107046548_);}
	.st43{fill:url(#SVGID_00000044896019323846542960000012319289506449207426_);}
	.st44{fill:url(#SVGID_00000083056072364935358830000015878825776953155255_);}
	.st45{fill:url(#SVGID_00000002372644224312968620000003808923788626118039_);}
	.st46{fill:url(#SVGID_00000143607639973416352460000001809032557891981467_);}
	.st47{fill:url(#SVGID_00000137844147774319187780000016195602925871177358_);}
	.st48{fill:url(#SVGID_00000177483300772038206790000007082079438408759732_);}
	.st49{fill:url(#SVGID_00000092441682786117902160000014851311379664476813_);}
	.st50{fill:url(#SVGID_00000047041802844935605900000005418711284906188433_);}
	.st51{fill:url(#SVGID_00000008867399856003049810000001283775214311461044_);}
	.st52{fill:url(#SVGID_00000096775683794777874710000014268331123357488019_);}
</style>
<g>
	<rect x="-27.52" y="-17" width="2202.26" height="1236.83"/>
	<g>
		<linearGradient id="SVGID_1_" gradientUnits="userSpaceOnUse" x1="311.9887" y1="608.7053" x2="692.7888" y2="608.7053">
			<stop  offset="0" style="stop-color:#00629C"/>
			<stop  offset="1" style="stop-color:#123673"/>
		</linearGradient>
		<path class="st1" d="M692.79,523.4v-93.1c0-6.6-5.4-12-12-12h-356.8c-6.6,0-12,5.4-12,12v99.09h78.32
			c7.23,0,14.01,0.39,20.33,1.18h0.02c0.06,0.01,0.12,0.01,0.17,0.02c18.9,2.37,33.75,8.23,44.56,17.59
			c14.45,12.53,21.69,31.37,21.69,56.53c0,23.77-8.31,42.96-24.92,57.58c-4.44,3.91-9.27,7.29-14.51,10.15
			c-0.12,0.07-0.25,0.14-0.38,0.21c-14.18,4.75-30.61,6.99-49.18,6.99c-1.86,0-3.64-0.05-5.33-0.12c-0.27-0.02-0.54-0.03-0.8-0.04
			c-0.65-0.04-1.28-0.07-1.89-0.11c-0.4-0.03-0.8-0.05-1.19-0.08c-0.03,0-0.05,0-0.08-0.01c-1.56-0.1-3-0.22-4.32-0.34
			c-0.06-0.01-0.12-0.01-0.19-0.02c-0.61-0.05-1.2-0.11-1.75-0.16c-0.33-0.03-0.66-0.06-0.97-0.08c-0.06-0.01-0.12-0.01-0.18-0.01
			v5.56h-0.19v41.44l-59.21,16.2v45.24c0,6.6,5.4,12,12,12h356.8c6.6,0,12-5.4,12-12v-60.12l-58.59,16.12v-87.37h-64.25l64.27-44.65
			l-0.02-8.39v-63.18L692.79,523.4z M551.11,655.74h-0.05v70.37l-61.87,17.02V539.51l61.83-17.01h0.04v80.2h76.38L551.11,655.74z"/>
		
			<linearGradient id="SVGID_00000046337451674314927720000012026342238841224112_" gradientUnits="userSpaceOnUse" x1="371.1987" y1="604.1702" x2="428.1588" y2="604.1702">
			<stop  offset="0" style="stop-color:#00629C"/>
			<stop  offset="1" style="stop-color:#123673"/>
		</linearGradient>
		<path style="fill:url(#SVGID_00000046337451674314927720000012026342238841224112_);" d="M422.42,619.47
			c3.68-4.66,5.74-10.49,5.74-17.43c0-9.25-4.03-16.64-12.14-21.25c-5.96-3.38-14.13-5.26-24.53-5.26
			c-10.47,0-17.02,0.65-20.29,1.31v54.99c3.6,0.66,8.19,0.98,16.04,0.98C402.84,632.81,415.5,628.22,422.42,619.47z"/>
	</g>
	<g>
		<g>
			
				<linearGradient id="SVGID_00000172439033583335705370000009434165830244950439_" gradientUnits="userSpaceOnUse" x1="696.2872" y1="631.7131" x2="796.2657" y2="631.7131">
				<stop  offset="0" style="stop-color:#00629C"/>
				<stop  offset="1" style="stop-color:#123673"/>
			</linearGradient>
			<path style="fill:url(#SVGID_00000172439033583335705370000009434165830244950439_);" d="M726.4,655.16v45.74h-30.11V562.52
				h48.06c17.31,0,30.29,3.75,38.94,11.24c8.65,7.5,12.98,18.77,12.98,33.82c0,14.22-4.97,25.7-14.91,34.45
				c-9.94,8.75-23.21,13.13-39.81,13.13H726.4z M726.4,585.87v46.23h12.55c8.49,0,14.88-1.94,19.16-5.84
				c4.28-3.89,6.42-9.73,6.42-17.52c0-7.65-2.11-13.38-6.32-17.18c-4.21-3.79-10.6-5.69-19.16-5.69H726.4z"/>
			
				<linearGradient id="SVGID_00000149383352437868394290000017897776025536151969_" gradientUnits="userSpaceOnUse" x1="818.8477" y1="631.7131" x2="901.1661" y2="631.7131">
				<stop  offset="0" style="stop-color:#00629C"/>
				<stop  offset="1" style="stop-color:#123673"/>
			</linearGradient>
			<path style="fill:url(#SVGID_00000149383352437868394290000017897776025536151969_);" d="M901.17,700.91h-82.32V562.52h79.13
				v24.61h-49.02v31.85h45.65v24.61h-45.65v32.81h52.21V700.91z"/>
			
				<linearGradient id="SVGID_00000156559478878150003980000009715161426808734902_" gradientUnits="userSpaceOnUse" x1="912.4571" y1="631.7131" x2="1021.6033" y2="631.7131">
				<stop  offset="0" style="stop-color:#00629C"/>
				<stop  offset="1" style="stop-color:#123673"/>
			</linearGradient>
			<path style="fill:url(#SVGID_00000156559478878150003980000009715161426808734902_);" d="M1021.6,587.13h-39.57v113.78h-30.21
				V587.13h-39.37v-24.61h109.15V587.13z"/>
			
				<linearGradient id="SVGID_00000142893664056851239020000004024732260424467377_" gradientUnits="userSpaceOnUse" x1="1042.4475" y1="631.7131" x2="1153.9098" y2="631.7131">
				<stop  offset="0" style="stop-color:#00629C"/>
				<stop  offset="1" style="stop-color:#123673"/>
			</linearGradient>
			<path style="fill:url(#SVGID_00000142893664056851239020000004024732260424467377_);" d="M1153.91,700.91h-34.26l-18.72-34.45
				c-3.03-5.6-6.05-9.81-9.07-12.64c-3.02-2.83-6.5-4.41-10.42-4.73h-8.88v51.82h-30.11V562.52h48.73c16.53,0,28.98,3.25,37.35,9.75
				c8.36,6.5,12.55,16.28,12.55,29.34c0,9.2-2.69,17.13-8.06,23.79c-5.37,6.66-12.72,11.6-22.05,14.81v0.39
				c3.99,1.29,7.74,3.91,11.24,7.86c3.51,3.96,6.48,8.16,8.93,12.59L1153.91,700.91z M1072.56,585.29v40.82h14.09
				c6.82,0,12.3-2.06,16.45-6.18c4.15-4.12,6.22-9.23,6.22-15.34c0-6.37-1.83-11.18-5.5-14.43c-3.67-3.25-9.2-4.87-16.6-4.87
				H1072.56z"/>
			
				<linearGradient id="SVGID_00000134230019269681366410000003813074535173474464_" gradientUnits="userSpaceOnUse" x1="1161.5341" y1="631.7614" x2="1296.8319" y2="631.7614">
				<stop  offset="0" style="stop-color:#00629C"/>
				<stop  offset="1" style="stop-color:#123673"/>
			</linearGradient>
			<path style="fill:url(#SVGID_00000134230019269681366410000003813074535173474464_);" d="M1228.51,703.32
				c-19.75,0-35.85-6.45-48.3-19.35c-12.45-12.9-18.67-29.71-18.67-50.42c0-21.87,6.32-39.57,18.96-53.08
				c12.64-13.51,29.42-20.26,50.33-20.26c19.69,0,35.61,6.46,47.77,19.4c12.16,12.93,18.24,29.98,18.24,51.15
				c0,21.81-6.31,39.36-18.92,52.64C1265.31,696.68,1248.84,703.32,1228.51,703.32z M1229.09,677.17c11.13,0,19.91-3.92,26.35-11.77
				c6.43-7.85,9.65-18.82,9.65-32.91c0-14.6-3.14-25.96-9.41-34.07c-6.27-8.11-14.88-12.16-25.81-12.16
				c-11.13,0-20.01,4.17-26.64,12.5c-6.63,8.33-9.94,19.38-9.94,33.15c0,13.96,3.3,24.99,9.89,33.1
				C1209.77,673.11,1218.41,677.17,1229.09,677.17z"/>
			
				<linearGradient id="SVGID_00000077325242134228814540000004965834700061386121_" gradientUnits="userSpaceOnUse" x1="1322.0192" y1="631.7131" x2="1440.6229" y2="631.7131">
				<stop  offset="0" style="stop-color:#00629C"/>
				<stop  offset="1" style="stop-color:#123673"/>
			</linearGradient>
			<path style="fill:url(#SVGID_00000077325242134228814540000004965834700061386121_);" d="M1440.62,700.91h-30.21v-56.84h-58.29
				v56.84h-30.11V562.52h30.11v55.59h58.29v-55.59h30.21V700.91z"/>
			
				<linearGradient id="SVGID_00000096034893860582846560000006645119977677897616_" gradientUnits="userSpaceOnUse" x1="1465.8102" y1="631.7614" x2="1601.1096" y2="631.7614">
				<stop  offset="0" style="stop-color:#00629C"/>
				<stop  offset="1" style="stop-color:#123673"/>
			</linearGradient>
			<path style="fill:url(#SVGID_00000096034893860582846560000006645119977677897616_);" d="M1532.78,703.32
				c-19.75,0-35.85-6.45-48.3-19.35c-12.45-12.9-18.67-29.71-18.67-50.42c0-21.87,6.32-39.57,18.96-53.08
				c12.64-13.51,29.42-20.26,50.33-20.26c19.69,0,35.61,6.46,47.77,19.4c12.16,12.93,18.24,29.98,18.24,51.15
				c0,21.81-6.31,39.36-18.92,52.64C1569.58,696.68,1553.11,703.32,1532.78,703.32z M1533.36,677.17c11.13,0,19.91-3.92,26.35-11.77
				c6.43-7.85,9.65-18.82,9.65-32.91c0-14.6-3.14-25.96-9.41-34.07c-6.27-8.11-14.88-12.16-25.81-12.16
				c-11.13,0-20.01,4.17-26.64,12.5c-6.63,8.33-9.94,19.38-9.94,33.15c0,13.96,3.3,24.99,9.89,33.1
				C1514.05,673.11,1522.68,677.17,1533.36,677.17z"/>
			
				<linearGradient id="SVGID_00000052065418560860919750000004303459721629353382_" gradientUnits="userSpaceOnUse" x1="1615.4891" y1="631.7614" x2="1714.8885" y2="631.7614">
				<stop  offset="0" style="stop-color:#00629C"/>
				<stop  offset="1" style="stop-color:#123673"/>
			</linearGradient>
			<path style="fill:url(#SVGID_00000052065418560860919750000004303459721629353382_);" d="M1615.49,691.55l12.45-23.55
				c6.95,4.18,13.03,7.03,18.24,8.54c5.21,1.51,10.68,2.27,16.4,2.27c7.4,0,12.95-1.46,16.65-4.39c3.7-2.93,5.55-7,5.55-12.21
				c0-4.82-1.48-8.57-4.44-11.24c-2.96-2.67-8.33-4.94-16.12-6.8c-15.31-3.6-26.44-8.64-33.39-15.1s-10.42-15.46-10.42-26.97
				c0-11.64,4.49-21.54,13.46-29.68c8.97-8.14,21.57-12.21,37.78-12.21c6.76,0,13.4,0.77,19.93,2.32
				c6.53,1.54,12.79,3.83,18.77,6.85l-11.48,23.74c-5.28-2.96-10.28-5.1-15.01-6.42c-4.73-1.32-9.15-1.98-13.27-1.98
				c-6.37,0-11.34,1.27-14.91,3.81c-3.57,2.54-5.36,6.19-5.36,10.95c0,4.31,1.62,7.62,4.87,9.94c3.25,2.32,9.09,4.5,17.52,6.56
				c14.86,3.47,25.61,8.57,32.23,15.3c6.62,6.72,9.94,16.16,9.94,28.32c0,13-4.57,23.53-13.7,31.61
				c-9.14,8.07-22.36,12.11-39.66,12.11c-7.79,0-15.78-1.03-23.98-3.09C1629.34,698.17,1621.99,695.28,1615.49,691.55z"/>
			
				<linearGradient id="SVGID_00000111180746133708779960000017256255449737075601_" gradientUnits="userSpaceOnUse" x1="1726.0818" y1="631.7131" x2="1835.2286" y2="631.7131">
				<stop  offset="0" style="stop-color:#00629C"/>
				<stop  offset="1" style="stop-color:#123673"/>
			</linearGradient>
			<path style="fill:url(#SVGID_00000111180746133708779960000017256255449737075601_);" d="M1835.23,587.13h-39.57v113.78h-30.21
				V587.13h-39.37v-24.61h109.15V587.13z"/>
		</g>
	</g>
	<g>
		
			<linearGradient id="SVGID_00000160875331079390155480000009573423468904283797_" gradientUnits="userSpaceOnUse" x1="831.7574" y1="751.2019" x2="860.9625" y2="751.2019">
			<stop  offset="0" style="stop-color:#00629C"/>
			<stop  offset="1" style="stop-color:#123673"/>
		</linearGradient>
		<path style="fill:url(#SVGID_00000160875331079390155480000009573423468904283797_);" d="M851.77,748.41
			c7.34,1.66,9.2,6.02,9.2,10.13c0,6.36-4.79,11.11-14.48,11.11c-10.17,0-14.73-5.09-14.73-8.9c0-1.96,1.42-3.33,3.38-3.33
			c4.35,0,3.23,6.36,11.35,6.36c4.16,0,6.46-2.3,6.46-4.65c0-1.42-0.68-2.98-3.42-3.67l-9.05-2.3c-7.29-1.86-8.61-5.87-8.61-9.64
			c0-7.83,7.24-10.76,14.04-10.76c6.26,0,13.65,3.52,13.65,8.22c0,2-1.71,3.18-3.67,3.18c-3.72,0-3.03-5.23-10.52-5.23
			c-3.72,0-5.77,1.71-5.77,4.16c0,2.45,2.94,3.23,5.48,3.82L851.77,748.41z"/>
		
			<linearGradient id="SVGID_00000041281011782667490340000014911361670887509653_" gradientUnits="userSpaceOnUse" x1="864.8766" y1="756.0203" x2="891.2936" y2="756.0203">
			<stop  offset="0" style="stop-color:#00629C"/>
			<stop  offset="1" style="stop-color:#123673"/>
		</linearGradient>
		<path style="fill:url(#SVGID_00000041281011782667490340000014911361670887509653_);" d="M872.02,757.37
			c0,3.77,2.45,6.51,6.6,6.51c5.38,0,5.38-3.52,8.27-3.52c1.71,0,2.94,1.47,2.94,2.79c0,4.3-6.9,6.31-11.2,6.31
			c-9.98,0-13.75-6.75-13.75-12.96c0-8.32,5.04-13.89,13.5-13.89c8.22,0,12.92,5.82,12.92,11.69c0,2.45-0.73,3.08-3.13,3.08H872.02z
			 M884.54,753.26c-0.39-3.28-2.84-5.67-6.02-5.67c-3.57,0-5.72,2.2-6.51,5.67H884.54z"/>
		
			<linearGradient id="SVGID_00000165953094768527642340000003150229607871304583_" gradientUnits="userSpaceOnUse" x1="895.8922" y1="756.0203" x2="920.1071" y2="756.0203">
			<stop  offset="0" style="stop-color:#00629C"/>
			<stop  offset="1" style="stop-color:#123673"/>
		</linearGradient>
		<path style="fill:url(#SVGID_00000165953094768527642340000003150229607871304583_);" d="M920.11,765.88
			c0,2.15-0.98,3.57-3.23,3.57s-3.23-1.42-3.23-3.57v-0.93h-0.1c-2.01,2.64-4.6,4.5-8.66,4.5c-4.3,0-9-2.15-9-9.39v-13.89
			c0-1.91,0.78-3.57,3.57-3.57s3.57,1.66,3.57,3.57v12.47c0,2.89,1.42,4.94,4.5,4.94c2.5,0,5.43-2.05,5.43-5.63v-11.79
			c0-1.91,0.78-3.57,3.57-3.57c2.79,0,3.57,1.66,3.57,3.57V765.88z"/>
		
			<linearGradient id="SVGID_00000074429802166328307520000017727085819724944829_" gradientUnits="userSpaceOnUse" x1="940.7516" y1="760.7654" x2="966.0426" y2="760.7654">
			<stop  offset="0" style="stop-color:#00629C"/>
			<stop  offset="1" style="stop-color:#123673"/>
		</linearGradient>
		<path style="fill:url(#SVGID_00000074429802166328307520000017727085819724944829_);" d="M940.75,745.97
			c0-2.2,1.03-3.38,3.23-3.38c2.1,0,3.23,1.17,3.23,3.38v1.12h0.1c1.17-3.03,4.06-4.5,7.53-4.5c5.97,0,11.2,4.35,11.2,13.6
			c0,6.85-3.47,13.26-11.01,13.26c-3.28,0-5.72-1.32-7.04-3.62h-0.1v9.54c0,2.35-1.42,3.57-3.57,3.57s-3.57-1.22-3.57-3.57V745.97z
			 M953.23,748.17c-4.16,0-5.72,3.72-5.72,7.78c0,3.67,1.37,7.97,5.72,7.93c4.55,0,5.67-4.6,5.67-7.93
			C958.9,751.74,957.04,748.27,953.23,748.17z"/>
		
			<linearGradient id="SVGID_00000139979287313065044110000007243717579623503508_" gradientUnits="userSpaceOnUse" x1="969.8102" y1="756.0203" x2="995.1012" y2="756.0203">
			<stop  offset="0" style="stop-color:#00629C"/>
			<stop  offset="1" style="stop-color:#123673"/>
		</linearGradient>
		<path style="fill:url(#SVGID_00000139979287313065044110000007243717579623503508_);" d="M994.37,761.92
			c0,2.98,0.73,3.67,0.73,4.79c0,1.61-1.52,2.74-3.23,2.74c-3.08,0-4.11-1.96-4.21-4.16c-2.79,3.08-6.02,4.16-9.78,4.16
			c-4.06,0-8.07-2.79-8.07-7.29c0-5.92,4.5-7.58,9.98-8.22l4.35-0.49c1.71-0.2,3.08-0.59,3.08-2.64c0-2.05-2.1-2.94-4.5-2.94
			c-5.28,0-5.43,3.91-8.27,3.91c-1.81,0-3.03-1.27-3.03-2.74c0-2.84,4.01-6.46,11.35-6.46c6.85,0,11.59,2.2,11.59,7.34V761.92z
			 M987.22,756.78c-0.78,0.73-2.25,0.98-3.08,1.12l-2.59,0.39c-2.98,0.44-4.6,1.37-4.6,3.52c0,1.61,1.52,2.93,3.96,2.93
			c3.91,0,6.31-2.54,6.31-5.19V756.78z"/>
		
			<linearGradient id="SVGID_00000058568673695317331970000011009443039664217786_" gradientUnits="userSpaceOnUse" x1="1000.9215" y1="756.0203" x2="1017.3102" y2="756.0203">
			<stop  offset="0" style="stop-color:#00629C"/>
			<stop  offset="1" style="stop-color:#123673"/>
		</linearGradient>
		<path style="fill:url(#SVGID_00000058568673695317331970000011009443039664217786_);" d="M1000.92,745.92
			c0-2.15,1.42-3.33,3.23-3.33s3.23,1.17,3.23,3.33v2.74h0.1c0.83-2.98,2.45-6.07,5.92-6.07c2.25,0,3.91,1.47,3.91,3.47
			c0,2.64-1.76,3.57-3.52,3.57h-1.27c-2.89,0-4.45,2.01-4.45,7.92v8.32c0,1.91-0.78,3.57-3.57,3.57c-2.79,0-3.57-1.66-3.57-3.57
			V745.92z"/>
		
			<linearGradient id="SVGID_00000101082339031243585050000013424334675052996497_" gradientUnits="userSpaceOnUse" x1="1018.484" y1="756.0203" x2="1042.3082" y2="756.0203">
			<stop  offset="0" style="stop-color:#00629C"/>
			<stop  offset="1" style="stop-color:#123673"/>
		</linearGradient>
		<path style="fill:url(#SVGID_00000101082339031243585050000013424334675052996497_);" d="M1031.89,742.59
			c5.97,0,10.42,3.38,10.42,6.7c0,2.05-1.52,3.08-3.33,3.08c-3.38,0-2.15-4.21-7.29-4.21c-2.79,0-6.07,1.91-6.07,8.37
			c0,4.45,2.1,7.34,6.02,7.34c4.99,0,3.91-4.6,7.68-4.6c1.81,0,2.98,1.32,2.98,2.74c0,3.13-3.52,7.44-10.86,7.44
			c-8.81,0-12.96-5.43-12.96-12.92C1018.48,748.32,1023.13,742.59,1031.89,742.59z"/>
		
			<linearGradient id="SVGID_00000112601883898845829630000016248340937415268281_" gradientUnits="userSpaceOnUse" x1="1045.0475" y1="756.0203" x2="1071.4645" y2="756.0203">
			<stop  offset="0" style="stop-color:#00629C"/>
			<stop  offset="1" style="stop-color:#123673"/>
		</linearGradient>
		<path style="fill:url(#SVGID_00000112601883898845829630000016248340937415268281_);" d="M1052.19,757.37
			c0,3.77,2.45,6.51,6.6,6.51c5.38,0,5.38-3.52,8.27-3.52c1.71,0,2.93,1.47,2.93,2.79c0,4.3-6.9,6.31-11.2,6.31
			c-9.98,0-13.75-6.75-13.75-12.96c0-8.32,5.04-13.89,13.5-13.89c8.22,0,12.92,5.82,12.92,11.69c0,2.45-0.73,3.08-3.13,3.08H1052.19
			z M1064.71,753.26c-0.39-3.28-2.84-5.67-6.02-5.67c-3.57,0-5.72,2.2-6.51,5.67H1064.71z"/>
		
			<linearGradient id="SVGID_00000049182332346767905580000005046599368682607803_" gradientUnits="userSpaceOnUse" x1="1076.3073" y1="751.1038" x2="1083.7428" y2="751.1038">
			<stop  offset="0" style="stop-color:#00629C"/>
			<stop  offset="1" style="stop-color:#123673"/>
		</linearGradient>
		<path style="fill:url(#SVGID_00000049182332346767905580000005046599368682607803_);" d="M1080.03,732.76
			c2.05,0,3.72,1.66,3.72,3.72s-1.66,3.72-3.72,3.72s-3.72-1.66-3.72-3.72S1077.97,732.76,1080.03,732.76z M1076.45,746.16
			c0-1.91,0.78-3.57,3.57-3.57s3.57,1.66,3.57,3.57v19.71c0,1.91-0.78,3.57-3.57,3.57s-3.57-1.66-3.57-3.57V746.16z"/>
		
			<linearGradient id="SVGID_00000137837429245187122180000002971066058449797282_" gradientUnits="userSpaceOnUse" x1="1090.0533" y1="756.0203" x2="1106.441" y2="756.0203">
			<stop  offset="0" style="stop-color:#00629C"/>
			<stop  offset="1" style="stop-color:#123673"/>
		</linearGradient>
		<path style="fill:url(#SVGID_00000137837429245187122180000002971066058449797282_);" d="M1090.05,745.92
			c0-2.15,1.42-3.33,3.23-3.33c1.81,0,3.23,1.17,3.23,3.33v2.74h0.1c0.83-2.98,2.45-6.07,5.92-6.07c2.25,0,3.91,1.47,3.91,3.47
			c0,2.64-1.76,3.57-3.52,3.57h-1.27c-2.89,0-4.45,2.01-4.45,7.92v8.32c0,1.91-0.78,3.57-3.57,3.57s-3.57-1.66-3.57-3.57V745.92z"/>
		
			<linearGradient id="SVGID_00000163061439706766883740000003556643757611112343_" gradientUnits="userSpaceOnUse" x1="1107.9098" y1="756.0203" x2="1134.3258" y2="756.0203">
			<stop  offset="0" style="stop-color:#00629C"/>
			<stop  offset="1" style="stop-color:#123673"/>
		</linearGradient>
		<path style="fill:url(#SVGID_00000163061439706766883740000003556643757611112343_);" d="M1121.12,742.59
			c8.61,0,13.21,5.87,13.21,13.4c0,7.14-3.47,13.45-13.21,13.45s-13.21-6.31-13.21-13.45
			C1107.91,748.46,1112.51,742.59,1121.12,742.59z M1121.12,764.17c4.26,0,6.07-3.82,6.07-8.17c0-4.65-1.91-8.12-6.07-8.12
			s-6.07,3.47-6.07,8.12C1115.05,760.35,1116.86,764.17,1121.12,764.17z"/>
		
			<linearGradient id="SVGID_00000068667723617015560570000015029980438838665144_" gradientUnits="userSpaceOnUse" x1="1153.8942" y1="760.7654" x2="1179.1862" y2="760.7654">
			<stop  offset="0" style="stop-color:#00629C"/>
			<stop  offset="1" style="stop-color:#123673"/>
		</linearGradient>
		<path style="fill:url(#SVGID_00000068667723617015560570000015029980438838665144_);" d="M1153.89,745.97
			c0-2.2,1.03-3.38,3.23-3.38c2.1,0,3.23,1.17,3.23,3.38v1.12h0.1c1.17-3.03,4.06-4.5,7.53-4.5c5.97,0,11.2,4.35,11.2,13.6
			c0,6.85-3.47,13.26-11.01,13.26c-3.28,0-5.72-1.32-7.04-3.62h-0.1v9.54c0,2.35-1.42,3.57-3.57,3.57c-2.15,0-3.57-1.22-3.57-3.57
			V745.97z M1166.37,748.17c-4.16,0-5.72,3.72-5.72,7.78c0,3.67,1.37,7.97,5.72,7.93c4.55,0,5.67-4.6,5.67-7.93
			C1172.04,751.74,1170.19,748.27,1166.37,748.17z"/>
		
			<linearGradient id="SVGID_00000032625482714809718640000008270143728635620745_" gradientUnits="userSpaceOnUse" x1="1182.9528" y1="756.0203" x2="1208.2438" y2="756.0203">
			<stop  offset="0" style="stop-color:#00629C"/>
			<stop  offset="1" style="stop-color:#123673"/>
		</linearGradient>
		<path style="fill:url(#SVGID_00000032625482714809718640000008270143728635620745_);" d="M1207.51,761.92
			c0,2.98,0.73,3.67,0.73,4.79c0,1.61-1.52,2.74-3.23,2.74c-3.08,0-4.11-1.96-4.21-4.16c-2.79,3.08-6.02,4.16-9.78,4.16
			c-4.06,0-8.07-2.79-8.07-7.29c0-5.92,4.5-7.58,9.98-8.22l4.35-0.49c1.71-0.2,3.08-0.59,3.08-2.64c0-2.05-2.1-2.94-4.5-2.94
			c-5.28,0-5.43,3.91-8.27,3.91c-1.81,0-3.03-1.27-3.03-2.74c0-2.84,4.01-6.46,11.35-6.46c6.85,0,11.59,2.2,11.59,7.34V761.92z
			 M1200.37,756.78c-0.78,0.73-2.25,0.98-3.08,1.12l-2.59,0.39c-2.98,0.44-4.6,1.37-4.6,3.52c0,1.61,1.52,2.93,3.96,2.93
			c3.91,0,6.31-2.54,6.31-5.19V756.78z"/>
		
			<linearGradient id="SVGID_00000166641012884025715650000013548129596924515472_" gradientUnits="userSpaceOnUse" x1="1214.0651" y1="756.0203" x2="1230.4528" y2="756.0203">
			<stop  offset="0" style="stop-color:#00629C"/>
			<stop  offset="1" style="stop-color:#123673"/>
		</linearGradient>
		<path style="fill:url(#SVGID_00000166641012884025715650000013548129596924515472_);" d="M1214.07,745.92
			c0-2.15,1.42-3.33,3.23-3.33c1.81,0,3.23,1.17,3.23,3.33v2.74h0.1c0.83-2.98,2.45-6.07,5.92-6.07c2.25,0,3.91,1.47,3.91,3.47
			c0,2.64-1.76,3.57-3.52,3.57h-1.27c-2.89,0-4.45,2.01-4.45,7.92v8.32c0,1.91-0.78,3.57-3.57,3.57s-3.57-1.66-3.57-3.57V745.92z"/>
		
			<linearGradient id="SVGID_00000175319543709498601610000001706790177605790137_" gradientUnits="userSpaceOnUse" x1="1231.8727" y1="756.0203" x2="1257.1637" y2="756.0203">
			<stop  offset="0" style="stop-color:#00629C"/>
			<stop  offset="1" style="stop-color:#123673"/>
		</linearGradient>
		<path style="fill:url(#SVGID_00000175319543709498601610000001706790177605790137_);" d="M1256.43,761.92
			c0,2.98,0.73,3.67,0.73,4.79c0,1.61-1.52,2.74-3.23,2.74c-3.08,0-4.11-1.96-4.21-4.16c-2.79,3.08-6.02,4.16-9.78,4.16
			c-4.06,0-8.07-2.79-8.07-7.29c0-5.92,4.5-7.58,9.98-8.22l4.35-0.49c1.71-0.2,3.08-0.59,3.08-2.64c0-2.05-2.1-2.94-4.5-2.94
			c-5.28,0-5.43,3.91-8.27,3.91c-1.81,0-3.03-1.27-3.03-2.74c0-2.84,4.01-6.46,11.35-6.46c6.85,0,11.59,2.2,11.59,7.34V761.92z
			 M1249.29,756.78c-0.78,0.73-2.25,0.98-3.08,1.12l-2.59,0.39c-2.98,0.44-4.6,1.37-4.6,3.52c0,1.61,1.52,2.93,3.96,2.93
			c3.91,0,6.31-2.54,6.31-5.19V756.78z"/>
		
			<linearGradient id="SVGID_00000140007316929027738860000009082883680134341509_" gradientUnits="userSpaceOnUse" x1="1276.4879" y1="756.0203" x2="1302.9039" y2="756.0203">
			<stop  offset="0" style="stop-color:#00629C"/>
			<stop  offset="1" style="stop-color:#123673"/>
		</linearGradient>
		<path style="fill:url(#SVGID_00000140007316929027738860000009082883680134341509_);" d="M1289.69,742.59
			c8.61,0,13.21,5.87,13.21,13.4c0,7.14-3.47,13.45-13.21,13.45c-9.73,0-13.21-6.31-13.21-13.45
			C1276.49,748.46,1281.09,742.59,1289.69,742.59z M1289.69,764.17c4.26,0,6.07-3.82,6.07-8.17c0-4.65-1.91-8.12-6.07-8.12
			s-6.07,3.47-6.07,8.12C1283.63,760.35,1285.44,764.17,1289.69,764.17z"/>
		
			<linearGradient id="SVGID_00000029047465661083746930000005882134423943607197_" gradientUnits="userSpaceOnUse" x1="1321.3473" y1="756.0203" x2="1344.193" y2="756.0203">
			<stop  offset="0" style="stop-color:#00629C"/>
			<stop  offset="1" style="stop-color:#123673"/>
		</linearGradient>
		<path style="fill:url(#SVGID_00000029047465661083746930000005882134423943607197_);" d="M1332.06,742.59
			c5.43,0,10.91,2.15,10.91,5.43c0,1.66-1.12,3.13-2.98,3.13c-2.79,0-2.89-3.28-7.39-3.28c-2.5,0-4.11,0.68-4.11,2.2
			c0,1.66,1.61,2.05,3.81,2.54l2.98,0.68c4.06,0.93,8.9,2.64,8.9,7.63c0,5.82-5.63,8.51-11.01,8.51c-6.46,0-11.84-2.89-11.84-6.41
			c0-1.57,0.88-2.98,2.89-2.98c3.08,0,3.38,4.4,8.66,4.4c2.54,0,4.16-1.12,4.16-2.59c0-1.81-1.57-2.1-4.11-2.74l-4.21-1.03
			c-4.16-1.03-7.39-2.74-7.39-7.53C1321.35,744.74,1327.12,742.59,1332.06,742.59z"/>
		
			<linearGradient id="SVGID_00000112632948481244648810000006076012285417470655_" gradientUnits="userSpaceOnUse" x1="1348.7418" y1="756.0203" x2="1372.9567" y2="756.0203">
			<stop  offset="0" style="stop-color:#00629C"/>
			<stop  offset="1" style="stop-color:#123673"/>
		</linearGradient>
		<path style="fill:url(#SVGID_00000112632948481244648810000006076012285417470655_);" d="M1372.96,765.88
			c0,2.15-0.98,3.57-3.23,3.57s-3.23-1.42-3.23-3.57v-0.93h-0.1c-2.01,2.64-4.6,4.5-8.66,4.5c-4.31,0-9-2.15-9-9.39v-13.89
			c0-1.91,0.78-3.57,3.57-3.57c2.79,0,3.57,1.66,3.57,3.57v12.47c0,2.89,1.42,4.94,4.5,4.94c2.5,0,5.43-2.05,5.43-5.63v-11.79
			c0-1.91,0.78-3.57,3.57-3.57c2.79,0,3.57,1.66,3.57,3.57V765.88z"/>
		
			<linearGradient id="SVGID_00000089538982557743900190000017490839850098944658_" gradientUnits="userSpaceOnUse" x1="1377.2614" y1="756.0203" x2="1401.0836" y2="756.0203">
			<stop  offset="0" style="stop-color:#00629C"/>
			<stop  offset="1" style="stop-color:#123673"/>
		</linearGradient>
		<path style="fill:url(#SVGID_00000089538982557743900190000017490839850098944658_);" d="M1390.66,742.59
			c5.97,0,10.42,3.38,10.42,6.7c0,2.05-1.52,3.08-3.33,3.08c-3.38,0-2.15-4.21-7.29-4.21c-2.79,0-6.07,1.91-6.07,8.37
			c0,4.45,2.11,7.34,6.02,7.34c4.99,0,3.91-4.6,7.68-4.6c1.81,0,2.98,1.32,2.98,2.74c0,3.13-3.52,7.44-10.86,7.44
			c-8.8,0-12.96-5.43-12.96-12.92C1377.26,748.32,1381.91,742.59,1390.66,742.59z"/>
		
			<linearGradient id="SVGID_00000060741775216636830640000009705781797227177135_" gradientUnits="userSpaceOnUse" x1="1403.8239" y1="756.0203" x2="1430.2399" y2="756.0203">
			<stop  offset="0" style="stop-color:#00629C"/>
			<stop  offset="1" style="stop-color:#123673"/>
		</linearGradient>
		<path style="fill:url(#SVGID_00000060741775216636830640000009705781797227177135_);" d="M1410.97,757.37
			c0,3.77,2.45,6.51,6.6,6.51c5.38,0,5.38-3.52,8.27-3.52c1.71,0,2.94,1.47,2.94,2.79c0,4.3-6.9,6.31-11.2,6.31
			c-9.98,0-13.75-6.75-13.75-12.96c0-8.32,5.04-13.89,13.5-13.89c8.22,0,12.91,5.82,12.91,11.69c0,2.45-0.73,3.08-3.13,3.08H1410.97
			z M1423.49,753.26c-0.39-3.28-2.84-5.67-6.02-5.67c-3.57,0-5.72,2.2-6.51,5.67H1423.49z"/>
		
			<linearGradient id="SVGID_00000027598907515613821880000009069785013765172656_" gradientUnits="userSpaceOnUse" x1="1433.7145" y1="756.0203" x2="1456.5602" y2="756.0203">
			<stop  offset="0" style="stop-color:#00629C"/>
			<stop  offset="1" style="stop-color:#123673"/>
		</linearGradient>
		<path style="fill:url(#SVGID_00000027598907515613821880000009069785013765172656_);" d="M1444.43,742.59
			c5.43,0,10.91,2.15,10.91,5.43c0,1.66-1.12,3.13-2.98,3.13c-2.79,0-2.89-3.28-7.39-3.28c-2.5,0-4.11,0.68-4.11,2.2
			c0,1.66,1.61,2.05,3.81,2.54l2.98,0.68c4.06,0.93,8.9,2.64,8.9,7.63c0,5.82-5.63,8.51-11.01,8.51c-6.46,0-11.84-2.89-11.84-6.41
			c0-1.57,0.88-2.98,2.89-2.98c3.08,0,3.38,4.4,8.66,4.4c2.54,0,4.16-1.12,4.16-2.59c0-1.81-1.57-2.1-4.11-2.74l-4.21-1.03
			c-4.16-1.03-7.39-2.74-7.39-7.53C1433.71,744.74,1439.49,742.59,1444.43,742.59z"/>
		
			<linearGradient id="SVGID_00000140730467953344955330000003515332108487133629_" gradientUnits="userSpaceOnUse" x1="1459.984" y1="756.0203" x2="1482.8297" y2="756.0203">
			<stop  offset="0" style="stop-color:#00629C"/>
			<stop  offset="1" style="stop-color:#123673"/>
		</linearGradient>
		<path style="fill:url(#SVGID_00000140730467953344955330000003515332108487133629_);" d="M1470.7,742.59
			c5.43,0,10.91,2.15,10.91,5.43c0,1.66-1.12,3.13-2.98,3.13c-2.79,0-2.89-3.28-7.39-3.28c-2.5,0-4.11,0.68-4.11,2.2
			c0,1.66,1.61,2.05,3.81,2.54l2.98,0.68c4.06,0.93,8.9,2.64,8.9,7.63c0,5.82-5.63,8.51-11.01,8.51c-6.46,0-11.84-2.89-11.84-6.41
			c0-1.57,0.88-2.98,2.89-2.98c3.08,0,3.38,4.4,8.66,4.4c2.54,0,4.16-1.12,4.16-2.59c0-1.81-1.57-2.1-4.11-2.74l-4.21-1.03
			c-4.16-1.03-7.39-2.74-7.39-7.53C1459.98,744.74,1465.76,742.59,1470.7,742.59z"/>
		
			<linearGradient id="SVGID_00000155125036494251966600000004488595913953368977_" gradientUnits="userSpaceOnUse" x1="1486.3024" y1="756.0203" x2="1512.7184" y2="756.0203">
			<stop  offset="0" style="stop-color:#00629C"/>
			<stop  offset="1" style="stop-color:#123673"/>
		</linearGradient>
		<path style="fill:url(#SVGID_00000155125036494251966600000004488595913953368977_);" d="M1499.51,742.59
			c8.61,0,13.21,5.87,13.21,13.4c0,7.14-3.47,13.45-13.21,13.45c-9.74,0-13.21-6.31-13.21-13.45
			C1486.3,748.46,1490.9,742.59,1499.51,742.59z M1499.51,764.17c4.26,0,6.06-3.82,6.06-8.17c0-4.65-1.91-8.12-6.06-8.12
			s-6.07,3.47-6.07,8.12C1493.44,760.35,1495.26,764.17,1499.51,764.17z"/>
		
			<linearGradient id="SVGID_00000183941642793313909160000002686515144064847806_" gradientUnits="userSpaceOnUse" x1="1531.6012" y1="751.2019" x2="1567.2145" y2="751.2019">
			<stop  offset="0" style="stop-color:#00629C"/>
			<stop  offset="1" style="stop-color:#123673"/>
		</linearGradient>
		<path style="fill:url(#SVGID_00000183941642793313909160000002686515144064847806_);" d="M1549.41,732.76
			c11.54,0,17.81,7.68,17.81,18c0,9.93-5.77,18.88-17.81,18.88c-12.62,0-17.81-8.22-17.81-18.88
			C1531.6,740.44,1537.86,732.76,1549.41,732.76z M1549.41,763.19c7.29,0,9.79-5.67,9.79-12.43s-3.23-11.54-9.79-11.54
			c-6.55,0-9.78,4.79-9.78,11.54S1541.87,763.19,1549.41,763.19z"/>
		
			<linearGradient id="SVGID_00000134243375515070417060000005152168204822482616_" gradientUnits="userSpaceOnUse" x1="1572.2047" y1="756.0203" x2="1596.4196" y2="756.0203">
			<stop  offset="0" style="stop-color:#00629C"/>
			<stop  offset="1" style="stop-color:#123673"/>
		</linearGradient>
		<path style="fill:url(#SVGID_00000134243375515070417060000005152168204822482616_);" d="M1572.2,746.16
			c0-2.15,0.98-3.57,3.23-3.57s3.23,1.42,3.23,3.57v0.93h0.1c2.01-2.64,4.6-4.5,8.66-4.5c4.3,0,9,2.15,9,9.39v13.89
			c0,1.91-0.78,3.57-3.57,3.57c-2.79,0-3.57-1.66-3.57-3.57V753.4c0-2.89-1.42-4.94-4.5-4.94c-2.49,0-5.43,2.05-5.43,5.63v11.79
			c0,1.91-0.78,3.57-3.57,3.57c-2.79,0-3.57-1.66-3.57-3.57V746.16z"/>
		
			<linearGradient id="SVGID_00000145773259131255634310000015563608452583431100_" gradientUnits="userSpaceOnUse" x1="1602.486" y1="751.2014" x2="1609.6285" y2="751.2014">
			<stop  offset="0" style="stop-color:#00629C"/>
			<stop  offset="1" style="stop-color:#123673"/>
		</linearGradient>
		<path style="fill:url(#SVGID_00000145773259131255634310000015563608452583431100_);" d="M1602.49,736.53
			c0-2.35,1.42-3.57,3.57-3.57s3.57,1.22,3.57,3.57v29.35c0,2.35-1.42,3.57-3.57,3.57s-3.57-1.22-3.57-3.57V736.53z"/>
		
			<linearGradient id="SVGID_00000013893780018565261190000012408172428348105390_" gradientUnits="userSpaceOnUse" x1="1615.9391" y1="751.1038" x2="1623.3746" y2="751.1038">
			<stop  offset="0" style="stop-color:#00629C"/>
			<stop  offset="1" style="stop-color:#123673"/>
		</linearGradient>
		<path style="fill:url(#SVGID_00000013893780018565261190000012408172428348105390_);" d="M1619.66,732.76
			c2.05,0,3.72,1.66,3.72,3.72s-1.66,3.72-3.72,3.72s-3.72-1.66-3.72-3.72S1617.6,732.76,1619.66,732.76z M1616.09,746.16
			c0-1.91,0.78-3.57,3.57-3.57c2.79,0,3.57,1.66,3.57,3.57v19.71c0,1.91-0.78,3.57-3.57,3.57c-2.79,0-3.57-1.66-3.57-3.57V746.16z"
			/>
		
			<linearGradient id="SVGID_00000097482908986021403730000014341316074530704278_" gradientUnits="userSpaceOnUse" x1="1629.2946" y1="756.0203" x2="1653.5094" y2="756.0203">
			<stop  offset="0" style="stop-color:#00629C"/>
			<stop  offset="1" style="stop-color:#123673"/>
		</linearGradient>
		<path style="fill:url(#SVGID_00000097482908986021403730000014341316074530704278_);" d="M1629.29,746.16
			c0-2.15,0.98-3.57,3.23-3.57s3.23,1.42,3.23,3.57v0.93h0.1c2.01-2.64,4.6-4.5,8.66-4.5c4.3,0,9,2.15,9,9.39v13.89
			c0,1.91-0.78,3.57-3.57,3.57c-2.79,0-3.57-1.66-3.57-3.57V753.4c0-2.89-1.42-4.94-4.5-4.94c-2.49,0-5.43,2.05-5.43,5.63v11.79
			c0,1.91-0.78,3.57-3.57,3.57c-2.79,0-3.57-1.66-3.57-3.57V746.16z"/>
		
			<linearGradient id="SVGID_00000160874372932935639830000016623692366820118666_" gradientUnits="userSpaceOnUse" x1="1658.1071" y1="756.0203" x2="1684.525" y2="756.0203">
			<stop  offset="0" style="stop-color:#00629C"/>
			<stop  offset="1" style="stop-color:#123673"/>
		</linearGradient>
		<path style="fill:url(#SVGID_00000160874372932935639830000016623692366820118666_);" d="M1665.25,757.37
			c0,3.77,2.45,6.51,6.61,6.51c5.38,0,5.38-3.52,8.27-3.52c1.71,0,2.93,1.47,2.93,2.79c0,4.3-6.9,6.31-11.2,6.31
			c-9.98,0-13.75-6.75-13.75-12.96c0-8.32,5.04-13.89,13.5-13.89c8.22,0,12.92,5.82,12.92,11.69c0,2.45-0.73,3.08-3.13,3.08H1665.25
			z M1677.77,753.26c-0.39-3.28-2.84-5.67-6.02-5.67c-3.57,0-5.72,2.2-6.51,5.67H1677.77z"/>
	</g>
</g>
</svg>
