<svg width="2000" height="2000" viewBox="0 0 2000 2000" fill="none" xmlns="http://www.w3.org/2000/svg">
<path d="M422.444 1559.11C465.555 1586 537.222 1615.89 613 1615.89C682 1615.89 746.111 1595.89 799.222 1561.78L799.444 1561.67L1000 1436.33V1888.89C967.653 1888.93 935.939 1879.93 908.444 1862.89L422.444 1559.11Z" fill="#225086"/>
<path d="M872.558 167.444L39.2247 1107.44C-25.1086 1180.11 -8.33081 1289.89 75.1136 1342L422.447 1559.11C465.558 1586 537.225 1615.89 613.003 1615.89C682.003 1615.89 746.114 1595.89 799.225 1561.78L799.447 1561.67L1000 1436.33L515.114 1133.22L1000.11 586.111V111.111C953.003 111.111 905.891 129.889 872.558 167.444Z" fill="#66DDFF"/>
<path d="M515.111 1133.22L520.889 1136.78L1000 1436.33H1000.11V586.222L1000 586.111L515.111 1133.22Z" fill="#CBF8FF"/>
<path d="M1924.89 1342C2008.33 1289.89 2025.11 1180.11 1960.78 1107.44L1414 490.667C1368.32 469.35 1318.52 458.313 1268.11 458.333C1165.33 458.333 1073.44 502.667 1012.33 572.333L1000.22 586L1485.11 1133.11L1000.11 1436.22V1888.78C1032 1888.78 1063.78 1880.11 1091.56 1862.78L1924.89 1341.89V1342Z" fill="#074793"/>
<path d="M1000.11 111.111V586.111L1012.22 572.444C1044.28 536.331 1083.69 507.479 1127.8 487.819C1171.91 468.16 1219.71 458.145 1268 458.444C1320.44 458.444 1369.78 470.333 1413.89 490.778L1127.33 167.556C1111.31 149.677 1091.68 135.408 1069.72 125.696C1047.77 115.983 1024 111.05 1000 111.222L1000.11 111.111Z" fill="#0294E4"/>
<path d="M1485 1133.22L1000.11 586.222V1436.22L1485 1133.22Z" fill="#96BCC2"/>
</svg>
