<?xml version="1.0" encoding="utf-8"?>
<!-- Generator: Adobe Illustrator 27.0.0, SVG Export Plug-In . SVG Version: 6.00 Build 0)  -->
<svg version="1.1" id="Layer_1" xmlns="http://www.w3.org/2000/svg" xmlns:xlink="http://www.w3.org/1999/xlink" x="0px" y="0px"
	 viewBox="0 0 3072.69 2000" style="enable-background:new 0 0 3072.69 2000;" xml:space="preserve">
<style type="text/css">
	.st0{fill:url(#SVGID_1_);}
	.st1{fill:#FFFFFF;}
	.st2{font-family:'SegoeUI-Semibold';}
	.st3{font-size:111.9238px;}
	.st4{fill:url(#SVGID_00000065032029032573890580000011008549490010004922_);}
	.st5{fill:url(#SVGID_00000001643282146926745120000016531048291434920848_);}
	.st6{fill:url(#SVGID_00000151540834680054030370000002708969307373126810_);}
	.st7{fill:url(#SVGID_00000144309238836877085090000008808883396756295853_);}
	.st8{fill:url(#SVGID_00000180336464913112652910000011090466879530869167_);}
	.st9{fill:url(#SVGID_00000126317402860231555170000003903574362893101240_);}
	.st10{fill:url(#SVGID_00000056407263315862631300000000217175689771804859_);}
	.st11{fill:url(#SVGID_00000130638938663713475550000008195901667687537315_);}
	.st12{fill:url(#SVGID_00000065754423375016608820000007470576232439938445_);}
</style>
<linearGradient id="SVGID_1_" gradientUnits="userSpaceOnUse" x1="0" y1="1000" x2="3072.6926" y2="1000">
	<stop  offset="0" style="stop-color:#376298"/>
	<stop  offset="1" style="stop-color:#263971"/>
</linearGradient>
<rect class="st0" width="3072.69" height="2000"/>
<g>
	<path class="st1" d="M1279.9,1117.48h-52.53l-15.22-47.6h-76.1l-15.07,47.6h-52.23l77.89-213.98h57.15L1279.9,1117.48z
		 M1201.11,1032.87l-22.98-71.92c-1.69-5.37-2.89-11.79-3.58-19.25h-1.19c-0.5,6.27-1.74,12.49-3.73,18.65l-23.28,72.52H1201.11z"/>
	<path class="st1" d="M1499.1,1117.48h-48.65l-88.19-134.45c-5.17-7.86-8.75-13.78-10.74-17.76h-0.6c0.79,7.56,1.19,19.1,1.19,34.62
		v117.59h-45.51V903.5h51.93l84.91,130.27c3.88,5.87,7.46,11.69,10.74,17.46h0.6c-0.8-4.97-1.19-14.77-1.19-29.4V903.5h45.51
		V1117.48z"/>
	<path class="st1" d="M1723.68,1103.16c-20.89,12.04-46.85,18.06-77.89,18.06c-34.42,0-61.55-9.52-81.4-28.58
		c-19.85-19.05-29.77-45.29-29.77-78.71c0-33.62,10.84-61.03,32.53-82.22c21.69-21.19,50.53-31.78,86.55-31.78
		c22.68,0,42.68,3.13,59.99,9.4v45.21c-16.51-9.55-36.71-14.33-60.58-14.33c-20,0-36.29,6.49-48.87,19.47
		c-12.59,12.98-18.88,30.32-18.88,52c0,21.99,5.64,39,16.94,51.03c11.29,12.04,26.54,18.06,45.74,18.06
		c11.54,0,20.69-1.64,27.46-4.92v-41.78h-42.83v-38.5h91.02V1103.16z"/>
	<path class="st1" d="M1855.74,1121.21c-30.64,0-55.61-9.97-74.91-29.92c-19.3-19.94-28.95-45.93-28.95-77.97
		c0-33.82,9.8-61.18,29.4-82.07c19.6-20.89,45.56-31.34,77.89-31.34c30.54,0,55.24,10,74.09,29.99c18.85,20,28.28,46.36,28.28,79.09
		c0,33.63-9.77,60.73-29.32,81.32C1912.67,1110.91,1887.17,1121.21,1855.74,1121.21z M1857.83,941.4
		c-16.91,0-30.34,6.34-40.29,19.03c-9.95,12.68-14.92,29.47-14.92,50.36c0,21.19,4.97,37.95,14.92,50.29
		c9.95,12.34,22.98,18.5,39.1,18.5c16.61,0,29.79-5.99,39.54-17.98c9.75-11.99,14.62-28.62,14.62-49.91
		c0-22.18-4.73-39.44-14.18-51.78C1887.17,947.57,1874.24,941.4,1857.83,941.4z"/>
	<path class="st1" d="M2126.93,988.85h-81.68V903.5h-48.2v213.98h48.2v-86.82l-0.09-3.54L2126.93,988.85z M2133.88,903.5v85.35
		h-0.01v7.43l-77.09,34.06h77.1v87.14h48.35V903.5H2133.88z"/>
	<path class="st1" d="M2321.6,1121.21c-30.64,0-55.61-9.97-74.91-29.92c-19.3-19.94-28.95-45.93-28.95-77.97
		c0-33.82,9.8-61.18,29.4-82.07c19.6-20.89,45.56-31.34,77.89-31.34c30.54,0,55.24,10,74.09,29.99c18.85,20,28.28,46.36,28.28,79.09
		c0,33.63-9.77,60.73-29.32,81.32C2378.53,1110.91,2353.04,1121.21,2321.6,1121.21z M2323.69,941.4c-16.91,0-30.34,6.34-40.29,19.03
		c-9.95,12.68-14.92,29.47-14.92,50.36c0,21.19,4.97,37.95,14.92,50.29c9.95,12.34,22.98,18.5,39.1,18.5
		c16.61,0,29.79-5.99,39.54-17.98c9.75-11.99,14.62-28.62,14.62-49.91c0-22.18-4.73-39.44-14.18-51.78
		C2353.04,947.57,2340.1,941.4,2323.69,941.4z"/>
	<path class="st1" d="M2453.07,1109.27v-47.75c8.65,7.26,18.05,12.71,28.2,16.34c10.15,3.63,20.39,5.45,30.74,5.45
		c6.07,0,11.36-0.55,15.89-1.64c4.53-1.09,8.31-2.61,11.34-4.55c3.03-1.94,5.3-4.23,6.79-6.86c1.49-2.63,2.24-5.5,2.24-8.58
		c0-4.18-1.19-7.91-3.58-11.19c-2.39-3.28-5.65-6.32-9.77-9.1c-4.13-2.78-9.03-5.47-14.7-8.06c-5.67-2.59-11.79-5.22-18.35-7.91
		c-16.71-6.96-29.17-15.47-37.38-25.52c-8.21-10.05-12.31-22.18-12.31-36.41c0-11.14,2.24-20.72,6.71-28.72
		c4.48-8.01,10.57-14.6,18.28-19.77c7.71-5.17,16.64-8.98,26.79-11.42c10.15-2.44,20.89-3.66,32.23-3.66
		c11.14,0,21.01,0.67,29.62,2.01c8.6,1.34,16.54,3.41,23.8,6.19v44.62c-3.58-2.49-7.49-4.67-11.71-6.57
		c-4.23-1.89-8.58-3.46-13.06-4.7c-4.48-1.24-8.93-2.16-13.36-2.76c-4.43-0.6-8.63-0.9-12.61-0.9c-5.47,0-10.45,0.52-14.92,1.57
		c-4.48,1.04-8.26,2.51-11.34,4.4c-3.08,1.89-5.47,4.15-7.16,6.79c-1.69,2.64-2.54,5.6-2.54,8.88c0,3.58,0.94,6.79,2.83,9.62
		c1.89,2.83,4.58,5.52,8.06,8.06c3.48,2.54,7.71,5.02,12.68,7.46c4.97,2.44,10.59,4.95,16.86,7.54c8.55,3.58,16.24,7.39,23.05,11.42
		c6.81,4.03,12.66,8.58,17.53,13.65c4.87,5.07,8.6,10.87,11.19,17.38c2.59,6.52,3.88,14.1,3.88,22.76c0,11.94-2.26,21.96-6.79,30.07
		c-4.53,8.11-10.67,14.67-18.43,19.7c-7.76,5.02-16.79,8.63-27.08,10.82c-10.3,2.19-21.17,3.28-32.6,3.28
		c-11.74,0-22.91-1-33.5-2.98S2460.82,1113.25,2453.07,1109.27z"/>
	<path class="st1" d="M2784.48,942.74h-61.03v174.74h-48.35V942.74h-60.73V903.5h170.11V942.74z"/>
</g>
<text transform="matrix(1 0 0 1 1378.1213 1258.4078)" class="st1 st2 st3">Seu site sempre no ar</text>
<path class="st1" d="M844.45,1079.79h-0.11v150.16l-132.02,36.32V831.78l131.93-36.3h0.09v171.13h162.98L844.45,1079.79z
	 M480.76,935.55c-3.79-17.04-6.42-33-7.86-47.86h-2.71c-0.37,4.76-1.63,12.59-3.8,23.48c-2.17,10.9-13.11,57.66-32.81,140.29h74.3
	L480.76,935.55z M1146.76,797.4V598.75c0-14.09-11.52-25.61-25.6-25.61H359.82c-14.08,0-25.61,11.52-25.61,25.61v402.45
	l55.66-168.35l157.87-37.89l129.97,436.47L561.65,1261l-32.08-118.29H413.52l-20.65,87.86l-58.66,13.87v115.67
	c0,14.08,11.53,25.6,25.61,25.6h761.34c14.08,0,25.6-11.52,25.6-25.6v-128.29l-125.02,34.4v-186.43H884.65l137.14-95.28l-0.05-17.9
	V831.8L1146.76,797.4z M472.9,887.69h-2.71c-0.37,4.76-1.63,12.59-3.8,23.48c-2.17,10.9-13.11,57.66-32.81,140.29h74.3
	l-27.12-115.91C476.97,918.51,474.34,902.55,472.9,887.69z"/>
</svg>
