<?xml version="1.0" encoding="utf-8"?>
<!-- Generator: Adobe Illustrator 27.0.0, SVG Export Plug-In . SVG Version: 6.00 Build 0)  -->
<svg version="1.1" id="Layer_1" xmlns="http://www.w3.org/2000/svg" xmlns:xlink="http://www.w3.org/1999/xlink" x="0px" y="0px"
	 viewBox="0 0 3072.69 2000" style="enable-background:new 0 0 3072.69 2000;" xml:space="preserve">
<style type="text/css">
	.st0{fill:url(#SVGID_1_);}
	.st1{fill:#FFFFFF;}
	.st2{fill:url(#SVGID_00000069364839885901448200000008901954684613853102_);}
</style>
<linearGradient id="SVGID_1_" gradientUnits="userSpaceOnUse" x1="0" y1="1000" x2="3072.6926" y2="1000">
	<stop  offset="0" style="stop-color:#376298"/>
	<stop  offset="1" style="stop-color:#263971"/>
</linearGradient>
<rect class="st0" width="3072.69" height="2000"/>
<path class="st1" d="M1679.06,1137.77h-0.15v206.12l-181.22,49.85V797.32l181.11-49.82h0.12v234.91h223.73L1679.06,1137.77z
	 M1179.82,939.77c-5.2-23.39-8.81-45.3-10.79-65.7h-3.72c-0.51,6.53-2.24,17.28-5.22,32.23c-2.98,14.96-18,79.15-45.04,192.58
	h101.99L1179.82,939.77z M2094.05,750.13V477.44c0-19.34-15.81-35.16-35.14-35.16H1013.8c-19.33,0-35.16,15.81-35.16,35.16v552.45
	l76.41-231.1l216.71-52.01l178.41,599.15l-159.32,40.59l-44.04-162.38h-159.3l-28.35,120.61l-80.52,19.04v158.78
	c0,19.33,15.83,35.14,35.16,35.14h1045.11c19.33,0,35.14-15.81,35.14-35.14v-176.11l-171.62,47.22v-255.92h-188.19l188.26-130.79
	l-0.07-24.57V797.35L2094.05,750.13z M1169.03,874.07h-3.72c-0.51,6.53-2.24,17.28-5.22,32.23c-2.98,14.96-18,79.15-45.04,192.58
	h101.99l-37.23-159.11C1174.61,916.38,1171,894.47,1169.03,874.07z"/>
</svg>
